<svg width="26" height="45" viewBox="0 0 26 45" fill="none" xmlns="http://www.w3.org/2000/svg">
<path d="M0 28.0319C1.05369 31.6859 2.68058 35.1495 4.81998 38.2935C8.00968 42.7427 11.8755 45 16.3083 45H16.8536C18.362 44.9405 19.8241 44.4621 21.0761 43.6185C22.328 42.7749 23.3203 41.5994 23.9418 40.2236C24.5697 38.9008 24.8106 37.4275 24.637 35.9736C24.4633 34.5196 23.8821 33.1445 22.9603 32.0068C21.806 30.5933 20.3851 29.4206 18.7783 28.5553L18.8546 28.479C19.0467 28.2843 19.1544 28.0218 19.1545 27.7484C19.1545 26.4998 19.1545 25.8564 19.1545 25.7146C19.1808 25.6433 19.2216 25.5783 19.2745 25.5238L21.052 23.7081L22.9931 21.7289C23.0837 21.6402 23.1556 21.5341 23.2043 21.417C23.253 21.2999 23.2776 21.1741 23.2766 21.0473V19.6842V18.7136C23.9964 18.4313 24.5982 17.9115 24.9821 17.2403C25.366 16.5691 25.509 15.7869 25.3875 15.0233C25.2659 14.2597 24.8871 13.5605 24.3138 13.0417C23.7405 12.5229 23.0071 12.2156 22.2352 12.1707C21.4444 12.1287 20.6641 12.3671 20.0318 12.8439C19.3995 13.3206 18.9556 14.0051 18.7783 14.7769C18.5923 15.5713 18.6975 16.406 19.0747 17.1294C19.4519 17.8528 20.0761 18.4168 20.8339 18.7191V20.393C20.8339 20.4366 20.8339 20.4475 20.7794 20.5021C19.4162 21.887 18.1676 23.1628 16.9626 24.3951C16.8079 24.5659 16.719 24.7863 16.7118 25.0167V25.382V25.6328C16.7118 25.6819 16.7118 26.7233 16.7118 27.1486C16.7151 27.1648 16.7151 27.1815 16.7118 27.1977C15.8885 28.0483 15.0434 28.9098 14.2037 29.7713V6.54917C14.9033 6.28341 15.495 5.79299 15.8859 5.15481C16.2768 4.51663 16.4449 3.76676 16.3639 3.02276C16.2828 2.27876 15.9571 1.5827 15.4379 1.04369C14.9187 0.504687 14.2353 0.153216 13.4949 0.044375C12.79 -0.0723206 12.0663 0.0426031 11.4322 0.371918C10.7982 0.701232 10.2879 1.22719 9.97802 1.87095C9.63726 2.50267 9.52737 3.23343 9.66724 3.93744C9.75591 4.51864 9.99754 5.06581 10.3674 5.52284C10.7372 5.97987 11.222 6.33032 11.7719 6.53826C11.7719 10.4913 11.7719 20.4802 11.7719 24.6296V29.1497C11.1285 28.4845 10.4796 27.8247 9.84716 27.165C9.84469 27.1487 9.84469 27.1322 9.84716 27.1159V22.0724C9.84761 21.9406 9.8218 21.81 9.77125 21.6883C9.7207 21.5666 9.64641 21.4562 9.55272 21.3635C8.30411 20.0986 7.02823 18.79 5.73599 17.4814V17.4268V15.2459C5.73599 14.8424 5.73599 14.6243 5.73599 12.9449C6.30383 12.7572 6.81183 12.4225 7.20832 11.9748C7.6048 11.527 7.87563 10.9823 7.99324 10.3959C8.11086 9.80952 8.07106 9.20246 7.87791 8.63645C7.68476 8.07045 7.34516 7.5657 6.89363 7.17355C6.44209 6.78139 5.89474 6.51583 5.30726 6.40387C4.71978 6.29191 4.11313 6.33755 3.54902 6.53614C2.9849 6.73473 2.48344 7.0792 2.09566 7.53449C1.70788 7.98978 1.4476 8.53965 1.3413 9.12819C1.22104 9.87498 1.3463 10.6406 1.69827 11.3102C2.05025 11.9797 2.60994 12.517 3.2933 12.8413V18.0375C3.29345 18.311 3.40116 18.5734 3.59318 18.7682C4.19295 19.3788 4.79817 19.9895 5.39794 20.6056C5.99771 21.2218 6.68472 21.9197 7.33356 22.574C7.36342 22.5967 7.38707 22.6267 7.40232 22.661C7.41757 22.6953 7.42391 22.7329 7.42081 22.7703C7.42081 23.779 7.42081 24.1279 7.42081 24.3297V25.5456C6.24852 25.442 5.07624 25.4038 3.3151 25.4038H2.02286C1.7089 25.4101 1.4007 25.4893 1.12253 25.635C0.844351 25.7807 0.603797 25.989 0.419834 26.2435C0.23429 26.4936 0.110005 26.7837 0.0569741 27.0905C0.00394307 27.3973 0.0236466 27.7123 0.114497 28.0101L0 28.0319ZM4.65641 11.1074C4.38682 11.1074 4.12326 11.0275 3.8991 10.8777C3.67493 10.7279 3.50022 10.515 3.39705 10.266C3.29387 10.0169 3.26689 9.74281 3.31949 9.47839C3.37208 9.21397 3.5019 8.97109 3.69253 8.78045C3.88317 8.58982 4.12606 8.45999 4.39048 8.40739C4.6549 8.35479 4.92897 8.38179 5.17805 8.48496C5.42713 8.58814 5.64003 8.76285 5.78981 8.98701C5.93959 9.21118 6.01953 9.47472 6.01953 9.74432C6.02025 9.92353 5.98548 10.1011 5.91723 10.2668C5.84899 10.4325 5.7486 10.5831 5.62188 10.7098C5.49516 10.8365 5.34461 10.9369 5.1789 11.0051C5.01319 11.0734 4.83562 11.1082 4.65641 11.1074ZM20.7903 15.5185C20.7903 15.2489 20.8702 14.9853 21.02 14.7612C21.1698 14.537 21.3827 14.3623 21.6317 14.2591C21.8808 14.156 22.1549 14.129 22.4193 14.1816C22.6837 14.2342 22.9266 14.364 23.1173 14.5546C23.3079 14.7453 23.4377 14.9881 23.4903 15.2526C23.5429 15.517 23.5159 15.791 23.4127 16.0401C23.3096 16.2892 23.1349 16.5021 22.9107 16.6519C22.6865 16.8017 22.423 16.8816 22.1534 16.8816C21.7919 16.8816 21.4452 16.738 21.1895 16.4824C20.9339 16.2267 20.7903 15.88 20.7903 15.5185ZM13.0641 4.74985C12.7945 4.74985 12.531 4.66991 12.3068 4.52013C12.0827 4.37034 11.9079 4.15746 11.8048 3.90838C11.7016 3.6593 11.6746 3.38523 11.7272 3.12081C11.7798 2.85639 11.9096 2.6135 12.1003 2.42287C12.2909 2.23223 12.5338 2.10241 12.7982 2.04982C13.0626 1.99722 13.3367 2.02421 13.5858 2.12738C13.8348 2.23055 14.0477 2.40527 14.1975 2.62943C14.3473 2.8536 14.4272 3.11714 14.4272 3.38673C14.4272 3.74826 14.2836 4.09497 14.028 4.35061C13.7723 4.60624 13.4256 4.74985 13.0641 4.74985ZM14.4272 34.384C14.4283 34.6539 14.3493 34.9179 14.2002 35.1428C14.051 35.3677 13.8385 35.5433 13.5895 35.6473C13.3406 35.7513 13.0663 35.779 12.8015 35.7271C12.5368 35.6751 12.2934 35.5457 12.1022 35.3553C11.911 35.1649 11.7806 34.922 11.7276 34.6574C11.6746 34.3929 11.7012 34.1185 11.8042 33.8691C11.9073 33.6197 12.082 33.4065 12.3062 33.2565C12.5305 33.1065 12.7943 33.0264 13.0641 33.0264C13.4247 33.0264 13.7706 33.1692 14.0261 33.4237C14.2815 33.6782 14.4258 34.0235 14.4272 34.384ZM2.61718 27.8411C2.6465 27.8005 2.68503 27.7676 2.72958 27.7448C2.77413 27.7221 2.82343 27.7102 2.87345 27.7102H3.30965C5.12533 27.7102 6.26489 27.7538 7.44262 27.8629C7.47065 28.0859 7.57236 28.2931 7.7316 28.4517C8.33682 29.0624 8.93659 29.6786 9.53637 30.2892L10.9595 31.7396C10.5218 32.0884 10.1775 32.5403 9.95727 33.0549C9.73703 33.5694 9.64778 34.1305 9.69747 34.6879C9.74717 35.2454 9.93427 35.7818 10.242 36.2493C10.5498 36.7167 10.9686 37.1006 11.4611 37.3665C12.1749 37.7522 13.0036 37.8683 13.7959 37.6936C14.5883 37.5189 15.2913 37.065 15.7767 36.4149C16.2622 35.7648 16.4976 34.9618 16.44 34.1525C16.3825 33.3432 16.0358 32.5816 15.4632 32.0068C16.0466 31.4234 16.6191 30.8345 17.1971 30.2456C18.7656 30.9981 20.1517 32.0828 21.2592 33.4244C21.9118 34.2301 22.3228 35.2042 22.4444 36.2339C22.566 37.2636 22.3933 38.3067 21.9462 39.2422C21.5019 40.2299 20.7909 41.074 19.8932 41.6799C18.9955 42.2857 17.9467 42.6292 16.8645 42.6718H16.4337C8.16779 42.6718 3.98575 32.5029 2.56811 28.1301C2.55447 28.0812 2.55179 28.03 2.56027 27.9801C2.56876 27.9301 2.58819 27.8826 2.61718 27.8411Z" fill="#007B00"/>
</svg>
