<?xml version="1.0" encoding="utf-8"?>
<!-- Generator: Adobe Illustrator 21.0.0, SVG Export Plug-In . SVG Version: 6.00 Build 0)  -->
<svg version="1.1" id="Layer_1" xmlns="http://www.w3.org/2000/svg" xmlns:xlink="http://www.w3.org/1999/xlink" x="0px" y="0px"
	 viewBox="0 0 230 155" style="enable-background:new 0 0 230 155;" xml:space="preserve">
<style type="text/css">
	.st0{fill:#007B00;}
	.st1{fill:#F3F2EF;}
</style>
<path class="st0" d="M3.3,94.7c0-1.8,0-3.5,0-5.3c1.6-3.3,1.1-7,1.4-10.5c1-10.4,2.4-20.6,6.1-30.4c5-13.1,13.7-22,28-24.4
	c8.3-1.4,16.7-1.4,25.1-1.4c15.8,0.1,31.5,0.6,47.2,1.8c13.7,1.1,27.5,1.4,41.2,2.6c17.9,1.7,35.7,1.3,53.5-0.8
	c8.6-1,14.1,2.9,15.7,11.7c1.4,7.7,0.8,15.4,0.1,23.1c-2,21.6-12.6,36.4-33.3,43.7c-24.3,8.5-49.5,11.9-75.1,13.2
	c-9,0.5-18,0.7-27,1.7c-20.1,2.3-39.9,6.5-59.6,11.4c-3.6,0.9-6.8,1.2-9.9-1.2c-6.9-9-10-19.4-11.9-30.3C4.6,98,4.9,96,3.3,94.7z
	 M205.3,53c-2.7-5.3-5.8-6-10.1-1.8c-1.4,1.4-2.5,3.1-3.8,4.6c-0.6,0.7-1.6,1.5-2-0.3c-1.2-4.6-2.7-5.2-7-3.1
	c-4.8,2.4-7.4,6.6-8.8,11.6c-1,3.6-3.7,5.5-6.9,7c-1.7,0.8-3.2,0.3-3.1-1.8c0.2-4.1,1.7-7.8,4.5-10.9c0.7-0.8,2-1.7,2.3,0.5
	c0.1,0.8-0.2,1.9,1.2,1.9c1.2,0,1.7-0.9,2.1-1.9c0.5-1.3,1-2.7-0.1-3.9c-1.2-1.3-2.7-1-4.2-0.7c-6.5,1.5-10.6,8.9-11.3,13.1
	c-0.2,1.1-0.4,2.2-0.8,3.2c-0.5,1.2-1.3,1.9-2.6,1.6c-1.5-0.4-0.8-1.7-0.6-2.5c0.4-2.6,0.9-5.2,1.6-7.7c0.7-2.3-0.7-3.5-2.4-3.9
	c-1.9-0.5-2.5,1.3-2.8,2.7c-0.7,3.8-1.6,7.6-3.8,10.9c-0.9,1.3-1.5,3.1-4.2,3.3c0.7-3.2,1.4-5.9,2-8.7c0.5-2.5,2.2-5.6-1.7-6.5
	c-3.7-0.8-2.8,3-3.5,4.9c-1.1,3.2-1.3,6.7-2.8,9.7c-0.7,1.3-1.7,2.5-3.2,2c-1.4-0.5-0.7-1.9-0.5-3c0.8-6.5,2.2-12.8,3.6-19.2
	c0.2-1.1,0.5-2.2,0.5-3.3c0-1.5-0.8-2.7-2.4-2.9c-1.7-0.3-2.1,1-2.5,2.2c-0.5,1.8-1,3.6-1.2,5.5c-0.4,3.1-0.8,5.9-5.1,5.7
	c-1.1,0-2.2,1-3.3,1.7c-4.3,2.9-5.6,7.5-6.6,12.2c-0.4,1.7-0.9,3.1-2.1,4.3c-0.5,0.4-1,0.9-1.6,0.6c-0.7-0.3-0.5-1.1-0.4-1.7
	c0.6-2.8,1-5.7,1.8-8.4c0.7-2.3,0.3-4.1-2-4.8c-2.7-0.9-2.6,1.7-3.1,3.2c-0.7,1.9-1.1,3.9-1.5,5.8c-0.6,2.4-1.7,4.4-3.3,6.2
	c-0.5,0.6-1.2,1.6-2.1,1.2c-1.4-0.5-0.6-1.7-0.4-2.6c0.6-2.8,1.4-5.6,2-8.4c0.5-2.1-0.5-3.5-2.5-3.9c-2.1-0.5-2.4,1.3-2.8,2.8
	c-0.9,3.1-1.6,6.3-2.5,9.4c-0.3,1.1-0.8,2.1-1.4,3c-0.6,0.9-1.6,1.7-2.9,1.3c-1.5-0.5-1-1.9-0.8-2.9c0.4-2.2,1-4.4,1.3-6.6
	c0.6-4.9-1.5-6.9-6.4-5.7c-6.2,1.5-9.5,5.9-11.4,11.6c-1.3,3.8-0.5,8,2.1,9.5c3.2,1.9,5.8,0.2,8.1-1.9c1-0.9,1.6-1.2,2.8-0.3
	c2.4,1.9,4.6,1.2,6.8-0.6c0.7-0.6,1.2-2.2,2.7-1c3.3,2.6,5.8,0.6,8.3-1.4c0.7-0.6,1-2.4,2.6-0.9c2.7,2.5,5,0.9,7.3-0.8
	c0.8-0.6,1.1-2.1,2.7-0.9c3.2,2.5,6.1,1.3,8.7-1.2c0.6-0.6,1.2-1.9,2.4-0.8c3,2.7,5.5,1.1,7.9-1c0.6-0.5,1.2-1.5,2.2-0.6
	c3,2.9,5.5,1,7.9-1c0.8-0.7,1.5-2,2.8-0.9c3.1,2.6,5.5,0.8,8-1.1c0.8-0.6,1.4-1.9,2.8-0.6c3,2.8,5.8,1.2,8.4-0.7
	c2.6-2,4.7-4.5,8.2-1.2c1.1,1.1,3.4,0.5,5-0.3c2-0.9,3.8-2,5.2-3.6c1.3-1.4,2-1.2,3.3,0.1c3.2,3.3,6,3.4,9.5,0.4
	c2.2-1.8,3.8-4,4.7-6.7c0.9-2.8,1.8-5.3,4-7.4c1.1-1,2.7-3.2,1.6-4.2C207.4,49.4,206.6,52.3,205.3,53z M52.3,30.8
	c-1.7,0.2-2.2,1.2-2.8,1.9C41.9,41.2,37.2,51.1,35,62.3c-3.5,18.2-2.9,37.1-10,55.3c3.7-2.5,5.3-5.9,7-9.2c0.9-1.8,1.9-3.6,4.3-3.6
	c2.7,0,5.1-1.2,7.6-1.9c15.5-4.5,25.2-14.5,28.8-30.4c1.4-6-0.8-9-7-9.3c-1.6-0.1-2.1-0.4-1.3-1.9c1.2-2.3,2.4-4.7,3.3-7.1
	c1.1-3,2-6.2-0.8-8.7c-2.9-2.6-6.1-1.7-9.1-0.2c-1.3,0.6-2.5,1.6-3.9,2.3c-2.2,1-3.6,3.4-6.6,4.4C48.8,44.7,51.6,38.1,52.3,30.8z
	 M36.8,113.9c2-0.8,4-1.7,6-2.5c6.7-2.5,13.7-3.6,20.7-5c7-1.4,13.9-1.1,20.8-1.5c4.7-0.2,9.1-1.5,13.6-2.4
	c5.7-1.1,10.6-4.3,15.3-7.8c1.8-1.3,3-2.6,3.7-5.3c-15.4,6.5-31.3,7.8-46.9,10.2c-8.2,1.3-16.3,2.8-23.9,6.3
	C42.4,107.7,38.9,109.8,36.8,113.9z M24,104.8c0.2,0.1,0.5,0.2,0.7,0.2c0.2-0.4,0.5-0.9,0.6-1.3c1.9-10.6,3.2-21.3,2.4-32.1
	c-0.6-7.3-2-14.4-5.6-20.8c-0.4-0.7-0.8-1.8-1.8-1.6c-1.1,0.2-1,1.3-1.1,2.2c-0.5,4.8,0.1,9.5,1,14.2c1.6,8.1,3.7,16.1,3.8,24.4
	C24.1,94.8,24,99.8,24,104.8z M90.7,112.1c-14-3.1-28-3.8-41.9,0.6c2.6,1.2,5.6,0.6,7.9,0.3c4.9-0.7,9.3,0.1,14,1
	C77.5,115.2,84.3,115.6,90.7,112.1z M211.8,68.1c-0.1-1.9-1-3.2-2.9-3.3c-1.9-0.1-3,1-3.1,3c-0.1,2,1.1,3.2,2.9,3.3
	C210.4,71.1,211.6,70,211.8,68.1z"/>
<path class="st1" d="M16.7,130c3.1,2.4,6.3,2.1,9.9,1.2c19.6-4.9,39.5-9.1,59.6-11.4c8.9-1,18-1.2,27-1.7
	c25.6-1.3,50.8-4.7,75.1-13.2c20.7-7.2,31.3-22.1,33.3-43.7c0.7-7.8,1.2-15.4-0.1-23.1c-1.6-8.8-7-12.8-15.7-11.7
	c-17.8,2.1-35.6,2.5-53.5,0.8c-13.7-1.3-27.5-1.6-41.2-2.6c-15.7-1.2-31.5-1.7-47.2-1.8c-8.3,0-16.8-0.1-25.1,1.4
	c-14.2,2.5-23,11.4-28,24.4c-3.7,9.8-5.1,20-6.1,30.4c-0.3,3.5,0.2,7.2-1.4,10.5c0-5.3,0-10.5,0-15.8c0.2-0.4,0.7-0.8,0.7-1.2
	C5,58.9,8.5,46.1,14.1,33.8C18.8,23.8,26.4,17,37.5,14.5c1.4-0.3,3.1,0.4,4.2-1c8.3,0,16.6,0,24.8,0c3.4,1.5,7,1.1,10.5,1.4
	c13.6,1,27.1,2.5,40.7,4.2c16.1,2,32.3,3.8,48.6,4.1c14.3,0.3,28.6,0.2,42.9,0c8.7-0.1,13.8,7.3,14.7,14.7c0.3,2.5,0.1,5.3,2.2,7.3
	c0,1,0,2,0,3c-0.4,0.4-1.4-2.1-1.4,0.3c-0.2,7.8-1,15.6-2.1,23.3c-1.3,9-4.6,16.8-10.7,23.5c-9.7,10.8-22.5,16-36,19.8
	c-24.3,6.8-49.5,8.4-74.5,10.6c-17.6,1.5-35,4.3-52,9.1c-8.4,2.4-16.7,6.5-25.8,3l0.1-0.1c-0.3-0.6-0.8-0.7-1.4-0.6
	C20.9,134.3,17.3,133.3,16.7,130z"/>
<path class="st0" d="M23.5,137.8c9.1,3.5,17.4-0.6,25.8-3c17-4.9,34.4-7.6,52-9.1c25-2.2,50.1-3.8,74.5-10.6
	c13.5-3.8,26.3-9,36-19.8c6-6.7,9.4-14.6,10.7-23.5c1.1-7.8,1.9-15.5,2.1-23.3c0.1-2.4,1,0.1,1.4-0.3c0,5.8,0,11.5,0,17.3
	c-1.5,2.5-1.3,5.5-1.7,8.2c-3.1,18.9-14.6,30.7-31.5,38.1c-15,6.5-30.9,9.3-46.9,11.7c-19.1,2.8-38.4,3.4-57.5,6
	c-17.2,2.3-34.2,5.6-50.4,12c-3,0-6,0-9,0C27.3,139.8,24.5,140.1,23.5,137.8z"/>
<path class="st1" d="M211.8,68.1c-0.1,2-1.4,3.1-3.2,3c-1.8-0.1-3-1.3-2.9-3.3c0.1-2,1.3-3,3.1-3C210.8,64.9,211.7,66.1,211.8,68.1z
	"/>
<path class="st0" d="M23.5,137.6c-0.7,0.3-1.1,0-1.4-0.6C22.8,136.9,23.3,137,23.5,137.6z"/>
<path class="st0" d="M189.8,57.4c-0.4,5.3-3.2,8.7-7.6,10.9c-1.8,0.9-2.9,0.9-3-1.8c-0.1-4.3,0.9-8,4.4-10.8c0.9-0.7,1.7-1,1.8,0.3
	C185.5,60.6,188.1,57.1,189.8,57.4z"/>
<path class="st0" d="M128.2,64.4c0.1,5.3-1.5,9.4-4.3,13.1c-0.5,0.7-1.3,1.8-2.4,1.2c-1-0.5-1-1.7-0.9-2.7
	C121.3,71.3,122.9,67.1,128.2,64.4z"/>
<path class="st0" d="M79.1,82c0.1-3.9,1.9-6.8,4.7-9.1c0.5-0.4,1.2-1.1,2-0.6c0.8,0.4,0.7,1.3,0.6,2c-0.6,3.7-2.3,6.8-4.4,9.8
	c-0.6,0.8-1.4,1.3-2.2,0.8C78.4,84.2,79.7,82.8,79.1,82z"/>
<path class="st0" d="M194.3,62.7c0.1-0.7,0.3-1.5,0.4-2.4c0.2-3.3,2.1-2.7,4-1.6c2.2,1.2,0.8,2.8,0.3,4.2c-0.6,1.6-1.4,3.7-3.4,3.5
	C194.1,66.2,194.4,64.2,194.3,62.7z"/>
<path class="st0" d="M59.6,72c4.6-0.2,4.2,2.3,3.5,4.3C60.5,84,55.9,90.4,49,94.9c-3.2,2.1-6.5,3.8-10,4.9c-2.2,0.7-3.7,0.7-2.9-2.5
	c1.4-5.3,2.9-10.7,5.7-15.4C46,74.9,53.2,73.1,59.6,72z"/>
<path class="st0" d="M58.8,51.9c2-0.1,3,0.9,2.3,2.7c-2.7,7.3-7.1,13.1-14.4,16.5c-1,0.5-2.3,1-3.2,0.3c-1-0.8-0.1-2.1,0-3.1
	c0.8-7.3,4.9-12.1,11.3-15.2C56.1,52.4,57.4,51.9,58.8,51.9z"/>
</svg>
