<?xml version="1.0" encoding="utf-8"?>
<!-- Generator: Adobe Illustrator 21.0.0, SVG Export Plug-In . SVG Version: 6.00 Build 0)  -->
<svg version="1.1" id="Layer_1" xmlns="http://www.w3.org/2000/svg" xmlns:xlink="http://www.w3.org/1999/xlink" x="0px" y="0px"
	 viewBox="0 0 230 155" style="enable-background:new 0 0 230 155;" xml:space="preserve">
<style type="text/css">
	.st0{fill:#007B00;}
</style>
<path class="st0" d="M51.5,47.6c2.4,0.1,4.4-0.7,6-2.6c2.2-2.7,5.5-2.9,8-0.6c0.9,0.8,1.7,1,2.8,0.9c1-0.1,2.1-0.1,3.1-0.1
	c6.5,0.3,9.5,3,10.2,9.5c0.2,1.6,0,3.5,1.8,4.2c1.9,0.8,3.3-0.3,4.7-1.7c2.2-2.1,5.7-1.8,8.1,0.9c1.8,2,3.7,2.9,6.4,2.8
	c3.3-0.2,5.4,1.6,5.8,4.3c0.4,2.7-1,4.9-4.2,5.9c-4,1.2-7.9,1.4-11.8-0.9c-3.8-2.3-7.9-2.6-11.9-0.4c-5.1,2.7-10.2,2.8-15.1-0.6
	c-3-2.1-6.2-1.9-9.5-0.5c-3,1.2-5.9,2.6-9.3,2.6c-4.2,0-7.5-2.4-8.3-6c-1-4.3,0.7-8.2,4.5-10.1c1.1-0.5,1.6-1,1.9-2.2
	C45.8,48.7,47.2,47.6,51.5,47.6z"/>
<path class="st0" d="M149.6,57.2c0-6.3,0-12.1,0-17.9c0-1.6-0.4-2.7-1.6-3.7c-3.4-3-6.6-6-9.8-9.2c-1.1-1.1-1.7-1-2.7,0.1
	c-3,3.1-6,6.1-9.1,9.1c-0.8,0.8-1.2,1.5-1.2,2.7c0.1,5,0.1,9.9,0,14.9c0,1.7,0.6,2,2.2,2c5.1,0.1,5.1,0.1,5.1-5c0-1-0.1-1.9,0-2.9
	c0.2-1.5-0.9-4,0.6-4.5c2-0.7,4.5-0.3,6.8-0.1c1.1,0.1,0.7,1.2,0.7,1.9c0,2.8,0.1,5.5,0,8.3c-0.1,1.8,0.5,2.4,2.2,2.2
	c0.9-0.1,1.9,0,2.9,0c1,0,1.4,0.3,1.3,1.3c0,0.9-0.2,1.5-1.2,1.5c-0.8,0-1.5,0.1-2.3,0c-2.5-0.3-4.7-0.1-3.9,3.4
	c0.2,0.9-0.1,1.4-1.2,1.4c-1.3,0-1.3-0.6-1.4-1.6c-0.1-1.4,0.9-3.3-2-3.3c-2.2,0-3.1,0.6-2.8,2.9c0.2,1.9,0,3.8,0,5.7
	c0,1-0.2,1.6-1.4,1.6c-1.2,0-1.4-0.6-1.4-1.6c0-2.3-0.1-4.6,0-6.9c0.1-1.8-0.9-1.9-2.3-1.9c-1.4,0-2.1,0.3-2,1.9
	c0.1,1.8,0,3.6,0,5.4c0,1.2-0.3,1.7-1.6,1.7c-1.2,0-1.4-0.6-1.4-1.6c0-9,0-17.9,0-26.9c0-1.1,0.5-1.8,1.2-2.5
	c3.4-3.7,6.8-7.4,10.2-11.2c0.9-1,1.8-1.5,3.2-1.4c8,0.1,16,0.1,24,0c1.2,0,2.1,0.4,3,1.3c3.7,3.8,7.5,7.6,11.3,11.3
	c0.7,0.7,1.2,1.4,1.2,2.4c-0.1,4.1-0.1,8.2,0,12.3c0,1.2-0.2,1.7-1.6,1.5C166,51.2,157.8,52.6,149.6,57.2z"/>
<path class="st0" d="M183.8,56.3c6.3-0.1,6.2-0.2,4.9,5c-0.5,2.2-1.3,3.1-3.9,3.2c-16.5,0.6-32.3,3.9-46.6,12.6
	c-13.1,7.9-21.6,19.3-25.2,34.2c-0.6,2.4-4,4-6,2.7c-1-0.6-0.4-1.6-0.2-2.3c1.7-9.8,5.7-18.7,11.7-26.6
	c10.2-13.5,24.2-21.1,40.3-25.3C167.3,57.6,176,56.7,183.8,56.3z"/>
<path class="st0" d="M96.9,28.9c5.2,0.2,10.6,3.3,13.9,9.5c3.3,6.1,2.8,12.3-0.7,18.2c-0.9,1.6-2,2.2-3.9,2c-3-0.3-5.5-1.1-7.7-3.2
	c-3.8-3.5-6.8-3.5-10.9-0.2c-2.2,1.7-3.3,1.4-3.4-1.4c-0.3-4.6-1.5-8.6-5.8-11.1c-1.2-0.7-0.4-1.7-0.1-2.5
	C81,33.2,87.5,28.9,96.9,28.9z"/>
<path class="st0" d="M118.7,114.1c-3.5,0-3.6,0-2.5-3.3c5-15.3,15.3-26.1,29.6-33c12.1-5.8,24.9-7.8,38.2-7.9c1.4,0,2.1,0.1,1.5,1.9
	c-1.8,5.8-1.7,5.9-7.7,6.4c-11.6,0.9-23,3.1-33.5,8.5c-10.8,5.5-18.7,13.6-22.2,25.5C121.7,114.1,121.6,114.1,118.7,114.1z"/>
<path class="st0" d="M114.9,81.6c-1.1,2.2-2.2,4.2-3.2,6.3c-0.4,0.8-0.8,1.2-1.7,1c-1.8-0.3-3.5,0.3-4.8,1.5
	c-4.2,4-9.7,2.3-13.4-0.2c-4.7-3.1-7.7-3.2-12.3-0.1c-4.8,3.2-10.5,3.4-15.2-0.1c-3.6-2.7-7.2-2.7-10.9-0.8
	c-1.4,0.7-1.9,0.4-2.5-0.9c-2.5-5.3-2.4-5.4,3.1-7.5c4.6-1.7,8.8-1.7,12.7,1.9c2.9,2.6,6.4,2.9,9.8,0.9c6.6-4.1,12.8-3.8,19.1,0.7
	c3,2.2,6.2,1.3,9-0.6C107.7,81.6,111,81,114.9,81.6z"/>
<path class="st0" d="M61.1,70.4c1.9-0.2,4.2,0.7,6.4,1.8c4.2,2.1,8.2,2.2,12.6,0.2c4.3-2.1,8.7-2.1,13.1,0.5
	c4.2,2.5,8.6,2.1,12.8-0.1c3.6-1.8,7.3-1.8,11-0.4c1.5,0.6,2,1.2,1,2.6c-0.3,0.5-0.7,1-0.9,1.5c-0.7,2-1.6,2.7-3.8,1.6
	c-2.4-1.2-4.8-0.6-7,1c-4.6,3.4-9.3,3.5-14,0.3c-4.8-3.3-9.6-3.1-14.3,0c-3.5,2.3-7.2,2.6-10.7,0.2c-5.9-4.1-11.7-3.7-17.7-0.3
	c-0.7,0.4-1.9,2.2-2.5,0c-0.4-1.6-3.4-3.5-0.1-5.2C51.3,72.1,55.7,70.5,61.1,70.4z"/>
<path class="st0" d="M181.6,83.4c0.1,0.2,0.2,0.3,0.1,0.4c-0.8,2.4-1.1,5.3-2.7,7.1c-1.6,1.9-4.6,0.5-7,0.6
	c-10.9,0.4-21.3,2.7-30.4,9.1c-4.5,3.2-8,7.3-10.6,12.1c-0.6,1.2-5.1,2.2-6.1,1.3c-0.8-0.7-0.1-1.4,0.2-2c3.1-7.7,8.5-13.4,15.3-18
	c9.7-6.6,20.7-9.2,32.2-10.2C175.6,83.5,178.6,83.1,181.6,83.4z"/>
<path class="st0" d="M105.7,135.6c0-8.1,6.2-14.1,14.3-14.1c7.9,0,14.3,6.5,14.2,14.4c-0.1,7.9-6.6,14.3-14.5,14.2
	C111.7,149.9,105.7,143.7,105.7,135.6z M128.6,135.6c0-5.1-3.8-8.9-8.8-8.8c-5,0-8.9,4-8.8,8.9c0,5,4,8.8,9,8.8
	C125,144.5,128.7,140.8,128.6,135.6z"/>
<path class="st0" d="M108.6,94c-3,9.4-10.1,11.8-18.2,6.3C87,98,83.5,97.8,80,99.9c-5.3,3.2-10.6,4.1-15.7-0.5c-2-1.8-4.6-2-7-1.2
	c-2.1,0.7-2.6-0.1-3.3-1.7c-1.8-4.5-1.8-4.6,3-5.3c3.3-0.5,6.4-0.1,9.2,2.1c3.4,2.6,6.8,3.2,11,0.8c5.3-3.1,11-3.7,16.6,0.4
	c3.3,2.4,7.1,1.2,10.8,0.5C106,94.7,107.1,93.6,108.6,94L108.6,94z"/>
<path class="st0" d="M171.7,138.7c0,2.8,0,5.5,0,8.3c0,1.9-0.6,2.9-2.7,2.8c-2-0.1-2.6-1.1-2.7-2.9c0-2.2,1-5.1-0.5-6.3
	c-1.4-1.1-4.2-0.5-6.4-0.3c-2.2,0.1-2-1.3-1.9-2.6c0.1-1.2-0.8-3.1,1.8-2.9c1.5,0.1,3.1-0.1,4.6,0c2.2,0.3,2.5-0.7,2.4-2.6
	c-0.2-3.1-2-5.3-4.8-5.4c-2.9-0.1-4.9,2-5,5.4c0,4.8-0.1,9.5,0,14.3c0,1.9-0.5,3.3-2.6,3.3c-2.1,0.1-2.8-1.3-2.7-3.2
	c0-5.1-0.1-10.3,0-15.5c0.1-5.7,4.4-9.8,10.1-9.8c5.7,0,9.9,4,10,9.8C171.7,133.7,171.6,136.2,171.7,138.7
	C171.6,138.7,171.7,138.7,171.7,138.7z"/>
<path class="st0" d="M173.9,135.6c0-7.5,6.1-14,13.2-14.2c1.9-0.1,3.6,0.2,3.8,2.4c0.2,2.2-1.3,2.9-3.3,3c-3.9,0.3-6.7,2.4-7.8,6
	c-1,3.5-0.4,7,2.7,9.6c1.5,1.3,3.2,2,5.2,2c2,0.1,3.5,0.9,3.2,3.1c-0.2,2.2-2,2.5-3.9,2.4C179.5,149.3,173.9,143.2,173.9,135.6z"/>
<path class="st0" d="M40,135.4c0.2-7.3,6-13.6,12.9-13.9c1.9-0.1,3.9,0,4.1,2.4c0.2,2.4-1.6,2.8-3.6,3.1c-4.4,0.5-7.3,3.3-7.8,7.4
	c-0.6,4.2,1.4,7.9,5.1,9.6c1.1,0.5,2.2,0.7,3.3,0.7c1.9,0.1,3.2,1,3,3c-0.2,2-1.7,2.5-3.6,2.4C45.9,149.7,39.8,143.1,40,135.4z"/>
<path class="st0" d="M80.9,135.6c0,3.6,0,7.2,0,10.9c0,1.8-0.4,3.3-2.6,3.3c-2.3,0-2.7-1.5-2.8-3.4c-0.1-2.3,1.1-5.4-0.7-6.7
	c-1.5-1.1-4.4-0.4-6.7-0.2c-1.9,0.1-2.9-0.1-2.9-2.5c0-2.3,0.7-2.9,2.9-2.8c2.3,0.1,5.4,1.1,6.9-0.4c1.5-1.4,0.3-4.5,0.5-6.9
	c0.1-0.9,0-1.7,0-2.6c0.1-1.8,1-2.8,2.8-2.8c1.8,0,2.5,1.2,2.6,2.8c0,0.2,0,0.4,0,0.6C80.9,128.3,80.9,132,80.9,135.6z"/>
<path class="st0" d="M141.6,132.9c0,2.5,0,5,0,7.4c0,3,0.9,4,3.8,4.1c2,0.1,3.8,0.3,3.8,2.8c0,2.5-1.9,2.7-3.9,2.7
	c-5.4,0-9-3.4-9.1-8.8c-0.1-5.4,0-10.9,0-16.3c0-1.8,0.5-3.3,2.6-3.3c2.3,0,2.8,1.5,2.8,3.4C141.6,127.6,141.6,130.3,141.6,132.9z"
	/>
<path class="st0" d="M90.4,133c0-2.8,0-5.5,0-8.3c0-1.8,0.7-3.2,2.8-3.2c2.1,0,2.8,1.4,2.8,3.2c0,5.2,0,10.5,0,15.7
	c0,3.1,0.7,3.9,3.8,4c2,0.1,3.7,0.4,3.6,2.9c-0.1,2.4-1.9,2.5-3.7,2.5c-5.7,0-9.3-3.5-9.4-9.2C90.3,138.1,90.4,135.6,90.4,133z"/>
<path class="st0" d="M65.2,40.1c-2.2,0-4.4,0-6.6,0c-2,0-2.7-1-2.4-2.9c0-0.2,0.1-0.4,0.2-0.5c1.9-8.5,5.2-9.7,11.7-4.1
	c1.7,1.5,3.3,3.2,4.8,4.9c0.6,0.6,1.6,1.4,1,2.4c-0.5,0.8-1.5,0.6-2.4,0.6c-2.1,0-4.2,0-6.3,0C65.2,40.4,65.2,40.3,65.2,40.1z"/>
<path class="st0" d="M97.4,4.3c8,0.9,9.8,0.3,5.8,8.8c-1,2.1-1.8,4.2-2.7,6.3c-0.4,0.9-0.9,1.8-2.1,1.6c-1-0.1-1.7-0.9-2-1.8
	c-1.1-3.7-2.2-7.4-3.1-11.2C92.7,5.5,94.3,4.3,97.4,4.3z"/>
<path class="st0" d="M82.1,23.3c-0.1,1.4,0.5,3-1.2,3.6c-1.5,0.6-2.5-0.5-3.4-1.5c-2.2-2.5-4.5-4.9-6.7-7.4c-1.7-2-1.4-3.5,0.9-4.8
	c0.2-0.1,0.3-0.2,0.5-0.3c9-4.3,9.3-3,9.4,5.1C81.6,19.8,82,21.6,82.1,23.3z"/>
<path class="st0" d="M88.2,135.8c0,3.6,0,7.2,0,10.9c0,1.9-0.6,3.3-2.7,3.2c-1.9,0-2.6-1.2-2.6-3c0-7.4,0-14.9,0-22.3
	c0-1.7,0.6-3,2.6-3.1c2.2-0.1,2.7,1.3,2.7,3.2C88.1,128.4,88.2,132.1,88.2,135.8z"/>
<path class="st0" d="M113.3,25.5c1.2-3.6,2.4-7.6,3.9-11.6c0.6-1.5,2.2-1.8,3.6-0.9c2,1.2,4,2.6,5.7,4.3c1.3,1.4,1.5,2.9-0.2,4.1
	c-3.2,2.3-6.4,4.5-9.7,6.6C114.7,29.2,113.2,28.3,113.3,25.5z"/>
<path class="st0" d="M64.5,135.7c0,3.6,0,7.2,0,10.9c0,1.9-0.7,3.2-2.7,3.3c-2.1,0-2.7-1.4-2.7-3.2c0-7.3,0-14.7,0-22
	c0-1.9,0.7-3.2,2.8-3.1c1.9,0.1,2.6,1.3,2.5,3.1C64.5,128.3,64.5,132,64.5,135.7z"/>
<path class="st0" d="M108.6,94.1c-0.2-0.1-0.2-0.3,0-0.4c0.1,0,0.2,0,0.3,0C108.8,93.8,108.7,93.9,108.6,94.1
	C108.6,94,108.6,94.1,108.6,94.1z"/>
</svg>
