<?xml version="1.0" encoding="utf-8"?>
<!-- Generator: Adobe Illustrator 21.0.0, SVG Export Plug-In . SVG Version: 6.00 Build 0)  -->
<svg version="1.1" id="Layer_1" xmlns="http://www.w3.org/2000/svg" xmlns:xlink="http://www.w3.org/1999/xlink" x="0px" y="0px"
	 viewBox="0 0 230 155" style="enable-background:new 0 0 230 155;" xml:space="preserve">
<style type="text/css">
	.st0{fill:#007B00;}
</style>
<path class="st0" d="M23.9,93.5c0.6,0.5,0.4,0.8-0.2,1c-2.9,0.9-5.4,2.7-8.5,4c1.1-2.2-0.3-2.9-1.9-3.8c-8.4-4.9-12.1-15-9.1-24.1
	c3.1-9.2,12.6-15.2,22.2-14c0.5,0.1,1.1,0.2,1.7,0.4c-1.1,1.5-3.6,1.2-4,3.1c-0.1,0.7,0.3,2,1.4,2.5c-0.1,0.2-0.1,0.3,0,0.5
	c0.1,1.1-0.6,1.2-1.5,1.3c-1.1,0-2.2,0.1-3.3,0.5c-5.2,1.5-8.5,4.9-9.5,10.3C10.5,80,12.9,85,17.2,87.8c1.2,0.8,2.1,1,2.6-0.7
	c0.1-0.4,0.3-0.8,0.8-0.8c1,1.4,1,3.3,2.2,4.6C23.1,91.8,23.5,92.7,23.9,93.5z"/>
<path class="st0" d="M23.9,93.5c-0.4-0.9-0.7-1.7-1.1-2.6c0-0.9,0.5-1.1,1.3-1c1.2,0.2,2.4-0.2,3.5-0.5c5-1.3,8.4-4.5,9.6-9.5
	c1.3-5.1-0.5-9.4-4.4-12.8c-2.4-2.1-2.7-2-4.5,0.6c-1.3-1.4-1-3.6-2.6-4.7c-0.1-0.2-0.1-0.3,0-0.5c-1.1-2.4,0.2-3.4,2.2-4.2
	c1.8-0.7,3.5-1.7,5.6-2.6c-1.3,2.2,0.2,2.7,1.5,3.4c8.2,4.5,12.1,13.7,9.9,23.1c-2,8.5-10.2,15-19.2,15.3c-1.6,0-3.3,0-4.9,0
	c0-0.2-0.1-0.4-0.1-0.6c1.1-0.7,2.2-1.3,3.3-2.1C24.5,94.4,24.9,93.9,23.9,93.5z"/>
<path class="st0" d="M186.2,78.3c3.2,3.6,6.1,6.9,9.1,10.3c-0.4,0.8-1.3,0.6-1.9,0.7c-2.4,0.5-4.6,0.6-6.3-1.9
	c-1.7-2.5-3.9-4.6-5.9-6.9c-0.5-0.6-1-1.1-1.9-1.3c-2.7-0.4-3-0.3-3,2.5c0,2-0.1,4,0,6c0.1,1.6-0.5,1.8-1.9,1.8
	c-4.4,0-4.4,0.1-4.4-4.4c0-6.2,0-12.4,0-18.7c0-1.6,0.5-2,2-2c3.9,0,7.8-0.6,11.7,0.1c1,0.2,2.1,0.3,3.1,0.6c3.5,1,5.4,3.2,5.5,6.1
	c0.1,3.2-1.9,5.1-4.6,6.4C187.3,77.8,186.9,78,186.2,78.3z M176.3,71.5c0,0.8,0,1.6,0,2.4c-0.1,0.9,0.3,1.4,1.2,1.4
	c2.2,0.1,4.5,0,6.6-0.7c1.5-0.5,2-1.7,2-3.2c-0.1-1.4-0.9-2.1-2.1-2.5c-1.3-0.5-2.6-0.5-4-0.6C176.3,68.2,176.3,68.1,176.3,71.5z"/>
<path class="st0" d="M92.6,64c1.8,0.1,3.3,0.1,4.8,0.4c6.7,1.4,10.5,5.9,10.3,12.6c-0.2,6.7-4.6,11.5-11.3,12.4
	c-3.9,0.6-7.8,0.6-11.5-1c-4.3-1.9-6.5-6.2-6.6-10.9c-0.1-4,0.9-7.2,3.7-9.8C84.7,65.2,88.5,64,92.6,64z M84.4,76.9
	c0,5.1,3.4,9.5,7.2,9.5c5.9,0,9.8-3.9,9.9-9.6c0-5.6-3.1-8.8-8.7-8.8C87.5,68,84.4,71.3,84.4,76.9z"/>
<path class="st0" d="M165.2,81.7c0,0.2,0,0.5,0,0.7c0,5.4,0,5.5-5.3,6.7c-4.9,1.1-9.8,1.4-14.6-0.5c-5-1.9-7.9-5.5-8.1-11
	c-0.2-5.4,2.3-9.2,7.1-11.5c5.7-2.7,11.7-3,17.6-0.6c0.6,0.2,2.1,0.4,1.3,1.6c-0.7,1-0.8,3.3-3.1,2.3c-3.1-1.2-6.2-2-9.6-1.1
	c-4.3,1.1-7.1,4.4-7.1,8.7c0,4.1,2.6,7,6.8,8.4c2.6,0.9,4.8,0.4,7.2-0.2c2.8-0.7,1.6-2.9,1.7-4.5c0.1-1.8-1.5-1.1-2.3-1
	c-2.2,0.2-2.6-0.8-2.4-2.6c0.1-0.9,0.4-1.2,1.3-1.2c2.7,0,5.4,0,8.1,0c1,0,1.4,0.4,1.4,1.4C165.2,78.8,165.2,80.2,165.2,81.7z"/>
<path class="st0" d="M226.8,89.4c-6.5,0.5-6.5,0.5-9.1-5.1c-1.8-4-3.7-7.9-5.7-12.3c-1.9,4.2-3.7,8-5.4,11.7
	c-0.2,0.4-0.3,0.7-0.5,1.1c-2.4,5.2-2.4,5.2-8.8,4.5c2-3.7,3.9-7.3,5.8-11c2.3-4.3,4.5-8.6,6.8-12.9c1-1.8,3-2,3.9-0.3
	C218.1,73.1,222.4,81.1,226.8,89.4z"/>
<path class="st0" d="M137,88.7c-0.9,0.3-1.7,0.6-2.5,0.7c-2.9,0.6-3.7,0.1-4.9-2.6c-2.2-4.8-4.5-9.6-7-14.9
	c-1.4,2.9-2.6,5.4-3.7,7.9c-1.1,2.4-2.3,4.7-3.2,7.2c-0.7,2-1.8,2.6-3.9,2.5c-4-0.2-4-0.1-2.1-3.6c3.6-6.8,7.2-13.5,10.8-20.3
	c0.5-1,1-1.6,2.3-1.6c1.3,0,1.6,0.9,2,1.7C128.8,73.4,132.9,81,137,88.7z"/>
<path class="st0" d="M66.4,64.1c2-0.2,4.3,0.2,6.4,0.9c0.8,0.2,2.6,0.1,1.8,1.6c-0.6,1-0.7,3.5-3.2,2.4c-2.6-1.1-5.3-1.2-8-0.5
	c-3.9,1-6.5,4.2-6.6,8.4c-0.2,4.4,1.8,7.2,5.9,8.8c3.4,1.3,6.5,0.4,9.3-1.3c2.5-1.4,2.6,1,3.4,1.9c1.3,1.4-0.5,1.7-1.3,2
	c-5.7,2.3-11.5,2.5-17.2-0.1c-4.1-1.8-6.2-5.9-6.3-9.9c-0.1-4,0.7-7.4,3.7-10.1C57.6,65.1,61.6,63.9,66.4,64.1z"/>
<path class="st0" d="M126.5,85.3c0,2.4-1.6,4.1-3.9,4.2c-2.2,0-4.2-1.8-4.2-4c0-2.2,1.9-4,4.2-4C124.9,81.4,126.5,83,126.5,85.3z"/>
<path class="st0" d="M212.3,81.6c1.9-0.1,3.6,1.5,3.7,3.5c0.2,2.3-1.5,4.2-3.8,4.3c-2.2,0.1-4.2-1.6-4.4-3.8
	C207.7,83.4,209.5,81.8,212.3,81.6z"/>
<path class="st0" d="M24.3,68.3c4.9,0,9,3.9,9,8.7c0,4.6-4.1,8.6-8.9,8.6c-4.8,0-8.7-3.8-8.8-8.6C15.6,72.3,19.5,68.4,24.3,68.3z"/>
</svg>
