<?xml version="1.0" encoding="utf-8"?>
<!-- Generator: Adobe Illustrator 21.0.0, SVG Export Plug-In . SVG Version: 6.00 Build 0)  -->
<svg version="1.1" id="Layer_1" xmlns="http://www.w3.org/2000/svg" xmlns:xlink="http://www.w3.org/1999/xlink" x="0px" y="0px"
	 viewBox="0 0 230 155" style="enable-background:new 0 0 230 155;" xml:space="preserve">
<style type="text/css">
	.st0{fill:#007B00;}
</style>
<path class="st0" d="M116.5,68.3c-1.7,4.8-3.3,9.3-4.9,13.8c3.6,0,7,0,10.7,0c-3.1-8.3-6.1-16.4-9.4-25.1c3.4,0,6.4,0,9.5,0
	c1.4,0,1.7,1,2,2c4.9,12.4,9.8,24.7,14.7,37c0.8,1.9,0.1,2.2-1.6,2.1c-0.8-0.1-1.6,0-2.4,0c-6.7,0-6.8,0-9.2-6.1
	c-0.6-1.6-1.5-2.3-3.3-2.2c-3.7,0.2-7.4,0.2-11.1,0c-2.3-0.1-3.2,0.8-3.9,2.9c-1.9,5.5-2,5.5-7.8,5.5c-9.6,0-19.3-0.1-28.9,0
	c-2.3,0-3-0.6-3-2.9c0.1-11.8,0.1-23.7,0-35.5c0-2,0.3-2.8,2.6-2.9c8.9-0.1,8.9-0.2,8.9,8.7c0,7.3,0.1,14.6,0,21.9
	c0,1.9,0.5,2.6,2.5,2.6c4.4-0.1,8.8-0.1,13.2,0c1.8,0.1,2.6-0.7,3.2-2.3c2.1-5.6,4.5-11.2,6.6-16.8c0.8-2.1,1.7-3,4-2.8
	C111.3,68.5,113.8,68.3,116.5,68.3z"/>
<path class="st0" d="M227.5,77.7c0,13.5-9.2,21.8-23.5,21.3c-16.3-0.5-25.6-13.2-20.8-28.8c2-6.6,6.2-10.9,13.5-12.6
	c4.1-0.9,7.9-1.6,12.1-1.2C220.8,57.5,228.1,66.5,227.5,77.7z M215.7,77.4c-0.1-0.9-0.1-2.4-0.3-3.9c-0.7-5-3.9-8.5-8.4-9.4
	c-4.5-0.9-8.7,0.8-10.9,4.3c-3.7,5.9-2.9,15.4,1.9,20.3c1.8,1.8,4.2,3.1,7,2.5C212.7,89.6,215.5,86.1,215.7,77.4z"/>
<path class="st0" d="M2.5,84.1c0-3.7,0.1-7.4,0-11.1c0-1.7,0.3-2.4,2.2-2.5c9.2-0.3,9.2-0.4,9.2,8.7c0,2.4,0.3,4.9-0.1,7.3
	c-0.5,3.6,1.2,4.5,4.3,3.9c2.2-0.4,4.4,0.1,6.6-0.9c6.4-3,8.7-7.8,7.3-15.4c-1-5.3-5.2-8.9-11.5-9.2c-5.1-0.2-10.2-0.3-15.3-0.1
	c-3.7,0.2-2.6-2.3-2.7-4.2c-0.1-1.9-0.5-3.9,2.8-3.7c6.1,0.3,12.3-0.2,18.5,0.4c6.8,0.6,13,2.6,17.1,9C48.2,78,43.1,92.7,30,96.6
	c-8.5,2.5-17.3,1.2-26,1.5c-1.6,0-1.5-1.2-1.5-2.2C2.5,92,2.5,88,2.5,84.1z"/>
<path class="st0" d="M177.5,64.6c-0.4,1.4,0.9,3.7-0.6,4.6c-1.4,0.8-2.7-1.4-4-2.1c-2.1-1.2-4.3-2.4-6.7-2.8
	c-5.7-1-10.7,1.2-13.2,5.6c-2.7,4.8-2.2,12.8,1.1,16.8c3.1,3.8,8.9,5.2,14.3,3.4c2.4-0.8,4.4-2,6.4-3.4c0.6-0.4,1.2-1.3,2.1-0.9
	c1.1,0.4,0.6,1.4,0.6,2.1c0.4,8,0.3,8-7.6,10.1c-5.8,1.5-11.5,1.3-17.2-0.5c-9.4-2.9-14-11.2-13.2-23c0.7-9.2,7.5-16.4,17-18
	c5.4-0.9,10.6-0.5,15.8,1C177.5,59,177.5,59.1,177.5,64.6z"/>
<path class="st0" d="M60.7,82.5c0,4.3-0.1,8.6,0,12.9c0.1,2.3-0.8,2.9-3,2.9c-8.1,0.1-8.1,0.2-8.1-7.9c0-6.8,0.1-13.7,0-20.5
	c0-2.3,0.7-2.9,3-2.9c8.1-0.1,8.1-0.1,8.1,7.9C60.7,77.4,60.7,80,60.7,82.5z"/>
<path class="st0" d="M55.3,62.8c-0.7,0-1.2,0-1.7,0c-3.6,0-5.7-3.7-4-6.9c0.4-0.8,1.1-0.8,1.8-0.8c1.7,0,3.5,0.2,5.2-0.1
	c3.4-0.5,4.2,0.8,4.3,4.1C61.1,64.6,57.3,62.2,55.3,62.8z"/>
</svg>
