<?xml version="1.0" encoding="utf-8"?>
<!-- Generator: Adobe Illustrator 21.0.0, SVG Export Plug-In . SVG Version: 6.00 Build 0)  -->
<svg version="1.1" id="Layer_1" xmlns="http://www.w3.org/2000/svg" xmlns:xlink="http://www.w3.org/1999/xlink" x="0px" y="0px"
	 viewBox="0 0 230 155" style="enable-background:new 0 0 230 155;" xml:space="preserve">
<style type="text/css">
	.st0{fill:#007B00;}
	.st1{fill:#F3F2EF;}
</style>
<path class="st0" d="M129.7,80.6c-6.4,1.6-12.7,0.5-19-0.4c-6.2-0.9-11.9-3.2-17.8-5.4c0.6,7.6,8.7,15.4,22.8,22.1
	c-2,1-3.6,0.6-5.2,0.2c-12.9-3.6-21.9-11.5-26.2-24.3c-0.9-2.6-1.9-4.7-4-6.5c-2.8-2.5-5-5.5-6.4-9.1c-2.4-6.3-0.2-12.1,6.2-15.4
	c-2.9,6.3-2.3,11.9,2,17.9c1-5.6,2-10.4,4.4-14.7c0.5-1,0.4-1.8-0.4-2.6c-0.6-0.7-1.2-1.5-1.8-2.3c-7.3-9.6-5.1-18,6-23.1
	c0.3,1.4-0.8,1.9-1.4,2.7c-3.7,5-3.5,12,0.3,17c1.5,2,2.4,1,3.5-0.1c3.4-3.5,7.4-6.2,11.9-8.1c1-0.4,2-1.1,3.6-0.2
	c-3.7,3-7.6,5.4-10.5,9.1c-4.1,5.2-4.2,5.3,1.4,8.9c9.3,6.1,19.7,8.5,30.6,8.8c1.2,0,2.5,0,3.7,0c0.2,0,0.4,0.2,1.2,0.7
	c-8.3,1.8-16,1.5-23.7-0.2c-6-1.3-11.7-3.4-16.8-6.7c-2-1.3-2.8-1-3.4,1.2c-1.3,4.7-1.8,9.5-1.6,14.3c0.1,2.5,1.6,3.6,3.5,4.7
	c9.9,5.8,20.7,9,32.1,10C126.6,79.2,128.2,79.1,129.7,80.6z"/>
<path class="st1" d="M95.7,54c11.2,5.3,22.2,7.5,33.9,6.1c6-0.7,11.6-2.3,16.5-6c4-3,6.5-6.7,4.9-12.1c6.5,3.6,8.1,14.5,3.3,21.3
	c-2.6,3.7-6.2,6.3-10.4,8c-12.3,4.9-24.8,5.3-36.9-0.6C100.5,67.5,96,62.5,95.7,54z"/>
<path class="st0" d="M136.2,15.8C129,18.7,125,25,120.8,31.1c3-18.4,12.4-26.9,30.5-28.3c4.1-0.3,4.5,1.2,4.1,4.6
	c-1.4,10.5-6.9,17.5-16.8,21.1c-5.5,2-11.2,3.6-16.6,5.9c4.6-6.4,9.3-12.5,14.9-17.9c0.3-0.4,0.7-0.7,1-1.1
	C137.2,14.8,136.7,15.3,136.2,15.8z"/>
<path class="st1" d="M140.4,32.1c1.8,0.1,3,1.3,4.2,2.3c6.3,5.3,5.7,10.8-1.7,14c-11,4.8-22,4.5-32.6-1.6c-4.5-2.6-5.2-5.4-3.4-9.8
	c2.9,3.8,7,4.7,11.3,4.8c5.5,0.2,11.1,0,16.4-1.7C139.5,38.5,140.6,36.9,140.4,32.1z"/>
<path class="st1" d="M157.6,61c2.5,11.2-6.3,25-18.4,30.2c-11.9,5.1-26.5,2.3-34.8-6.9c1.9-0.5,3.6,0,5.3,0.3
	c13.8,2.8,26.9,1.7,38.3-7.8C152.5,72.9,155.5,67.9,157.6,61z"/>
<path class="st0" d="M152.8,115.7c0.6,0,1.1,0,1.7,0c6,0.3,6.2,0.5,5.2,6.4c-1,6.1-2.8,12-2,18.4c0.4,3.1-3.2,1.8-4.5,0.8
	c-1.3-1-2-1.1-3.4-0.3c-3.6,2-7.5,2.2-11,0c-3.5-2.2-3.5-6-3.2-9.6C136.4,121.5,143,115.5,152.8,115.7z M153.3,123.1
	c0.3-2.7-1.6-2.5-3.2-2.4c-4.3,0.2-7.7,4.6-8.4,10.9c-0.2,2.3-0.3,4.6,2.4,5.5c2.6,0.9,4.6-0.3,5.9-2.6
	C152.1,131,152.7,127.1,153.3,123.1z"/>
<path class="st0" d="M60.5,105.6c1.2,0.4,3.7-0.7,3.8,2.2c0,2.4-1.2,3.4-3.7,2.9c-1.6-0.3-3,0.4-3.8,1.9c-1,1.8-1.7,3.5,1.5,3.4
	c1.7,0,3,0,2.8,2.4c-0.2,2.2-1.2,3-3.2,2.7c-3.1-0.5-3.7,1.4-4,3.8c-0.9,5.9-1.9,11.7-2.9,17.5c-0.7,4.6-2.9,8-7.5,9.5
	c-1.1,0.3-2.5,0.8-3.1-0.9c-0.5-1.4-1.2-2.7,0.9-3.7c2.2-1,2.9-3.1,3.3-5.4c0.8-5,1.8-10,2.6-15.1c0.4-2.3,2.4-5-1.8-6.3
	c-0.9-0.3-0.9-4,1.6-4.3c2.2-0.3,2.5-1.7,3.1-3.2C51.8,108.3,54.9,105.4,60.5,105.6z"/>
<path class="st0" d="M91,116c2.4-0.4,3.5,0.3,2.8,3.2c-1,4.3-1.6,8.7-2.4,13c-0.3,1.7-0.7,3.5,1,4.6c1.7,1.1,3.7,0.8,5.5-0.3
	c2.2-1.2,3.3-3.2,3.8-5.6c0.7-4.1,1.7-8.1,2.2-12.2c0.4-3.3,2.6-2.7,4.5-2.6c3.1,0.1,1.6,2.3,1.4,3.6c-1,6.3-2.5,12.5-3.3,18.7
	c-0.5,4.1-3.1,4.6-5.7,3.5c-1.8-0.8-2.9-0.4-4.4,0c-8.4,2.4-12.7-1.3-11.5-9.9c0.7-4.5,1.7-8.9,2.4-13.4C87.9,116.4,89,115.8,91,116
	z"/>
<path class="st0" d="M189.2,124.2c-0.9,4.8-1.9,10.3-2.9,15.9c-0.6,3.4-3.2,1.9-5,1.9c-2.5,0.1-1.3-1.8-1.1-3
	c0.7-4.2,1.4-8.4,2.2-12.6c0.5-2.5,0.7-4.8-2.4-5.6c-2.8-0.8-6.5,1.4-7,4.2c-0.9,4.6-1.8,9.2-2.5,13.8c-0.4,2.4-1.3,3.6-4,3.4
	c-2.3-0.1-2.8-0.9-2.4-3c0.9-4.5,1.6-9,2.6-13.4c0.5-2.2,0.7-4.3,0.6-6.6c-0.1-1.2-0.7-2.6,1.2-2.9c1.5-0.2,3.4-1.7,4.4,0.3
	c0.9,2,1.7,0.7,2.4,0.3c2.2-1.1,4.4-1.5,6.8-1.3C186.9,115.9,189.4,118.7,189.2,124.2z"/>
<path class="st0" d="M125.2,115.5c1.2,0.2,2.7,0.4,4.1,0.9c1.5,0.5,4.1,0.3,2.7,3.2c-0.9,1.9-1.6,4.4-4.5,1.9
	c-1-0.8-2.5-1.2-3.9-0.7c-0.9,0.3-1.8,0.7-2.1,1.8c-0.2,1.1,0.2,1.9,1.1,2.5c1.4,0.8,2.9,1.6,4.3,2.4c5,2.9,5.4,9,0.7,12.6
	c-3.5,2.7-10.7,3.1-14.6,1c-1.9-1-1.5-2.2-0.5-3.3c0.9-0.9,0.6-3.9,3.3-2.2c1.7,1.1,3.4,1.9,5.4,1.6c1.5-0.2,2.6-0.8,3-2.4
	c0.3-1.5-0.6-2.3-1.7-3c-0.9-0.6-1.9-1.1-2.9-1.6c-3.2-1.6-5.4-3.8-4.8-7.8c0.6-3.8,3.4-5.5,6.7-6.5
	C122.6,115.7,123.7,115.7,125.2,115.5z"/>
<path class="st0" d="M63.2,140.1c1.4-7.4,2.7-14.5,4-21.7c0.3-1.8,1.3-2.9,3-2.3c3.4,1.2,6.7,0.2,10-0.3c1.1-0.2,3-0.6,3.3,0.8
	c0.3,1.3-0.4,2.9-1,4.3c-0.7,1.6-1.8,0.4-2.8,0.2c-3.6-0.7-6.8,1.5-7.9,6c-1,4.3-1.8,8.6-2.5,12.9c-0.6,3.4-3.1,1.9-4.9,2.1
	C62.8,142.3,62.8,141.1,63.2,140.1z"/>
<path class="st0" d="M136.2,15.8c0.5-0.4,1-1,1.7-0.3c-0.3,0.4-0.7,0.7-1,1.1C136.7,16.3,136.5,16,136.2,15.8z"/>
</svg>
