<?xml version="1.0" encoding="utf-8"?>
<!-- Generator: Adobe Illustrator 21.0.0, SVG Export Plug-In . SVG Version: 6.00 Build 0)  -->
<svg version="1.1" id="Layer_1" xmlns="http://www.w3.org/2000/svg" xmlns:xlink="http://www.w3.org/1999/xlink" x="0px" y="0px"
	 viewBox="0 0 230 155" style="enable-background:new 0 0 230 155;" xml:space="preserve">
<style type="text/css">
	.st0{fill:#007B00;}
</style>
<path class="st0" d="M229.5,72.1c0,3.8,0,7.6,0,11.4c-0.7,0.4-0.4,1.2-0.5,1.8c-1.8,11.4-6.8,21.3-14.3,30
	c-12.1,14-27.5,22.9-44.7,29c-20.9,7.5-42.4,10.1-64.5,8.9c-17.6-0.9-34.7-4.4-51-11.1c-14.4-5.9-27.4-13.9-37.9-25.5
	C9.7,109,4.6,100.5,2.2,90.5C1.5,88,1,85.4,0.5,82.8c0-3.7,0-7.3,0-11c0.4-0.2,0.3-0.6,0.4-0.9c1.5-10.7,5.8-20.2,12.5-28.7
	c6.7-8.5,15-15.2,24.2-20.9c8.4-5.1,17.3-9,26.6-12c11.8-3.9,24-6.2,36.4-7.2c0.7-0.1,1.7,0.3,2.2-0.6c7.5,0,14.9,0,22.4,0
	c0.2,0.4,0.6,0.3,0.9,0.3c2.6,0.2,5.2,0.4,7.8,0.7c15.7,1.7,30.8,5.4,45.2,11.8c13.7,6.1,26,14.2,35.8,25.7
	c6.2,7.3,10.8,15.5,13.1,24.8C228.6,67.2,229,69.7,229.5,72.1z M114.4,8.3c-7.4,0.1-15.5,0.6-23.5,1.7C74,12.6,58,17.4,43.1,26
	C33,31.8,24,38.9,17.2,48.5C3.9,67.2,4,87.9,17.4,106.7c7.8,10.9,18.3,18.5,30,24.6c17.6,9.1,36.5,13.6,56.1,14.9
	c20.4,1.4,40.4-0.6,59.9-7c18.4-6,34.9-14.9,47.4-30.1c7.4-9,11.8-19.3,11.9-31c0.2-13-4.8-24.1-13.1-33.8
	c-10.2-12-23.3-19.9-37.8-25.6C153.6,11.4,134.6,8.4,114.4,8.3z"/>
<path class="st0" d="M66.6,71.3c-0.1,7.5-2,14.2-7.5,19.6c-5.4,5.2-12,6.7-19.3,6c-12-1.2-19.7-10.8-20.4-23.4
	c-0.5-7.7,1.1-14.9,6.4-20.8c5.7-6.4,13.1-8.1,21.3-7c9.8,1.3,16.6,8.7,18.8,18.2C66.4,66.3,66.7,68.8,66.6,71.3z M25.9,71.5
	c0,3.5,0.5,7.2,2.2,10.7c2.9,6.1,7.8,9.3,14.6,9.4c6.8,0,11.8-3,14.8-9.1c3.1-6.4,3.2-13.1,1.1-19.8c-2-6.1-5.9-10.4-12.5-11.4
	C39.4,50.2,33.5,52,29.5,58C26.8,62,25.9,66.5,25.9,71.5z"/>
<path class="st0" d="M90.7,64.2c5.3-6.9,15.7-6.3,18.3-0.1c2.8-3.8,6.6-5.2,11.1-4.8c5.6,0.5,8.3,3.4,8.3,9c0,6.7,0,13.5,0,20.2
	c0,1.3-0.3,1.7-1.6,1.7c-3.4-0.1-3.4,0-3.4-3.3c0-5.5,0-11,0-16.5c0-1.2,0-2.5-0.5-3.7c-0.6-1.5-1.7-2.5-3.3-2.9
	c-5.3-1.1-10,1.8-9.9,7.7c0.1,5.7,0,11.4,0,17c0,1.2-0.4,1.6-1.6,1.6c-3.5,0-3.5,0.1-3.5-3.4c0-5.4,0-10.8,0-16.1
	c0-0.5,0-1.1-0.1-1.6c-0.5-4.8-4.5-7-8.9-4.8C92.6,65.9,91,68.5,91,72c0,5.5,0,11,0.1,16.5c0,1.4-0.4,1.8-1.8,1.8
	c-3.3-0.1-3.3,0-3.3-3.2c0-8.5,0-16.9,0-25.4c0-1.4,0.4-1.8,1.8-1.8c2.9,0.1,2.9,0,2.9,2.9C90.7,63.1,90.7,63.5,90.7,64.2z"/>
<path class="st0" d="M66,131.1c-1.9-3.3-2.2-3.5-8.9-4.3c-0.1-0.5,0.3-0.7,0.6-1c7.7-5.5,15.6-10.6,24.4-14.3
	c6.2-2.6,12.6-3.4,19.2-3.8c8.1-0.5,16.3-0.8,24.5-1c8.4-0.2,16.2-2.8,23.9-6c4.9-2,9.6-4.2,14.3-6.5c0.3-0.1,0.6-0.4,1.1-0.2
	c-0.9,0.9-1.7,1.9-2.6,2.7c-11.4,9.5-24.5,14.3-39.3,14.6c-8.1,0.2-16.2,0.3-24.2,1.7c-11.9,1.9-21.9,7.2-30.3,15.7
	c-0.7,0.8-1.5,1.5-2.3,2.2C66.3,130.9,66.1,131,66,131.1z"/>
<path class="st0" d="M183.4,76.6c-3.3,0-6.6,0-9.9,0c-0.9,0-1.4,0.1-1.4,1.3c0.4,6.6,7.3,10.7,13.3,7.9c1.7-0.8,3-2,3.4-3.8
	c0.3-1.2,0.9-1.3,1.9-1.3c3.6-0.1,4.2,0.7,2.4,3.8c-1.4,2.5-3.4,4.5-6.3,5.5c-6.4,2.2-14.2,0.6-17.6-5.2c-4-6.9-3.5-17.2,3.1-22.5
	c5.9-4.7,17.7-4.7,21.3,6.6c0.7,2.1,0.9,4.3,1.1,6.4c0.1,1.1-0.4,1.4-1.4,1.4C190,76.6,186.7,76.6,183.4,76.6z M180.7,72.2
	C180.7,72.2,180.7,72.2,180.7,72.2c2,0,3.9,0,5.9,0c3.3,0,3.4-0.1,2.1-3.2c-1.4-3.6-5.2-5.8-9.1-5.3c-3.8,0.5-6.9,3.5-7.3,7.1
	c-0.1,1,0.1,1.3,1.1,1.3C175.8,72.1,178.3,72.2,180.7,72.2z"/>
<path class="st0" d="M156.2,85.6c-3.7,5.2-8.5,6-13.9,4.7c-3.6-0.9-5.8-3.6-6.2-7.3c-0.6-5.7-0.1-11.3-0.3-17c0-1.6,0-3.2,0-4.8
	c0-0.9,0.4-1.2,1.3-1.3c3.8-0.2,3.8-0.3,3.8,3.5c0,5.3,0,10.6,0,16c0,3.9,1.1,5.9,3.9,6.7c3.3,1,7.4-0.2,9.2-2.8
	c1.4-1.9,1.9-4,1.9-6.3c0-5.1,0.1-10.3,0-15.4c0-1.3,0.3-1.7,1.7-1.7c3.4,0.1,3.4,0,3.4,3.3c0,8.4,0,16.8,0,25.2
	c0,1.5-0.4,1.9-1.9,1.8c-2.8-0.1-2.8,0-2.9-2.7C156.3,87,156.2,86.6,156.2,85.6z"/>
<path class="st0" d="M78.3,69.3c0,6.4,0,12.8,0,19.1c0,1.3-0.3,1.9-1.7,1.8c-3.3-0.1-3.3,0-3.3-3.2c0-12.3,0-24.6,0-36.9
	c0-1.5,0.5-1.9,1.9-1.8c3.1,0.1,3.1,0,3.1,3.2C78.3,57.5,78.3,63.4,78.3,69.3z"/>
<path class="st0" d="M195.1,38.4c0.6-0.5,1.2-0.5,1.5,0.4c0.9,3.1,1.2,6.2-0.5,9.2c-0.5,0.9-1.2,1.2-2.1,1.1
	c-1.3-0.1-2.6-0.2-3.8-0.7c-0.4-0.1-0.7-0.4-1-0.7c-0.2-0.2,2.4-3.1,2.7-3.1c2.4,0,2.4,0,4.5-1.3c-0.9-0.1-1.4,0.4-2,0.7
	c-1,0.5-2.1,0.6-2.8-0.1c-0.7-0.6,0.3-1.3,0.3-2.1l0,0c0.4-0.4,0.7-0.7,1.1-1.1l0,0C193.6,40.1,194.4,39.2,195.1,38.4L195.1,38.4z"
	/>
<path class="st0" d="M187.9,48c2.1,0.8,4.1,2,6.5,1.7c0.8-0.1,0.7,0.4,0.3,0.9c-0.3,0.4-0.6,1-1,1.2c-1.3,0.7-2,2-3.1,2.9
	c-2,1.7-4,1.3-6.1,0.5c-0.5-0.2-1.4-0.5-0.7-1.2c0.6-0.6,0.2-2.3,1.9-1.8c1.7,0.6,3.5,0.6,5.3,0.4c-1.4-0.2-2.8-0.6-4.2-0.7
	c-1.7-0.1-1.8-1-1.4-2.2l0,0c0.9-0.2,1.6-0.7,2.2-1.5l0,0C187.8,48.3,188.1,48.3,187.9,48L187.9,48z"/>
<path class="st0" d="M185.5,49.7c-0.6,0.3-1.2,0.6-1.3-0.5c-0.3-2-0.1-4-0.1-6c0-0.6,0.5-0.9,1-1.1c1.6-0.7,3.2-1.5,4.9-2.3
	c0.2,1.6,0.2,3.1,0.5,4.5c0.2,1.3-1,1.9-1.8,2.6c-0.4,0.4-0.6-0.1-0.8-0.3c-0.3-0.6-0.5-1.2-0.7-1.9c-0.5,1.4,0.7,2.2,0.7,3.3l0,0
	c-0.2,0-0.4,0.1-0.4,0.4l0,0C186.7,48.5,186,49.1,185.5,49.7L185.5,49.7z"/>
<path class="st0" d="M181.9,53.7c-0.4-1.5-0.6-3.1-0.9-4.6c-0.4-1.9,0.7-3.1,1.3-4.6c0.1-0.3,0.5-0.3,0.7-0.4c0.4,0,0.5,0.3,0.5,0.6
	c0,2.2,0,4.4,0.8,6.6C185,52.9,183.3,54.2,181.9,53.7L181.9,53.7z"/>
<path class="st0" d="M195.9,92.5c-2.3-0.1-3.7-1.9-3.7-4.5c0-1.8,2.3-3.3,4.1-3.2c2.1,0.1,3.8,1.9,3.7,4
	C199.9,91,198.1,92.6,195.9,92.5z M197.9,91c0.7,0,0.8-0.6,1-1.1c0.6-1.5,0-3.2-1.4-4c-1.4-0.7-3.1-0.3-3.9,1
	c-0.8,1.3-0.6,3.2,0.6,4.2C195.3,92.1,196.7,92,197.9,91L197.9,91z"/>
<path class="st0" d="M171.5,32.2c1.6,0,2.3,0.5,2.3,1.9c0,0.9-0.3,1.8,0.3,2.7c0.3,0.5-0.2,0.9-0.6,0.7c-0.8-0.5-1.4,0-2.1,0.1
	c-0.9,0.2-1.8-0.1-2-1.2c-0.2-1.1,0.4-1.6,1.3-1.9c0.6-0.2,1.5,0.2,1.8-0.7c0.1-0.1-0.1-0.5-0.3-0.6c-0.7-0.2-1.4-0.2-1.8,0.6
	c-0.1,0.1-0.5,0.2-0.6,0.1c-0.3-0.2-0.2-0.5-0.1-0.8C170.2,32.3,171,32.2,171.5,32.2z M171.4,36.7c0.6-0.1,1.1-0.2,1.2-1
	c0.1-0.5-0.2-0.6-0.6-0.5c-0.6,0.1-1.4-0.1-1.5,0.8C170.5,36.6,170.9,36.7,171.4,36.7z"/>
<path class="st0" d="M55.8,33.9c0-3.6,0-3.6,3.6-3.5c0.5,0,1.3-0.3,1.2,0.5c0,0.7-0.8,0.4-1.3,0.4c-0.5,0.1-1.1,0-1.6,0
	c-0.8-0.1-0.8,0.4-0.8,1c0,0.6,0.1,0.9,0.9,1c0.8,0,2.3-0.4,2.3,0.4c0,1-1.4,0.4-2.2,0.5c-0.7,0.1-1,0.3-0.9,1c0,0.5,0,1.1,0,1.6
	c0,0.4-0.3,0.6-0.7,0.6c-0.4,0-0.4-0.3-0.4-0.6C55.8,35.8,55.8,34.9,55.8,33.9z"/>
<path class="st0" d="M143.7,32.2c1.5,0,2.4,1.1,2.4,2.7c-0.1,1.7-1.1,2.9-2.6,2.8c-1.4-0.1-2.3-1.1-2.2-2.8
	C141.4,33.2,142.3,32.1,143.7,32.2z M142.3,35c0.2,0.7,0.2,1.7,1.3,1.7c1.2,0,1.4-0.9,1.4-1.8c0-0.9-0.1-1.7-1.2-1.8
	C142.5,33.1,142.5,34.1,142.3,35z"/>
<path class="st0" d="M89.3,34.9c0,0.2,0,0.4,0,0.5c0.6,2.3-1.2,2-2.4,2.1c-1.5,0.2-1.9-1-1.7-2.2c0.1-1-0.7-2.6,0.6-2.8
	c0.8-0.1,0.2,1.7,0.4,2.6c0.1,0.7-0.1,1.5,1,1.5c0.9,0,1.1-0.8,1.1-1.5c0-0.6,0-1.3,0-1.9c0-0.4,0.1-0.9,0.7-0.8
	c0.5,0,0.4,0.5,0.4,0.8C89.3,33.8,89.3,34.3,89.3,34.9z"/>
<path class="st0" d="M127.3,35c0,0.6,0.1,1.2,0.7,1.5c0.6,0.3,1.2,0.1,1.5-0.5c0.2-0.3,0.4-0.7,0.8-0.4c0.5,0.3,0.2,0.7,0,1.1
	c-0.3,0.6-0.9,0.9-1.6,0.9c-1,0-1.8-0.3-2.2-1.4c-0.5-1.3-0.4-2.5,0.5-3.4c0.7-0.8,1.7-0.8,2.6-0.4c0.5,0.2,0.8,0.5,0.9,1
	c0,0.2,0,0.5-0.1,0.6c-0.2,0.2-0.6,0.2-0.7-0.1c-0.3-0.7-0.9-1-1.6-0.7C127.4,33.6,127.3,34.3,127.3,35z"/>
<path class="st0" d="M181.9,53.7c0.2,0.5,0.5,1,0.7,1.5l0,0c-0.6,0-0.7,0.3-0.8,0.8l0,0c-1.7,0.6-2.4,0.2-2.5-1.6
	c-0.1-1.7,0-3.4,0.9-5.1C181.2,50.7,180.5,52.6,181.9,53.7C181.9,53.7,181.9,53.7,181.9,53.7z"/>
<path class="st0" d="M191.9,42c-0.7-0.1-0.6,0.7-1,0.8c-1-2.6,0.5-4.9,3.2-5.1c0.7,0,0.7,0.4,0.9,0.7l0,0c-1.1,0.5-1.9,1.3-2.2,2.5
	l0,0C192.2,40.8,191.9,41.3,191.9,42L191.9,42z"/>
<path class="st0" d="M103.1,32.5c-1.5,0.9-1.1,2-1.1,2.9c0,0.3,0,0.7,0.1,1c0.1,0.3,0.9,0.3,0.5,0.9c-0.2,0.3-0.6,0.3-1,0.2
	c-0.6-0.1-0.7-0.5-0.7-1c0-1,0.2-2.1-0.1-3c-0.2-0.5-0.9-0.8,0-1.3c0.4-0.2-0.3-1.2,0.6-1.2C102.5,31,101.3,32.8,103.1,32.5z"/>
<path class="st0" d="M182.6,55.1c1.5,0.3,2.9,1.2,4.7,1.2c-1.7,1.5-3.7,1.6-5.3,0.6c-0.8-0.5,0-0.8,0-1.1l0,0
	C182.3,55.7,182.6,55.5,182.6,55.1L182.6,55.1z"/>
<path class="st0" d="M71.8,34.8c0-0.4,0-0.8,0-1.2c0-0.4-0.2-1.2,0.3-1.1c0.7,0.1,1.4-0.4,2-0.1c0.4,0.2,0.3,0.7-0.1,0.8
	c-1.7,0.5-1.2,1.9-1.4,3c0,0.4,0.3,1.2-0.5,1.2c-0.7,0-0.3-0.7-0.4-1.2C71.7,35.7,71.8,35.3,71.8,34.8z"/>
<path class="st0" d="M157.2,33.8c0-0.8,0-1.6,0-2.5c0-0.3,0-0.7,0.5-0.8c0.5,0,0.5,0.3,0.5,0.7c0,1.8,0,3.6,0,5.5
	c0,0.3,0,0.7-0.5,0.7c-0.5,0-0.5-0.5-0.5-0.8C157.2,35.7,157.2,34.7,157.2,33.8z"/>
<path class="st0" d="M114.9,34.9c0,0.6,0,1.3,0,1.9c0,0.3,0,0.6-0.5,0.6c-0.4,0-0.5-0.3-0.5-0.6c0-1.2,0-2.5,0-3.7
	c0-0.3,0-0.7,0.5-0.7c0.5,0,0.5,0.4,0.5,0.8C114.9,33.7,114.9,34.3,114.9,34.9C114.9,34.9,114.9,34.9,114.9,34.9z"/>
<path class="st0" d="M192.9,40.9c0.3-1.2,1-2,2.2-2.5C194.4,39.2,193.6,40.1,192.9,40.9z"/>
<path class="st0" d="M191.8,42c0-0.7,0.3-1.1,1.1-1.1C192.6,41.3,192.2,41.6,191.8,42z"/>
<path class="st0" d="M185.4,49.8c0.6-0.7,1.2-1.3,2.2-1.5C187.1,49.1,186.4,49.6,185.4,49.8z"/>
<path class="st0" d="M187.6,48.4c0-0.3,0.2-0.4,0.4-0.4C188.1,48.3,187.8,48.3,187.6,48.4z"/>
<path class="st0" d="M182.7,55.1c-0.1,0.4-0.4,0.6-0.8,0.8C181.9,55.4,182.1,55,182.7,55.1z"/>
<path class="st0" d="M197.9,91c-1.4,0.2-1.1-1.5-2.1-1.7c-0.1,0.1-0.2,0.1-0.3,0.2c-0.2,0.5,0.3,1.5-0.4,1.5c-0.9,0-0.3-1-0.5-1.6
	c-0.1-0.3-0.1-0.7,0-1c0.1-0.6-0.4-1.6,0.5-1.8c0.9-0.2,2-0.3,2.6,0.5c0.5,0.7,0.3,1.3-0.4,2C196.6,89.7,198.2,90.1,197.9,91
	C197.9,91,197.9,91,197.9,91z M196.1,87.1c-0.4-0.1-0.6,0.1-0.6,0.6c0,0.5,0.2,0.7,0.7,0.7c0.4,0,0.9-0.1,0.9-0.6
	C197.1,87.2,196.5,87.2,196.1,87.1z"/>
</svg>
