<?xml version="1.0" encoding="utf-8"?>
<!-- Generator: Adobe Illustrator 21.0.0, SVG Export Plug-In . SVG Version: 6.00 Build 0)  -->
<svg version="1.1" id="Layer_1" xmlns="http://www.w3.org/2000/svg" xmlns:xlink="http://www.w3.org/1999/xlink" x="0px" y="0px"
	 viewBox="0 0 230 155" style="enable-background:new 0 0 230 155;" xml:space="preserve">
<style type="text/css">
	.st0{fill:#007B00;}
</style>
<path class="st0" d="M22.6,100.7c11.8-3.1,23.8-3.8,35.9-3.3c16.8,0.7,33.5,3.2,50.2,5.1c23.9,2.7,48,3.2,72,2.5
	c14.1-0.4,28.1-1.3,42-3.3c2.3-0.3,2.8,0.4,2.9,2.7c0.2,9.2,0.3,9.2-8.9,10.7c-41.4,6.8-82.2,3.3-122.6-6.9
	c-19.3-4.9-38.6-8.9-58.7-7.3c-3.4,0.3-6.8,0.5-10.2,0.8c-0.3,0.1-0.6,0.1-0.9,0.2c-0.6,0.1-1.1,0.2-1.7,0.3
	C22.6,101.5,22.6,101.1,22.6,100.7z"/>
<path class="st0" d="M120.4,37.2c6.9,0,6.9,0,7.8,6.6c2.5,17,5,34.1,7.7,51.1c0.5,3-0.1,4.1-3.2,3.6c-1.2-0.2-2.4-0.3-3.5-0.2
	c-2.2,0.2-3.1-0.9-3.2-3c0-0.5-0.1-1-0.1-1.6c-0.8-6.7-0.8-6.6-7.6-6.3c-1.7,0.1-2.7,0.4-2.8,2.4c0,1.4-0.5,2.8-0.5,4.3
	c0,2.6-0.9,3.3-3.6,2.9c-6.6-0.9-6.6-0.7-5.5-7.3c2.4-15.4,4.6-30.7,6.9-46.1C113.9,37.2,114,37.2,120.4,37.2z M123.7,76.2
	c-0.7-5.6-1.4-10.8-2.1-16c-0.1-0.7,0.1-1.8-0.9-1.9c-1.5-0.2-1.1,1.2-1.2,1.9c-0.7,5.2-1.3,10.4-2.1,15.5c-0.5,2.9,1.2,2.8,3.2,2.8
	C122.5,78.5,124.4,78.7,123.7,76.2z"/>
<path class="st0" d="M139.4,67.9c0-9.1,0.1-18.3-0.1-27.4c0-2.5,0.5-3.5,3.2-3.4c5.4,0.2,10.8,0,16.1,0.1c7.2,0.1,10.1,3,10.1,9.9
	c0,5.6,0.1,11.2-0.1,16.8c-0.2,5.4-9.6,10.2-14,7.3c-1.1-0.8-0.6-1.5,0.5-1.9c2.2-0.8,2.2-2.7,2.2-4.6c0-6.1,0-12.3,0-18.4
	c0-0.6-0.1-1.3-0.2-1.9c-0.5-2.5-2.4-2.7-4.5-2.7c-2.5,0.1-1.7,2-1.7,3.2c-0.1,16.6-0.1,33.2,0,49.7c0,3.2-0.8,4.3-4.1,4.1
	c-7.5-0.3-7.5-0.2-7.5-7.8C139.4,83.3,139.4,75.6,139.4,67.9z"/>
<path class="st0" d="M173.2,67.7c0-9,0.1-18-0.1-27c0-2.6,0.5-3.7,3.4-3.6c5.8,0.2,11.6,0.3,17.3,0c3.2-0.1,2.9,1.6,2.9,3.7
	c0,2.1,0.1,4.1-2.9,3.6c-0.1,0-0.3,0-0.4,0c-8.8,0.2-8.8,0.2-8.8,9.1c0,2.2,0.1,4.4,0,6.7c-0.1,2.6-0.3,4.8,3.7,4.5
	c2.9-0.2,1.4,2.5,1.5,3.9c0.1,1.1,0.9,3.4-1.6,3.1c-3.7-0.5-3.7,1.5-3.6,4.2c0.1,3.8,0.2,7.6,0,11.4c-0.2,3.1,0.6,4.7,4,4.1
	c1.4-0.2,2.9-0.1,4.3,0c1.8,0,3.9-0.7,3.9,2.6c0.1,3.1-1.2,3.7-3.9,3.7c-5.4,0.1-10.8,0.2-16.1,0.7c-2.9,0.2-3.9-0.4-3.8-3.5
	C173.4,85.7,173.2,76.7,173.2,67.7z"/>
<path class="st0" d="M72.3,65.9c0-7.4,0-14.9,0-22.3c0-4.2,2.5-6.9,6.7-7.1c5.5-0.2,11-0.2,16.6,0c4.2,0.2,6.6,2.9,6.7,7.2
	c0.2,7.7,0.2,7.5-7.4,7.7c-3.3,0.1-4.4-0.8-4.1-4.1c0.2-2.2,0.7-5-2.7-5.6c-2.9-0.5-4.4,1-4.4,4.8c0,14.6-0.1,29.2,0.1,43.9
	c0,2.5-0.7,2.7-2.8,2.5c-8.6-0.9-8.7-0.8-8.7-9.4C72.3,77.6,72.3,71.7,72.3,65.9z"/>
<path class="st0" d="M13.3,69.9c0-6.8,0-13.6,0-20.4c0-5.2,0-5.4-5.2-5.2c-2.8,0.1-3.9-0.5-3.8-3.6C4.4,37.9,5,37,8,37.1
	c7.5,0.2,15,0.2,22.5,0c3.2-0.1,3.3,1.4,3.2,3.8c-0.1,2.2,0,3.6-3,3.6c-5.9-0.1-5.9,0.1-5.9,6c0,12.8-0.1,25.6,0.1,38.4
	c0,2.5-0.6,3.8-3.3,4.1c-2.7,0.3-6.6,2.6-7.6,1.6c-1.8-1.7-0.6-5.4-0.6-8.2C13.2,80.9,13.3,75.4,13.3,69.9z"/>
<path class="st0" d="M202,66.9c0-8.9,0.1-17.8-0.1-26.6c0-2.4,0.7-3.1,3.1-3.1c8.5-0.1,8.5-0.2,8.5,8.2c0,14.1,0.1,28.2-0.1,42.3
	c0,3,0.8,3.9,3.7,3.6c2.1-0.2,4.2,0,6.3-0.1c1.5-0.1,2.1,0.5,2.1,2c0,1.5-0.6,2-2,2.1c-6.3,0.4-12.6,0.9-18.8,1.4
	c-2.5,0.2-2.8-0.9-2.8-2.9C202.1,84.9,202,75.9,202,66.9z"/>
<path class="st0" d="M48.7,88.6c5.3,0.7,5.4,0.5,5.4-4.6c0-14.5,0.1-28.9-0.1-43.4c0-2.7,0.7-3.5,3.5-3.5c8.1,0.1,8.1,0,8.1,7.9
	c0,14.2-0.1,28.4,0.1,42.6c0,3.1-0.9,3.7-3.8,3.3c-4.4-0.5-8.9-0.6-13.3-0.8C48.7,89.6,48.7,89.1,48.7,88.6z"/>
<path class="st0" d="M48.7,88.6c0,0.5-0.1,1-0.1,1.5c-2.6,0-5.3,0.1-7.9,0.1c-1.1-1-2.5-0.5-3.8-0.6c-0.2-17.2-0.4-34.5,0.1-51.7
	c3.6,0,7.2,0,10.8,0c0.7,11.6,0,23.2,0.3,34.8C48.3,78,47.4,83.3,48.7,88.6z"/>
<path class="st0" d="M89.4,94c1.8-2.1,1.4-4.6,1.3-7c-0.1-2,0.6-3,2.7-2.7c0.3,0,0.5,0,0.8,0c8.9-0.1,9.1,0.1,8.1,9
	c-0.2,1.7-0.6,2.8-2.6,2.4C96.3,95,92.9,95.2,89.4,94z"/>
<path class="st0" d="M22.6,100.7c0,0.4,0,0.9,0,1.3c-2.3,0.8-4.7,1.4-7.6,0.9C17.6,101.2,20.1,101.1,22.6,100.7z"/>
<path class="st0" d="M47.8,37.9c-3.6,0-7.2,0-10.8,0C40.6,36.8,44.2,36.8,47.8,37.9z"/>
<path class="st0" d="M36.9,89.6c1.3,0.2,2.7-0.4,3.8,0.6C39.5,90.1,37.9,91.5,36.9,89.6z"/>
<path class="st0" d="M24.3,101.7c0.3-0.1,0.6-0.1,0.9-0.2C24.9,101.5,24.6,101.6,24.3,101.7z"/>
</svg>
