<svg width="367" height="113" viewBox="0 0 367 113" fill="none" xmlns="http://www.w3.org/2000/svg">
<path d="M0 70.3913C2.64933 79.5668 6.73987 88.2642 12.119 96.1591C20.139 107.332 29.8589 113 41.0046 113H42.3755C46.1682 112.851 49.8444 111.649 52.9922 109.531C56.1399 107.413 58.6349 104.461 60.1976 101.006C61.7762 97.6843 62.3822 93.9845 61.9455 90.3336C61.5089 86.6827 60.0474 83.2295 57.7299 80.3726C54.8276 76.8231 51.2548 73.8783 47.2149 71.7056L47.4068 71.514C47.8896 71.025 48.1604 70.366 48.1608 69.6792C48.1608 66.5438 48.1608 64.9282 48.1608 64.5723C48.2268 64.3933 48.3296 64.23 48.4624 64.093L52.9316 59.5337L57.8121 54.5636C58.0401 54.3408 58.2207 54.0744 58.3432 53.7804C58.4657 53.4863 58.5275 53.1706 58.5251 52.8521V49.4291V46.992C60.3349 46.283 61.8479 44.9777 62.8132 43.2923C63.7785 41.6069 64.1381 39.6426 63.8325 37.7251C63.5269 35.8076 62.5744 34.052 61.1329 32.7492C59.6914 31.4464 57.8474 30.6747 55.9066 30.5619C53.9182 30.4566 51.9565 31.0553 50.3666 32.2524C48.7767 33.4496 47.6606 35.1685 47.2149 37.1066C46.7473 39.1012 47.0117 41.1973 47.9601 43.0138C48.9085 44.8303 50.478 46.2468 52.3833 47.0057V51.2091C52.3833 51.3186 52.3833 51.346 52.2462 51.4829C48.8188 54.9606 45.6794 58.1645 42.6496 61.2588C42.2605 61.6878 42.037 62.2411 42.019 62.8197V63.737V64.3669C42.019 64.4901 42.019 67.1052 42.019 68.1732C42.0272 68.2139 42.0272 68.2557 42.019 68.2964C39.9489 70.4323 37.824 72.5956 35.7127 74.7589V16.4457C37.4718 15.7783 38.9594 14.5469 39.9424 12.9443C40.9253 11.3418 41.348 9.45875 41.1442 7.59048C40.9403 5.72222 40.1215 3.97433 38.816 2.62083C37.5106 1.26733 35.7923 0.384742 33.9305 0.11143C32.1582 -0.181605 30.3386 0.106981 28.7444 0.933926C27.1502 1.76087 25.8673 3.08161 25.088 4.69816C24.2312 6.28449 23.9549 8.1195 24.3066 9.88735C24.5296 11.3468 25.1371 12.7208 26.067 13.8685C26.9969 15.0161 28.2157 15.8961 29.5984 16.4183C29.5984 26.3448 29.5984 51.4281 29.5984 61.8476V73.198C27.9807 71.5276 26.3493 69.871 24.759 68.2143C24.7528 68.1734 24.7528 68.1319 24.759 68.091V55.4262C24.7601 55.0952 24.6953 54.7674 24.5682 54.4618C24.441 54.1562 24.2542 53.8789 24.0187 53.6462C20.8793 50.4697 17.6713 47.1837 14.4222 43.8977V43.7607V38.284C14.4222 37.2709 14.4222 36.7232 14.4222 32.5061C15.8499 32.0348 17.1272 31.1943 18.1241 30.07C19.121 28.9456 19.8019 27.5777 20.0976 26.1052C20.3934 24.6328 20.2933 23.1084 19.8077 21.6871C19.322 20.2658 18.4682 18.9983 17.3329 18.0136C16.1975 17.0288 14.8213 16.362 13.3442 16.0808C11.8671 15.7997 10.3418 15.9143 8.92339 16.413C7.50502 16.9117 6.2442 17.7767 5.26918 18.9199C4.29417 20.0632 3.63974 21.444 3.37248 22.9219C3.07009 24.7972 3.38504 26.7198 4.27002 28.4011C5.155 30.0824 6.56226 31.4316 8.28044 32.246V45.2942C8.28083 45.981 8.55164 46.64 9.03443 47.1289C10.5425 48.6624 12.0642 50.1959 13.5722 51.7431C15.0802 53.2902 16.8076 55.0428 18.439 56.6858C18.5141 56.7429 18.5735 56.818 18.6119 56.9042C18.6502 56.9903 18.6662 57.0848 18.6584 57.1787C18.6584 59.7117 18.6584 60.5879 18.6584 61.0945V64.1478C15.7109 63.8877 12.7634 63.7918 8.33524 63.7918H5.08614C4.29674 63.8077 3.52182 64.0064 2.8224 64.3723C2.12298 64.7382 1.51815 65.2613 1.0556 65.9004C0.589081 66.5283 0.276589 67.2567 0.143252 68.0272C0.00991419 68.7977 0.0594554 69.5886 0.287884 70.3365L0 70.3913ZM11.7078 27.892C11.0299 27.892 10.3672 27.6913 9.80361 27.3151C9.23999 26.939 8.8007 26.4044 8.54129 25.779C8.28189 25.1535 8.21404 24.4653 8.34629 23.8013C8.47853 23.1373 8.80492 22.5274 9.28424 22.0487C9.76356 21.57 10.3743 21.244 11.0391 21.1119C11.704 20.9798 12.3931 21.0476 13.0193 21.3067C13.6456 21.5658 14.1809 22.0045 14.5575 22.5674C14.9341 23.1303 15.1351 23.7921 15.1351 24.4691C15.1369 24.9191 15.0495 25.365 14.8779 25.7811C14.7063 26.1972 14.4539 26.5753 14.1353 26.8935C13.8166 27.2117 13.4381 27.4638 13.0215 27.6351C12.6048 27.8065 12.1584 27.8938 11.7078 27.892ZM52.2736 38.9686C52.2736 38.2916 52.4746 37.6299 52.8512 37.067C53.2278 36.5041 53.7631 36.0653 54.3893 35.8063C55.0156 35.5472 55.7048 35.4794 56.3696 35.6115C57.0344 35.7436 57.6451 36.0696 58.1244 36.5483C58.6037 37.027 58.9302 37.6369 59.0624 38.3009C59.1947 38.9649 59.1268 39.6531 58.8674 40.2785C58.608 40.904 58.1687 41.4386 57.605 41.8147C57.0414 42.1908 56.3788 42.3916 55.7009 42.3916C54.792 42.3916 53.9202 42.031 53.2775 41.389C52.6347 40.7471 52.2736 39.8765 52.2736 38.9686ZM32.8475 11.9274C32.1696 11.9274 31.507 11.7267 30.9434 11.3505C30.3798 10.9744 29.9405 10.4398 29.6811 9.81437C29.4217 9.18891 29.3538 8.50068 29.486 7.8367C29.6183 7.17271 29.9447 6.5628 30.424 6.08409C30.9033 5.60538 31.514 5.27939 32.1789 5.14731C32.8437 5.01524 33.5328 5.08302 34.1591 5.34209C34.7854 5.60116 35.3206 6.0399 35.6972 6.6028C36.0738 7.1657 36.2748 7.82747 36.2748 8.50447C36.2748 9.41229 35.9137 10.2829 35.271 10.9249C34.6282 11.5668 33.7565 11.9274 32.8475 11.9274ZM36.2748 86.3421C36.2775 87.0197 36.0789 87.6828 35.7039 88.2475C35.329 88.8122 34.7946 89.2531 34.1686 89.5142C33.5426 89.7754 32.853 89.8452 32.1873 89.7146C31.5216 89.5841 30.9096 89.2592 30.4289 88.7811C29.9482 88.3029 29.6204 87.693 29.4871 87.0286C29.3537 86.3643 29.4208 85.6754 29.6798 85.0491C29.9388 84.4228 30.3781 83.8875 30.942 83.5107C31.5059 83.134 32.1691 82.9329 32.8475 82.9329C33.7541 82.9329 34.6238 83.2917 35.2662 83.9306C35.9085 84.5696 36.2712 85.4367 36.2748 86.3421ZM6.58045 69.912C6.65418 69.8103 6.75106 69.7274 6.86307 69.6703C6.97507 69.6132 7.09902 69.5834 7.22479 69.5834H8.32156C12.8868 69.5834 15.752 69.693 18.7132 69.9668C18.7837 70.5268 19.0394 71.0472 19.4398 71.4455C20.9615 72.979 22.4695 74.5261 23.9776 76.0596L27.5557 79.7016C26.4554 80.5777 25.5896 81.7124 25.0359 83.0044C24.4821 84.2964 24.2577 85.7054 24.3826 87.1052C24.5076 88.5051 24.978 89.8521 25.7519 91.0259C26.5257 92.1998 27.5788 93.1637 28.817 93.8315C30.6117 94.8 32.6954 95.0915 34.6876 94.6528C36.6797 94.214 38.4474 93.0744 39.6679 91.4419C40.8884 89.8095 41.4804 87.793 41.3357 85.7608C41.1909 83.7285 40.3192 81.8161 38.8796 80.3726C40.3465 78.9075 41.786 77.4288 43.2392 75.9501C47.183 77.8397 50.668 80.5634 53.4526 83.9324C55.0936 85.9555 56.1269 88.4017 56.4326 90.9873C56.7384 93.573 56.304 96.1923 55.18 98.5415C54.0628 101.022 52.2752 103.141 50.0181 104.663C47.761 106.184 45.1238 107.047 42.4029 107.154H41.3198C20.5365 107.154 10.0215 81.6185 6.45707 70.6377C6.42277 70.5151 6.41604 70.3865 6.43737 70.261C6.4587 70.1356 6.50756 70.0164 6.58045 69.912Z" fill="#F3F2EF"/>
<path d="M71.9053 84.2062L81.8857 39.5437H87.2323L97.2127 84.2062H90.8104L88.9323 74.622H80.1994L78.3075 84.2062H71.9053ZM87.7258 68.5839L84.5864 52.4002H84.463L81.3236 68.5839H87.7258Z" fill="#F3F2EF"/>
<path d="M106.384 87.903C106.442 88.6951 106.76 89.4461 107.289 90.0389C107.603 90.3785 107.988 90.6444 108.417 90.8172C108.846 90.9901 109.309 91.0656 109.77 91.0384C110.199 91.0777 110.63 91.0094 111.025 90.8396C111.42 90.6698 111.767 90.4039 112.033 90.0663C112.525 89.3364 112.771 88.4676 112.732 87.5881V81.3172H112.608C111.954 82.3048 111.082 83.1292 110.058 83.727C109.01 84.304 107.828 84.5967 106.631 84.5759C105.507 84.6782 104.378 84.4469 103.386 83.911C102.393 83.3752 101.581 82.5586 101.051 81.5637C100.631 80.7399 100.353 79.8511 100.229 78.9349C100.042 77.5418 99.9597 76.1368 99.982 74.7315V62.628C99.9515 60.9325 100.016 59.2367 100.174 57.5483C100.253 56.5853 100.562 55.6551 101.075 54.8357C101.588 54.0162 102.289 53.3314 103.121 52.8384C104.209 52.2232 105.453 51.9422 106.7 52.0305C107.389 52.017 108.076 52.0999 108.742 52.277C109.283 52.4349 109.799 52.6652 110.278 52.9616C110.737 53.2587 111.16 53.6079 111.539 54.0022L112.732 55.2892V52.4002H119.134V88.0946C119.128 89.2111 118.948 90.3199 118.599 91.3807C118.245 92.4881 117.656 93.5063 116.872 94.3655C116.038 95.313 115.009 96.0696 113.856 96.5836C112.493 97.1837 111.013 97.4737 109.524 97.4324C108.501 97.4258 107.485 97.2689 106.508 96.9669C105.443 96.6384 104.458 96.0929 103.615 95.365C102.642 94.5901 101.844 93.6199 101.271 92.5171C100.543 91.0781 100.105 89.5104 99.982 87.903H106.384ZM106.384 74.4166C106.364 75.3359 106.591 76.2438 107.042 77.0454C107.311 77.4444 107.685 77.7616 108.123 77.9621C108.561 78.1626 109.045 78.2386 109.524 78.1818C109.953 78.1917 110.379 78.1101 110.773 77.9425C111.168 77.7749 111.523 77.525 111.813 77.2097C112.429 76.5334 112.758 75.6451 112.732 74.7315V62.4089C112.773 61.3874 112.464 60.3824 111.854 59.561C111.578 59.2094 111.224 58.9272 110.819 58.737C110.414 58.5468 109.971 58.4539 109.524 58.4657C109.056 58.4326 108.587 58.5257 108.168 58.7352C107.748 58.9448 107.393 59.2631 107.138 59.6569C106.593 60.6088 106.331 61.6967 106.384 62.7923V74.4166Z" fill="#F3F2EF"/>
<path d="M124.412 84.2061V52.4002H130.814V55.782C131.978 54.723 133.261 53.8039 134.639 53.0437C136.083 52.3342 137.679 51.9909 139.287 52.0442V58.8079C138.667 58.5618 138.007 58.4363 137.34 58.4382C136.605 58.4475 135.876 58.5628 135.174 58.7805C134.4 59.0147 133.685 59.4115 133.076 59.9443C132.375 60.5156 131.816 61.2422 131.445 62.0665C130.993 63.0967 130.778 64.2148 130.814 65.3389V84.2198L124.412 84.2061Z" fill="#F3F2EF"/>
<path d="M140.986 63.0661C140.983 61.87 141.07 60.6755 141.247 59.4925C141.419 58.2138 141.878 56.9904 142.59 55.914C143.303 54.8376 144.249 53.9359 145.36 53.2765C146.942 52.4578 148.698 52.0305 150.48 52.0305C152.262 52.0305 154.018 52.4578 155.601 53.2765C156.962 54.0714 158.08 55.2216 158.836 56.6036C159.324 57.5015 159.644 58.4804 159.782 59.4925C159.954 60.6759 160.036 61.8704 160.029 63.0661V73.5403C160.036 74.7359 159.954 75.9305 159.782 77.1138C159.642 78.1255 159.322 79.104 158.836 80.0028C158.076 81.3781 156.958 82.5229 155.601 83.3162C154.022 84.1483 152.265 84.5833 150.48 84.5833C148.695 84.5833 146.938 84.1483 145.36 83.3162C144.248 82.6613 143.301 81.7626 142.588 80.6881C141.876 79.6136 141.417 78.3914 141.247 77.1138C141.07 75.9309 140.983 74.7363 140.986 73.5403V63.0661ZM147.402 74.5398C147.318 75.5283 147.622 76.5109 148.252 77.2781C148.869 77.8657 149.689 78.1935 150.542 78.1935C151.394 78.1935 152.214 77.8657 152.831 77.2781C153.456 76.5081 153.76 75.5277 153.681 74.5398V62.0529C153.755 61.0656 153.451 60.0872 152.831 59.3145C152.211 58.7331 151.392 58.4095 150.542 58.4095C149.691 58.4095 148.873 58.7331 148.252 59.3145C147.626 60.0839 147.322 61.0648 147.402 62.0529V74.5398Z" fill="#F3F2EF"/>
<path d="M185.83 52.4003H179.373V51.0311C179.404 49.6923 179.042 48.3737 178.331 47.2385C177.943 46.6891 177.417 46.2516 176.805 45.9703C176.194 45.6891 175.519 45.5739 174.849 45.6365C174.168 45.5905 173.488 45.7291 172.88 46.0376C172.271 46.3461 171.758 46.8131 171.394 47.3891C171.051 47.9578 170.814 48.5841 170.695 49.2375C170.572 49.9519 170.512 50.6759 170.516 51.4008C170.507 52.1322 170.539 52.8636 170.612 53.5914C170.66 54.1423 170.819 54.6778 171.079 55.166C171.341 55.6465 171.718 56.0555 172.175 56.3572C172.791 56.7673 173.454 57.1027 174.149 57.3567L179.057 59.3009C180.305 59.7503 181.471 60.3976 182.512 61.2178C183.364 61.9216 184.068 62.7872 184.582 63.7644C185.059 64.85 185.377 65.998 185.528 67.1737C185.703 68.6229 185.786 70.0817 185.775 71.5414C185.786 73.3004 185.598 75.055 185.213 76.7716C184.892 78.2508 184.272 79.6488 183.39 80.8792C182.484 82.0646 181.296 83.0058 179.935 83.6175C178.293 84.3291 176.514 84.6703 174.725 84.617C173.238 84.6268 171.763 84.3526 170.379 83.8092C169.093 83.2919 167.924 82.5239 166.938 81.55C165.972 80.582 165.191 79.445 164.635 78.1955C164.077 76.8981 163.793 75.5 163.799 74.088V71.7057H170.201V73.7046C170.19 74.8468 170.551 75.9615 171.229 76.8811C171.661 77.3701 172.204 77.7494 172.812 77.9875C173.42 78.2255 174.076 78.3156 174.725 78.2503C175.597 78.2913 176.465 78.1271 177.261 77.7711C177.847 77.464 178.325 76.9865 178.632 76.4019C178.989 75.753 179.195 75.0325 179.236 74.2934C179.236 73.4856 179.332 72.5819 179.332 71.5551C179.344 70.5902 179.298 69.6254 179.194 68.6661C179.147 68.0376 178.98 67.424 178.701 66.8588C178.402 66.3982 178.004 66.0101 177.536 65.7224C176.917 65.3669 176.276 65.0513 175.616 64.7776L171.147 62.8745C168.838 62.0918 166.89 60.5016 165.663 58.3973C164.665 56.2041 164.196 53.8079 164.292 51.4008C164.284 49.7865 164.52 48.1801 164.992 46.636C165.404 45.2105 166.109 43.8862 167.062 42.7476C167.971 41.6356 169.119 40.7419 170.42 40.1325C171.95 39.4517 173.613 39.1196 175.287 39.1603C176.787 39.1438 178.274 39.4473 179.647 40.0503C180.926 40.5975 182.089 41.3828 183.074 42.3642C183.984 43.2588 184.708 44.3241 185.204 45.4989C185.701 46.6737 185.96 47.935 185.967 49.2101L185.83 52.4003Z" fill="#F3F2EF"/>
<path d="M190.217 39.5437H196.633V45.9378H190.217V39.5437ZM190.217 52.4002H196.633V84.2062H190.217V52.4002Z" fill="#F3F2EF"/>
<path d="M201.911 84.2063V52.4003H208.313V55.4809H208.436C209.09 54.5026 209.928 53.6608 210.904 53.0027C211.981 52.3134 213.245 51.9738 214.523 52.0306C215.753 51.9819 216.965 52.3326 217.978 53.0301C218.838 53.6421 219.601 54.3807 220.24 55.2208C221.018 54.3594 221.902 53.6003 222.872 52.9617C224.096 52.2776 225.489 51.9548 226.889 52.0306C227.722 52.0381 228.55 52.172 229.343 52.4277C230.189 52.7109 230.962 53.1786 231.605 53.7969C232.311 54.4782 232.866 55.2988 233.236 56.2066C233.682 57.3584 233.897 58.5867 233.867 59.8212V84.22H227.355V62.1899C227.405 61.2119 227.119 60.2462 226.546 59.4515C226.263 59.115 225.904 58.8494 225.5 58.6758C225.095 58.5023 224.655 58.4257 224.216 58.4521C223.736 58.4021 223.251 58.4796 222.81 58.6767C222.37 58.8738 221.989 59.1837 221.707 59.5748C221.194 60.5862 220.957 61.7151 221.021 62.8471V84.2336H214.619V62.1899C214.67 61.2096 214.38 60.2419 213.797 59.4515C213.513 59.115 213.155 58.8494 212.75 58.6758C212.345 58.5023 211.906 58.4257 211.466 58.4521C210.986 58.4021 210.501 58.4796 210.061 58.6767C209.62 58.8738 209.239 59.1837 208.957 59.5748C208.444 60.5862 208.208 61.7151 208.272 62.8471V84.2336L201.911 84.2063Z" fill="#F3F2EF"/>
<path d="M239.46 84.2062V39.5437H248.824C250.616 39.496 252.399 39.8176 254.061 40.4884C255.414 41.0536 256.626 41.909 257.612 42.994C258.528 44.0337 259.202 45.2636 259.586 46.5949C259.987 47.974 260.19 49.4032 260.189 50.8394V52.4687C260.206 53.4985 260.11 54.527 259.901 55.5356C259.74 56.3076 259.453 57.0477 259.051 57.7263C258.242 58.9946 257.118 60.0322 255.788 60.7385C257.219 61.3816 258.392 62.4857 259.12 63.8739C259.942 65.6568 260.332 67.6082 260.257 69.5697V72.0753C260.257 76.0094 259.302 79.0216 257.392 81.1118C255.487 83.193 252.443 84.2473 248.262 84.2473L239.46 84.2062ZM245.863 45.568V57.8906H248.755C250.894 57.8906 252.32 57.3566 253.06 56.2887C253.877 54.8738 254.259 53.2499 254.157 51.6198C254.274 50.0192 253.843 48.4264 252.937 47.1015C252.355 46.5399 251.657 46.1136 250.891 45.8533C250.126 45.5929 249.312 45.5048 248.509 45.5954L245.863 45.568ZM245.863 63.5043V77.7848H248.605C249.649 77.8373 250.691 77.645 251.648 77.2234C252.347 76.8843 252.926 76.3396 253.307 75.6626C253.71 74.9282 253.948 74.1154 254.006 73.2802C254.088 72.3491 254.129 71.3496 254.129 70.268C254.137 69.2789 254.073 68.2905 253.937 67.3106C253.846 66.5562 253.589 65.8313 253.183 65.1883C252.761 64.5967 252.168 64.1477 251.483 63.9013C250.575 63.5951 249.618 63.4559 248.659 63.4906L245.863 63.5043Z" fill="#F3F2EF"/>
<path d="M265.837 39.5437H272.24V45.9378H265.837V39.5437ZM265.837 52.4002H272.24V84.2062H265.837V52.4002Z" fill="#F3F2EF"/>
<path d="M276.956 63.0662C276.948 61.8705 277.031 60.676 277.202 59.4927C277.34 58.4805 277.661 57.5016 278.148 56.6037C278.9 55.2188 280.019 54.0676 281.384 53.2766C282.964 52.458 284.717 52.0307 286.497 52.0307C288.277 52.0307 290.031 52.458 291.611 53.2766C292.975 54.0676 294.094 55.2188 294.846 56.6037C295.334 57.5016 295.654 58.4805 295.792 59.4927C295.964 60.676 296.046 61.8705 296.039 63.0662V73.5404C296.046 74.7361 295.964 75.9306 295.792 77.114C295.624 78.3921 295.166 79.6151 294.454 80.6899C293.741 81.7647 292.792 82.663 291.679 83.3163C290.103 84.1461 288.348 84.5797 286.566 84.5797C284.784 84.5797 283.029 84.1461 281.452 83.3163C280.34 82.663 279.391 81.7647 278.678 80.6899C277.965 79.6151 277.508 78.3921 277.339 77.114C277.168 75.9306 277.085 74.7361 277.093 73.5404L276.956 63.0662ZM282.439 48.1969L288.101 39.3521H294.874L286.648 48.1969H282.439ZM283.385 74.5399C283.306 75.5278 283.61 76.5082 284.235 77.2783C284.852 77.8658 285.672 78.1937 286.525 78.1937C287.377 78.1937 288.197 77.8658 288.814 77.2783C289.439 76.5082 289.743 75.5278 289.664 74.5399V62.053C289.738 61.0657 289.434 60.0873 288.814 59.3147C288.194 58.7332 287.375 58.4096 286.525 58.4096C285.674 58.4096 284.855 58.7332 284.235 59.3147C283.615 60.0873 283.312 61.0657 283.385 62.053V74.5399Z" fill="#F3F2EF"/>
<path d="M300.755 52.4004V42.8162H307.157V52.4004H311.119V57.4116H307.157V75.0466C307.139 75.6385 307.213 76.2297 307.376 76.7991C307.501 77.1891 307.758 77.5233 308.103 77.7438C308.475 77.9611 308.893 78.0877 309.323 78.1135C309.803 78.1135 310.406 78.182 311.119 78.182V84.2064H308.473C307.212 84.2466 305.957 84.0082 304.799 83.5081C303.894 83.1105 303.092 82.5109 302.455 81.7555C301.87 81.0454 301.432 80.2264 301.166 79.3458C300.9 78.4992 300.761 77.6179 300.755 76.7307V57.4116H297.547V52.4004H300.755Z" fill="#F3F2EF"/>
<path d="M313.573 39.5437H319.975V45.9378H313.573V39.5437ZM313.573 52.4002H319.975V84.2062H313.573V52.4002Z" fill="#F3F2EF"/>
<path d="M332.026 75.0465C331.999 75.4701 332.06 75.8946 332.207 76.293C332.353 76.6914 332.581 77.0549 332.876 77.3605C333.183 77.6426 333.544 77.8606 333.938 78.0017C334.331 78.1427 334.748 78.2041 335.165 78.182C335.629 78.2449 336.101 78.1784 336.529 77.9899C336.958 77.8014 337.325 77.4983 337.592 77.114C337.969 76.4564 338.211 75.7303 338.305 74.9781H344.721C344.775 76.2234 344.574 77.4666 344.131 78.6319C343.688 79.7971 343.011 80.86 342.143 81.7555C341.291 82.6443 340.264 83.3482 339.127 83.823C337.667 84.3935 336.101 84.6447 334.536 84.5596C332.97 84.4746 331.441 84.0553 330.052 83.33C328.696 82.5277 327.58 81.3793 326.816 80.003C326.331 79.1042 326.01 78.1257 325.87 77.114C325.699 75.9307 325.616 74.7361 325.624 73.5404V63.0663C325.616 61.8706 325.699 60.6761 325.87 59.4927C326.008 58.4805 326.329 57.5017 326.816 56.6037C327.572 55.2218 328.691 54.0715 330.052 53.2767C331.611 52.4041 333.379 51.9733 335.165 52.0307C336.531 52.0115 337.887 52.2628 339.155 52.7701C340.302 53.2474 341.338 53.9558 342.198 54.8512C343.934 56.8931 344.835 59.5138 344.721 62.19H338.305C338.395 61.1652 338.096 60.144 337.468 59.3284C337.17 59.0244 336.81 58.7868 336.413 58.6311C336.017 58.4753 335.591 58.405 335.165 58.4247C334.741 58.4043 334.318 58.4744 333.923 58.6302C333.528 58.786 333.171 59.024 332.876 59.3284C332.257 60.1017 331.954 61.0796 332.026 62.0667V75.0465Z" fill="#F3F2EF"/>
<path d="M360.61 84.2062V80.9338H360.473C359.781 81.9776 358.925 82.9024 357.937 83.6722C356.861 84.3613 355.593 84.692 354.317 84.6169C353.542 84.6153 352.77 84.5 352.028 84.2746C351.203 84.0113 350.445 83.5722 349.807 82.9876C349.024 82.2986 348.43 81.4223 348.08 80.4409C347.596 79.0656 347.373 77.6123 347.422 76.1554C347.396 74.5651 347.543 72.9768 347.86 71.4181C348.103 70.1568 348.665 68.9785 349.492 67.9951C350.318 67.0728 351.379 66.3914 352.563 66.0235C354.171 65.5428 355.847 65.3209 357.525 65.3663H358.211C358.443 65.3438 358.678 65.3438 358.91 65.3663C359.158 65.414 359.411 65.4369 359.664 65.4348C359.98 65.4391 360.296 65.4619 360.61 65.5032V62.1761C360.656 61.2141 360.413 60.2603 359.911 59.4378C359.622 59.0566 359.239 58.7575 358.799 58.5702C358.359 58.3828 357.877 58.3138 357.402 58.3698C356.569 58.37 355.761 58.6551 355.113 59.1776C354.377 59.7761 353.889 60.6244 353.742 61.56H347.531C347.596 58.9978 348.624 56.5538 350.41 54.7141C351.274 53.8592 352.299 53.1844 353.426 52.7288C354.688 52.2362 356.034 51.9943 357.388 52.0168C358.671 52.0075 359.946 52.2158 361.158 52.633C362.302 53.0429 363.348 53.6864 364.229 54.5224C365.107 55.4199 365.793 56.4867 366.244 57.6578C366.769 59.0582 367.024 60.5445 366.998 62.0392V84.1925L360.61 84.2062ZM360.61 70.5144C360.027 70.4024 359.435 70.3382 358.841 70.3227C357.592 70.287 356.36 70.6256 355.304 71.2948C354.775 71.7108 354.362 72.2549 354.102 72.8756C353.843 73.4963 353.747 74.1729 353.824 74.841C353.772 75.8934 354.082 76.9318 354.701 77.7847C354.989 78.1569 355.362 78.4544 355.789 78.6522C356.216 78.85 356.685 78.9422 357.155 78.9211C357.631 78.9462 358.107 78.8631 358.546 78.6781C358.985 78.4932 359.377 78.2111 359.691 77.8532C360.349 76.9916 360.675 75.9226 360.61 74.841V70.5144Z" fill="#F3F2EF"/>
</svg>
