<?xml version="1.0" encoding="utf-8"?>
<!-- Generator: Adobe Illustrator 21.0.0, SVG Export Plug-In . SVG Version: 6.00 Build 0)  -->
<svg version="1.1" id="Layer_1" xmlns="http://www.w3.org/2000/svg" xmlns:xlink="http://www.w3.org/1999/xlink" x="0px" y="0px"
	 viewBox="0 0 94 94" style="enable-background:new 0 0 94 94;" xml:space="preserve">
<style type="text/css">
	.st0{fill:#007B00;}
</style>
<path class="st0" d="M40,12v7h3.2c-0.9,6.3-6.7,12.3-10.2,17.5v16.7c1.1,1,2,2.2,2.6,3.5c0.6,1.3,0.9,2.8,0.9,4.3s-0.3,2.9-0.9,4.3
	c-0.6,1.3-1.5,2.5-2.6,3.5V75c0,1.9,0.7,3.6,2.1,4.9c1.3,1.3,3.1,2.1,4.9,2.1h14c3.9,0,7-3.1,7-7v-6.2c-1.1-1-2-2.2-2.6-3.5
	c-0.6-1.3-0.9-2.8-0.9-4.3s0.3-2.9,0.9-4.3c0.6-1.3,1.5-2.5,2.6-3.5V36.5c-3.5-5.3-9.3-11.2-10.2-17.5H54v-7H40z M47,27.8
	c0.8,1.8,5.4,7,6.7,8.4l0.3,0.3v14c-2.3,3-3.5,6.7-3.5,10.5s1.2,7.5,3.5,10.5V75H40v-3.5c2.3-3,3.5-6.7,3.5-10.5s-1.2-7.5-3.5-10.5
	v-14l0.3-0.3C41.6,34.8,46.2,29.5,47,27.8z"/>
</svg>
