<?xml version="1.0" encoding="utf-8"?>
<!-- Generator: Adobe Illustrator 21.0.0, SVG Export Plug-In . SVG Version: 6.00 Build 0)  -->
<svg version="1.1" id="Layer_1" xmlns="http://www.w3.org/2000/svg" xmlns:xlink="http://www.w3.org/1999/xlink" x="0px" y="0px"
	 viewBox="0 0 94 94" style="enable-background:new 0 0 94 94;" xml:space="preserve">
<style type="text/css">
	.st0{fill:#007B00;}
</style>
<path class="st0" d="M51.3,40.4c0-0.6-0.2-1.1-0.6-1.5c-0.4-0.4-1-0.6-1.5-0.6s-1.1,0.2-1.5,0.6c-0.4,0.4-0.6,1-0.6,1.5v21.9
	c0,0.6,0.2,1.1,0.6,1.5c0.4,0.4,1,0.6,1.5,0.6s1.1-0.2,1.5-0.6c0.4-0.4,0.6-1,0.6-1.5V40.4z M40.3,38.3c0.6,0,1.1,0.2,1.5,0.6
	c0.4,0.4,0.6,1,0.6,1.5v21.9c0,0.6-0.2,1.1-0.6,1.5c-0.4,0.4-1,0.6-1.5,0.6s-1.1-0.2-1.5-0.6c-0.4-0.4-0.6-1-0.6-1.5V40.4
	c0-0.6,0.2-1.1,0.6-1.5C39.2,38.5,39.7,38.3,40.3,38.3z M33.8,40.4c0-0.6-0.2-1.1-0.6-1.5c-0.4-0.4-1-0.6-1.5-0.6s-1.1,0.2-1.5,0.6
	c-0.4,0.4-0.6,1-0.6,1.5v21.9c0,0.6,0.2,1.1,0.6,1.5c0.4,0.4,1,0.6,1.5,0.6s1.1-0.2,1.5-0.6c0.4-0.4,0.6-1,0.6-1.5V40.4z M30.5,16.4
	c-2.6,0-5.1,1-7,2.9s-2.9,4.3-2.9,7v44.8c0,1.7,0.7,3.4,1.9,4.6c1.2,1.2,2.9,1.9,4.6,1.9h26.3c1.7,0,3.4-0.7,4.6-1.9
	c1.2-1.2,1.9-2.9,1.9-4.6v-6.6h3.3c2.6,0,5.1-1,7-2.9c1.8-1.8,2.9-4.3,2.9-7V39.3c0-2.6-1-5.1-2.9-7c-1.8-1.8-4.3-2.9-7-2.9H60v-3.3
	c0-2.6-1-5.1-2.9-7c-1.8-1.8-4.3-2.9-7-2.9H30.5z M60,33.9h3.3c3,0,5.5,2.5,5.5,5.5v15.3c0,3-2.4,5.5-5.5,5.5H60V33.9z M25,26.2
	c0-3,2.5-5.5,5.5-5.5h19.7c3,0,5.5,2.5,5.5,5.5v3.3H25V26.2z M25,33.9h30.6v37.2c0,0.6-0.2,1.1-0.6,1.5c-0.4,0.4-1,0.6-1.5,0.6H27.2
	c-0.6,0-1.1-0.2-1.5-0.6c-0.4-0.4-0.6-1-0.6-1.5V33.9z"/>
</svg>
