<svg width="30" height="30" viewBox="0 0 30 30" fill="none" xmlns="http://www.w3.org/2000/svg">
<path d="M27.1377 5.90001L24.1002 2.86251C23.866 2.6297 23.5492 2.49902 23.2189 2.49902C22.8887 2.49902 22.5719 2.6297 22.3377 2.86251L15.3627 9.83751C15.2468 9.95431 15.1552 10.0928 15.093 10.2451C15.0308 10.3974 14.9992 10.5605 15.0002 10.725V13.75C15.0002 14.0815 15.1319 14.3995 15.3663 14.6339C15.6007 14.8683 15.9187 15 16.2502 15H19.2752C19.4397 15.001 19.6028 14.9694 19.7551 14.9072C19.9074 14.845 20.0459 14.7534 20.1627 14.6375L27.1377 7.66251C27.3705 7.42831 27.5012 7.1115 27.5012 6.78126C27.5012 6.45103 27.3705 6.13422 27.1377 5.90001ZM18.7502 12.5H17.5002V11.25L23.2252 5.52501L24.4752 6.77501L18.7502 12.5ZM23.7502 15C23.4187 15 23.1007 15.1317 22.8663 15.3661C22.6319 15.6006 22.5002 15.9185 22.5002 16.25C22.5002 18.5707 21.5783 20.7963 19.9374 22.4372C18.2964 24.0781 16.0708 25 13.7502 25H6.76267L7.56268 24.2125C7.67984 24.0963 7.77283 23.9581 7.83629 23.8057C7.89975 23.6534 7.93242 23.49 7.93242 23.325C7.93242 23.16 7.89975 22.9966 7.83629 22.8443C7.77283 22.692 7.67984 22.5537 7.56268 22.4375C6.33884 21.2138 5.50538 19.6546 5.16771 17.9572C4.83003 16.2598 5.00331 14.5004 5.66563 12.9014C6.32795 11.3025 7.44956 9.93591 8.88861 8.97445C10.3277 8.013 12.0195 7.49989 13.7502 7.50001C14.0817 7.50001 14.3996 7.36832 14.6341 7.1339C14.8685 6.89948 15.0002 6.58153 15.0002 6.25001C15.0002 5.91849 14.8685 5.60055 14.6341 5.36613C14.3996 5.13171 14.0817 5.00001 13.7502 5.00001C11.6345 5.00697 9.56368 5.61037 7.77541 6.74094C5.98714 7.87151 4.55391 9.48343 3.64026 11.3917C2.72661 13.2999 2.36956 15.4271 2.61011 17.529C2.85065 19.631 3.67904 21.6225 5.00017 23.275L2.86267 25.3625C2.68923 25.5383 2.57173 25.7615 2.52501 26.004C2.4783 26.2465 2.50445 26.4974 2.60017 26.725C2.69395 26.9533 2.8532 27.1487 3.05785 27.2866C3.2625 27.4245 3.50339 27.4988 3.75017 27.5H13.7502C15.2275 27.5 16.6905 27.209 18.0554 26.6437C19.4203 26.0783 20.6605 25.2496 21.7051 24.205C22.7498 23.1603 23.5785 21.9201 24.1438 20.5552C24.7092 19.1903 25.0002 17.7274 25.0002 16.25C25.0002 15.9185 24.8685 15.6006 24.6341 15.3661C24.3996 15.1317 24.0817 15 23.7502 15Z" fill="#7B7878"/>
</svg>
