<svg width="94" height="94" viewBox="0 0 94 94" fill="none" xmlns="http://www.w3.org/2000/svg">
<path d="M49.0163 10.3964C48.4611 9.9019 47.7435 9.62866 47 9.62866C46.2565 9.62866 45.5389 9.9019 44.9837 10.3964C41.2642 13.6989 38.5314 17.9664 37.088 22.7264C35.6446 27.4863 35.5469 32.5529 36.8057 37.365C30.8411 33.8447 23.9299 32.2648 17.0281 32.8436C16.6184 32.8773 16.2193 32.9918 15.854 33.1804C15.4887 33.369 15.1643 33.6281 14.8995 33.9427C14.6348 34.2572 14.4349 34.6211 14.3114 35.0132C14.1879 35.4054 14.1432 35.8181 14.1799 36.2276C14.7627 42.6431 17.7707 49.0116 21.9396 53.9466C20.3035 53.8422 18.662 53.8579 17.0281 53.9936C16.6184 54.0273 16.2193 54.1418 15.854 54.3304C15.4887 54.519 15.1643 54.7781 14.8995 55.0927C14.6348 55.4072 14.4349 55.7711 14.3114 56.1632C14.1879 56.5554 14.1432 56.9681 14.1799 57.3776C14.8555 64.8154 18.2874 71.732 23.8017 76.7688C29.316 81.8057 36.5142 84.599 43.9826 84.6H50.0174C57.4851 84.5991 64.6827 81.8065 70.1969 76.7706C75.7111 71.7347 79.1435 64.8193 79.8201 57.3823C79.8575 56.9724 79.8133 56.5592 79.6901 56.1665C79.5669 55.7738 79.3672 55.4094 79.1023 55.0943C78.8375 54.7793 78.5129 54.5198 78.1473 54.3308C77.7816 54.1419 77.3821 54.0273 76.9719 53.9936C75.3381 53.8579 73.6966 53.8422 72.0604 53.9466C76.2293 49.0116 79.2373 42.6431 79.8201 36.2276C79.8562 35.8182 79.8111 35.4058 79.6874 35.0139C79.5636 34.622 79.3637 34.2583 79.099 33.9439C78.8344 33.6295 78.5103 33.3704 78.1452 33.1816C77.7802 32.9928 77.3815 32.8779 76.9719 32.8436C70.0702 32.2648 63.159 33.8447 57.1943 37.365C58.4532 32.5529 58.3555 27.4863 56.9121 22.7264C55.4686 17.9664 52.7358 13.6989 49.0163 10.3964ZM47 67.8116C42.9807 62.235 37.3473 58.0256 30.8602 55.7514C30.8071 55.7084 30.7523 55.6676 30.6957 55.6292C25.0557 51.7893 20.2805 44.65 19.0726 37.4402C26.1452 37.258 33.0371 39.6875 38.4319 44.2646C42.0039 47.2867 42.9815 50.0456 43.8651 52.5272C44.1847 53.4202 44.4902 54.2803 44.8991 55.0981C45.0945 55.4879 45.3945 55.8157 45.7655 56.0448C46.1366 56.2738 46.564 56.3952 47 56.3952C47.4361 56.3952 47.8635 56.2738 48.2346 56.0448C48.6056 55.8157 48.9056 55.4879 49.1009 55.0981C49.5145 54.2803 49.82 53.4202 50.1349 52.5225C51.0185 50.0503 52.0008 47.2867 55.5681 44.2646C60.9635 39.6847 67.8573 37.2534 74.9321 37.4355C73.7195 44.65 68.949 51.7893 63.3043 55.6292C63.2477 55.6674 63.1928 55.7082 63.1398 55.7514C56.6526 58.0253 51.0192 62.2348 47 67.8116ZM43.9826 79.9C37.9707 79.8989 32.1567 77.751 27.588 73.8433C23.0193 69.9355 19.9962 64.5247 19.0632 58.5855C24.3113 58.4522 29.496 59.7552 34.0576 62.3536C38.6191 64.9521 42.3842 68.7473 44.9461 73.3294C45.1497 73.6956 45.4475 74.0007 45.8086 74.2131C46.1697 74.4255 46.5811 74.5375 47 74.5375C47.419 74.5375 47.8303 74.4255 48.1915 74.2131C48.5526 74.0007 48.8504 73.6956 49.0539 73.3294C51.6159 68.7473 55.3809 64.9521 59.9425 62.3536C64.5041 59.7552 69.6888 58.4522 74.9368 58.5855C74.0039 64.5247 70.9808 69.9355 66.4121 73.8433C61.8434 77.751 56.0294 79.8989 50.0174 79.9H43.9826ZM47 46.1352C42.9201 41.9726 40.6349 36.3763 40.6349 30.5477C40.6349 24.719 42.9201 19.1227 47 14.9601C51.08 19.1227 53.3652 24.719 53.3652 30.5477C53.3652 36.3763 51.08 41.9726 47 46.1352Z" fill="#007B00"/>
</svg>
