<svg width="30" height="30" viewBox="0 0 30 30" fill="none" xmlns="http://www.w3.org/2000/svg">
<path d="M0.736312 10.3796L13.9794 18.0312C14.2031 18.1603 14.4569 18.2283 14.7152 18.2283C14.9735 18.2283 15.2272 18.1603 15.4509 18.0312L28.694 10.3796C28.9164 10.2512 29.1013 10.0669 29.2304 9.84487C29.3595 9.62287 29.4282 9.37096 29.4297 9.11417C29.4308 8.85488 29.3633 8.59993 29.2341 8.37512C29.1049 8.15032 28.9186 7.96364 28.694 7.834L15.4509 0.197138C15.2272 0.0679907 14.9735 0 14.7152 0C14.4569 0 14.2031 0.0679907 13.9794 0.197138L0.736312 7.834C0.511762 7.96364 0.325454 8.15032 0.196256 8.37512C0.0670567 8.59993 -0.00044564 8.85488 0.000583744 9.11417C0.00213373 9.37096 0.070859 9.62287 0.199929 9.84487C0.328999 10.0669 0.513919 10.2512 0.736312 10.3796ZM14.7152 3.22834L25.0154 9.11417L14.7152 15L4.41496 9.11417L14.7152 3.22834ZM27.2225 13.7787L14.7152 20.8858L2.20777 13.7198C2.03983 13.6225 1.8543 13.5594 1.66186 13.5342C1.46943 13.5089 1.27389 13.5219 1.08651 13.5725C0.899138 13.6231 0.723625 13.7103 0.570083 13.829C0.416541 13.9477 0.288004 14.0957 0.191873 14.2643C3.58075e-05 14.6021 -0.0503856 15.0022 0.0516113 15.3771C0.153608 15.752 0.399744 16.0713 0.736312 16.2655L13.9794 23.917C14.2031 24.0462 14.4569 24.1142 14.7152 24.1142C14.9735 24.1142 15.2272 24.0462 15.4509 23.917L28.694 16.2655C29.0306 16.0713 29.2767 15.752 29.3787 15.3771C29.4807 15.0022 29.4303 14.6021 29.2384 14.2643C29.1423 14.0957 29.0138 13.9477 28.8602 13.829C28.7067 13.7103 28.5312 13.6231 28.3438 13.5725C28.1564 13.5219 27.9609 13.5089 27.7685 13.5342C27.576 13.5594 27.3905 13.6225 27.2225 13.7198V13.7787ZM27.2225 19.6645L14.7152 26.7717L2.20777 19.6057C2.03983 19.5084 1.8543 19.4453 1.66186 19.42C1.46943 19.3947 1.27389 19.4077 1.08651 19.4583C0.899138 19.5089 0.723625 19.5961 0.570083 19.7148C0.416541 19.8336 0.288004 19.9815 0.191873 20.1501C3.58075e-05 20.488 -0.0503856 20.888 0.0516113 21.2629C0.153608 21.6378 0.399744 21.9572 0.736312 22.1513L13.9794 29.8029C14.2031 29.932 14.4569 30 14.7152 30C14.9735 30 15.2272 29.932 15.4509 29.8029L28.694 22.1513C29.0306 21.9572 29.2767 21.6378 29.3787 21.2629C29.4807 20.888 29.4303 20.488 29.2384 20.1501C29.1423 19.9815 29.0138 19.8336 28.8602 19.7148C28.7067 19.5961 28.5312 19.5089 28.3438 19.4583C28.1564 19.4077 27.9609 19.3947 27.7685 19.42C27.576 19.4453 27.3905 19.5084 27.2225 19.6057V19.6645Z" fill="currentColor"/>
</svg>
