<svg width="26" height="26" viewBox="0 0 26 26" fill="none" xmlns="http://www.w3.org/2000/svg">
<g clip-path="url(#clip0_316_2974)">
<path d="M26.0001 13.0797C26.0001 5.85491 20.1793 -0.00158691 13.0001 -0.00158691C5.81758 3.80861e-05 -0.00317383 5.85491 -0.00317383 13.0813C-0.00317383 19.6089 4.75158 25.0202 10.9656 26.0017V16.861H7.66683V13.0813H10.9688V10.1969C10.9688 6.91929 12.9107 5.10904 15.8796 5.10904C17.3031 5.10904 18.79 5.36416 18.79 5.36416V8.58166H17.1503C15.5367 8.58166 15.033 9.59079 15.033 10.6259V13.0797H18.6372L18.062 16.8594H15.0313V26C21.2453 25.0185 26.0001 19.6073 26.0001 13.0797Z" fill="#F3F2EF"/>
</g>
<defs>
<clipPath id="clip0_316_2974">
<rect width="26" height="26" fill="white"/>
</clipPath>
</defs>
</svg>
