<svg width="27" height="27" viewBox="0 0 27 27" fill="none" xmlns="http://www.w3.org/2000/svg">
<path d="M13.5 9.98521C11.5647 9.98521 9.98526 11.5646 9.98526 13.5C9.98526 15.4353 11.5647 17.0147 13.5 17.0147C15.4354 17.0147 17.0148 15.4353 17.0148 13.5C17.0148 11.5646 15.4354 9.98521 13.5 9.98521ZM24.0416 13.5C24.0416 12.0445 24.0548 10.6022 23.9731 9.14937C23.8913 7.46187 23.5064 5.96421 22.2724 4.73023C21.0357 3.49361 19.5407 3.11128 17.8532 3.02954C16.3978 2.94781 14.9555 2.96099 13.5026 2.96099C12.0472 2.96099 10.6049 2.94781 9.15206 3.02954C7.46455 3.11128 5.9669 3.49624 4.73291 4.73023C3.49629 5.96685 3.11397 7.46187 3.03223 9.14937C2.95049 10.6048 2.96367 12.0471 2.96367 13.5C2.96367 14.9528 2.95049 16.3977 3.03223 17.8505C3.11397 19.538 3.49893 21.0357 4.73291 22.2697C5.96953 23.5063 7.46455 23.8886 9.15206 23.9704C10.6075 24.0521 12.0498 24.0389 13.5026 24.0389C14.9581 24.0389 16.4004 24.0521 17.8532 23.9704C19.5407 23.8886 21.0384 23.5037 22.2724 22.2697C23.509 21.0331 23.8913 19.538 23.9731 17.8505C24.0574 16.3977 24.0416 14.9554 24.0416 13.5V13.5ZM13.5 18.9079C10.5073 18.9079 8.09209 16.4926 8.09209 13.5C8.09209 10.5073 10.5073 8.09204 13.5 8.09204C16.4927 8.09204 18.9079 10.5073 18.9079 13.5C18.9079 16.4926 16.4927 18.9079 13.5 18.9079ZM19.1294 9.13355C18.4307 9.13355 17.8664 8.56929 17.8664 7.87056C17.8664 7.17183 18.4307 6.60757 19.1294 6.60757C19.8281 6.60757 20.3924 7.17183 20.3924 7.87056C20.3926 8.03648 20.3601 8.2008 20.2967 8.35413C20.2333 8.50746 20.1403 8.64677 20.0229 8.76409C19.9056 8.88141 19.7663 8.97444 19.613 9.03783C19.4596 9.10123 19.2953 9.13376 19.1294 9.13355V9.13355Z" fill="#F3F2EF"/>
</svg>
