<svg width="30" height="30" viewBox="0 0 30 30" fill="none" xmlns="http://www.w3.org/2000/svg">
<path d="M12.5 17.5H17.5C17.8315 17.5 18.1495 17.3683 18.3839 17.1339C18.6183 16.8995 18.75 16.5815 18.75 16.25C18.75 15.9185 18.6183 15.6005 18.3839 15.3661C18.1495 15.1317 17.8315 15 17.5 15H12.5C12.1685 15 11.8505 15.1317 11.6161 15.3661C11.3817 15.6005 11.25 15.9185 11.25 16.25C11.25 16.5815 11.3817 16.8995 11.6161 17.1339C11.8505 17.3683 12.1685 17.5 12.5 17.5ZM23.75 3.75H6.25C5.25544 3.75 4.30161 4.14509 3.59835 4.84835C2.89509 5.55161 2.5 6.50544 2.5 7.5V11.25C2.5 11.5815 2.6317 11.8995 2.86612 12.1339C3.10054 12.3683 3.41848 12.5 3.75 12.5H5V22.5C5 23.4946 5.39509 24.4484 6.09835 25.1517C6.80161 25.8549 7.75544 26.25 8.75 26.25H21.25C22.2446 26.25 23.1984 25.8549 23.9017 25.1517C24.6049 24.4484 25 23.4946 25 22.5V12.5H26.25C26.5815 12.5 26.8995 12.3683 27.1339 12.1339C27.3683 11.8995 27.5 11.5815 27.5 11.25V7.5C27.5 6.50544 27.1049 5.55161 26.4017 4.84835C25.6984 4.14509 24.7446 3.75 23.75 3.75ZM22.5 22.5C22.5 22.8315 22.3683 23.1495 22.1339 23.3839C21.8995 23.6183 21.5815 23.75 21.25 23.75H8.75C8.41848 23.75 8.10054 23.6183 7.86612 23.3839C7.6317 23.1495 7.5 22.8315 7.5 22.5V12.5H22.5V22.5ZM25 10H5V7.5C5 7.16848 5.1317 6.85054 5.36612 6.61612C5.60054 6.3817 5.91848 6.25 6.25 6.25H23.75C24.0815 6.25 24.3995 6.3817 24.6339 6.61612C24.8683 6.85054 25 7.16848 25 7.5V10Z" fill="#7B7878"/>
</svg>
