<?xml version="1.0" encoding="utf-8"?>
<!-- Generator: Adobe Illustrator 21.0.0, SVG Export Plug-In . SVG Version: 6.00 Build 0)  -->
<svg version="1.1" id="Layer_1" xmlns="http://www.w3.org/2000/svg" xmlns:xlink="http://www.w3.org/1999/xlink" x="0px" y="0px"
	 viewBox="0 0 272 462" style="enable-background:new 0 0 272 462;" xml:space="preserve">
<style type="text/css">
	.st0{opacity:0.3;}
	.st1{fill:#F3F2EF;}
</style>
<g class="st0">
	<path class="st1" d="M0.2,288.8c7.7,25.8,25.1,75.4,55.2,117.4c36.5,50.9,80.7,76.8,131.4,76.8c2,0,3.9,0,5.9,0
		c17.3-0.7,34-6.1,48.3-15.8c14.3-9.7,25.7-23.1,32.8-38.9c7.2-15.2,10-32,8-48.7c-2-16.7-8.6-32.4-19.2-45.5
		c-13.2-16.2-29.5-29.6-47.9-39.5l0.9-0.9c2.1-2.2,3.3-5.2,3.3-8.3c0-14.3-0.2-21.7-0.3-23.2c0.3-0.8,0.8-1.6,1.4-2.2
		c7-7.1,13.7-13.9,20.3-20.8c7.3-7.5,14.6-14.9,22.2-22.6c2.1-2.1,3.3-4.9,3.3-7.8v-15.6V182c8.3-3.2,15.3-9.1,19.7-16.8
		c4.5-7.7,6.1-16.7,4.7-25.5c-1.4-8.8-5.8-16.8-12.4-22.8c-6.6-5.9-15.1-9.4-24-9.8c-9-0.5-18,2.2-25.2,7.7
		c-7.2,5.5-12.3,13.3-14.3,22.1c-2.1,9.1-0.9,18.6,3.4,26.9c4.3,8.3,11.4,14.7,20.1,18.2v19.2c0,0.5,0,0.6-0.6,1.2
		c-15.6,15.9-29.8,30.5-43.6,44.6c-1.8,2-2.8,4.5-2.9,7.1c0,1.3,0,2.9,0,4.1v2.9c0,0.6,0,12.3,0,17.3c-0.1,0.2-0.2,0.4-0.3,0.6
		c-9.4,9.7-19.1,19.6-28.7,29.4V190.1c0-35.6,0-129.2,0-147.2c7.8-3,14.4-8.4,18.9-15.5c4.5-7.1,6.5-15.4,5.9-23.7
		c-0.6-8.8-4.2-17.1-10.2-23.5c-6-6.4-14-10.6-22.7-11.8c-17.3-2.4-31.6,5-40.2,20.9c-3.9,7.2-5.2,15.6-3.6,23.7
		c1,6.7,3.8,12.9,8,18.2c4.2,5.2,9.8,9.3,16.1,11.7c0,45.2,0,159.6,0,207v51.7c-7.4-7.6-14.8-15.1-22.1-22.7c0-0.2,0-0.4,0-0.6
		l-0.3-57.8c0-1.5-0.3-3-0.8-4.4c-0.6-1.4-1.4-2.7-2.5-3.7c-14.3-14.5-28.9-29.5-43.4-44.5c0,0,0-0.4,0-0.6c0-16,0-21.1,0-24.8
		c0-4.6,0-7.1,0-26.3c5.1-1.7,9.7-4.4,13.7-8c4-3.6,7.1-8,9.3-12.8c2.2-4.9,3.3-10.2,3.4-15.5c0-5.3-1-10.6-3.1-15.6
		c-2.1-4.9-5.2-9.3-9.1-13c-3.9-3.7-8.5-6.5-13.5-8.3c-5-1.8-10.4-2.5-15.7-2.2c-5.3,0.4-10.5,1.8-15.2,4.3
		c-5.2,2.7-9.7,6.6-13.1,11.3S16,66.8,15,72.6c-1.4,8.6,0,17.3,4,25c4,7.7,10.5,13.8,18.3,17.5v59.4c0,3.1,1.2,6.1,3.3,8.4
		c6.9,7,13.8,14,20.6,21c7.4,7.5,14.7,15,22.2,22.5c0.3,0.3,0.6,0.6,0.8,1c0.2,0.4,0.2,0.8,0.2,1.2c0,11.6,0,15.5,0,17.8
		c0,3,0,3.3,0,13.9c-13.4-1.2-26.8-1.6-47-1.6c-4.8,0-9.7,0-14.7,0c-3.6,0.1-7.1,1-10.3,2.6c-3.2,1.7-5.9,4-8.1,7
		c-2.1,2.9-3.5,6.2-4.1,9.7c-0.6,3.5-0.3,7.1,0.7,10.5L0.2,288.8z M53,95.1c-3.1,0-6.1-0.9-8.7-2.6c-2.6-1.7-4.6-4.1-5.8-7
		c-1.2-2.8-1.5-6-0.9-9c0.6-3,2.1-5.8,4.3-8c2.2-2.2,5-3.7,8-4.3c3-0.6,6.2-0.3,9,0.9s5.3,3.2,7,5.7c1.7,2.6,2.6,5.6,2.6,8.7
		c0,4.1-1.6,8.1-4.6,11C61.1,93.5,57.2,95.1,53,95.1z M237.5,145.6c0-3.1,0.9-6.1,2.6-8.7c1.7-2.6,4.1-4.6,7-5.7
		c2.8-1.2,6-1.5,9-0.9c3,0.6,5.8,2.1,8,4.3c2.2,2.2,3.7,5,4.3,8c0.6,3,0.3,6.2-0.9,9c-1.2,2.8-3.2,5.3-5.7,7
		c-2.6,1.7-5.6,2.6-8.7,2.6c-4.1,0-8.1-1.6-11-4.6C239.1,153.7,237.5,149.7,237.5,145.6z M148.3,22.4c-3.1,0-6.1-0.9-8.7-2.6
		c-2.6-1.7-4.6-4.1-5.7-7c-1.2-2.8-1.5-6-0.9-9s2.1-5.8,4.3-8c2.2-2.2,5-3.7,8-4.3c3-0.6,6.2-0.3,9,0.9c2.8,1.2,5.3,3.2,7,5.7
		c1.7,2.6,2.6,5.6,2.6,8.7c0,4.1-1.6,8.1-4.6,11C156.4,20.8,152.4,22.4,148.3,22.4z M163.9,361.7c0,3.1-0.9,6.1-2.6,8.7
		c-1.7,2.6-4.1,4.6-7,5.7c-2.8,1.2-6,1.5-9,0.9c-3-0.6-5.8-2.1-8-4.3c-2.2-2.2-3.7-5-4.3-8c-0.6-3-0.3-6.2,0.9-9s3.2-5.3,5.7-7
		c2.6-1.7,5.6-2.6,8.7-2.6c2,0,4.1,0.4,6,1.2c1.9,0.8,3.6,1.9,5.1,3.4c1.4,1.4,2.6,3.2,3.4,5.1C163.5,357.6,163.9,359.6,163.9,361.7
		z M28.8,286.8c0.3-0.5,0.8-0.9,1.3-1.1c0.5-0.3,1.1-0.4,1.7-0.4h5c20.7,0,33.8,0.5,47.3,1.7c0.3,2.6,1.5,5,3.3,6.8
		c6.9,7,13.8,14,20.6,21c5.4,5.5,10.8,11,16.3,16.6c-4.7,3.8-8.5,8.6-11.1,14.1c-2.5,5.5-3.7,11.5-3.5,17.6s1.8,12,4.7,17.3
		c2.9,5.3,7,9.9,12,13.3c5,3.4,10.7,5.6,16.7,6.5c6,0.8,12.1,0.2,17.8-1.7c5.7-2,10.9-5.3,15.1-9.6c4.2-4.3,7.4-9.6,9.2-15.4
		c2.1-6.7,2.3-13.9,0.7-20.7s-5.1-13.1-10.1-18.1l19.9-20.2c17.9,8.7,33.7,21.1,46.4,36.5c7.4,9.2,12.1,20.3,13.4,32.1
		c1.4,11.7-0.6,23.6-5.6,34.3c-5.1,11.3-13.2,21-23.5,27.9s-22.3,10.9-34.6,11.4h-4.9C92.3,456.4,44.4,340,28.3,289.9
		c-0.2-0.6-0.2-1.1-0.1-1.7c0.1-0.6,0.3-1.1,0.7-1.6"/>
</g>
</svg>
