<?xml version="1.0" encoding="utf-8"?>
<!-- Generator: Adobe Illustrator 19.0.0, SVG Export Plug-In . SVG Version: 6.00 Build 0)  -->
<svg version="1.1" id="Capa_1" xmlns="http://www.w3.org/2000/svg" xmlns:xlink="http://www.w3.org/1999/xlink" x="0px" y="0px"
	 viewBox="-265.5 376.4 90 90" style="enable-background:new -265.5 376.4 90 90;" xml:space="preserve">
<style type="text/css">
	.st0{fill:#007B00;}
</style>
<path class="st0" d="M-196.3,406.2h-48.5l-1.7-15.2h51.9L-196.3,406.2z M-220.5,448c-3,0-6-1.2-8.1-3.3c-2.2-2.1-3.4-5-3.4-8.1
	c0-7.6,11.5-20.6,11.5-20.6S-209,429-209,436.6c0,3-1.2,5.9-3.4,8.1C-214.5,446.8-217.5,448-220.5,448z M-255,383.3l7.7,69.4
	c0.5,3.8,3.7,6.7,7.7,6.7h38.3c3.8,0,7.2-2.9,7.7-6.7l7.7-69.4H-255z"/>
</svg>
