<svg width="77" height="85" viewBox="0 0 77 85" fill="none" xmlns="http://www.w3.org/2000/svg">
<path d="M65.5356 25.5H11.4217L9.53944 8.5H67.4606L65.5356 25.5ZM38.5 72.25C35.0964 72.25 31.8322 70.9067 29.4255 68.5156C27.0187 66.1245 25.6667 62.8815 25.6667 59.5C25.6667 51 38.5 36.55 38.5 36.55C38.5 36.55 51.3333 51 51.3333 59.5C51.3333 62.8815 49.9813 66.1245 47.5745 68.5156C45.1678 70.9067 41.9036 72.25 38.5 72.25ZM0 0L8.55556 77.4775C9.11167 81.7275 12.705 85 17.1111 85H59.8889C64.1667 85 67.8883 81.7275 68.4444 77.4775L77 0H0Z" fill="#007B00"/>
</svg>
