<?xml version="1.0" encoding="utf-8"?>
<!-- Generator: Adobe Illustrator 21.0.0, SVG Export Plug-In . SVG Version: 6.00 Build 0)  -->
<svg version="1.1" id="Layer_1" xmlns="http://www.w3.org/2000/svg" xmlns:xlink="http://www.w3.org/1999/xlink" x="0px" y="0px"
	 viewBox="0 0 268 83" style="enable-background:new 0 0 268 83;" xml:space="preserve">
<style type="text/css">
	.st0{fill:#FFFFFF;}
</style>
<path class="st0" d="M0,51.4c1.9,6.7,4.9,13.1,8.8,18.8c5.8,8.2,12.9,12.3,21.1,12.3h1c2.8-0.1,5.4-1,7.7-2.5
	c2.3-1.5,4.1-3.7,5.3-6.2c1.2-2.4,1.6-5.1,1.3-7.8c-0.3-2.7-1.4-5.2-3.1-7.3c-2.1-2.6-4.7-4.7-7.7-6.3l0.1-0.1
	c0.4-0.4,0.5-0.8,0.5-1.3c0-2.3,0-3.5,0-3.7c0-0.1,0.1-0.2,0.2-0.3l3.3-3.3l3.6-3.6c0.2-0.2,0.3-0.4,0.4-0.6
	c0.1-0.2,0.1-0.4,0.1-0.7v-2.5v-1.8c1.3-0.5,2.4-1.5,3.1-2.7c0.7-1.2,1-2.7,0.7-4.1c-0.2-1.4-0.9-2.7-2-3.6c-1.1-1-2.4-1.5-3.8-1.6
	c-1.5-0.1-2.9,0.4-4,1.2c-1.2,0.9-2,2.1-2.3,3.5c-0.3,1.5-0.1,3,0.5,4.3c0.7,1.3,1.8,2.4,3.2,2.9v3.1c0,0.1,0,0.1-0.1,0.2
	c-2.5,2.5-4.8,4.9-7,7.1c-0.3,0.3-0.4,0.7-0.5,1.1v0.7V47c0,0.1,0,2,0,2.8c0,0,0,0.1,0,0.1c-1.5,1.6-3.1,3.1-4.6,4.7V12
	c1.3-0.5,2.4-1.4,3.1-2.6c0.7-1.2,1-2.5,0.9-3.9c-0.1-1.4-0.7-2.6-1.7-3.6c-1-1-2.2-1.6-3.6-1.8c-1.3-0.2-2.6,0-3.8,0.6
	c-1.2,0.6-2.1,1.6-2.7,2.7c-0.6,1.2-0.8,2.5-0.6,3.8c0.2,1.1,0.6,2.1,1.3,2.9c0.7,0.8,1.6,1.5,2.6,1.9c0,7.2,0,25.6,0,33.2v8.3
	c-1.2-1.2-2.4-2.4-3.5-3.6c0,0,0-0.1,0-0.1v-9.3c0-0.2,0-0.5-0.1-0.7c-0.1-0.2-0.2-0.4-0.4-0.6c-2.3-2.3-4.6-4.7-7-7.1V32v-4
	c0-0.7,0-1.1,0-4.2c1-0.3,2-1,2.7-1.8c0.7-0.8,1.2-1.8,1.4-2.9c0.2-1.1,0.1-2.2-0.2-3.2c-0.4-1-1-2-1.8-2.7
	c-0.8-0.7-1.8-1.2-2.9-1.4c-1.1-0.2-2.2-0.1-3.2,0.2c-1,0.4-2,1-2.7,1.8c-0.7,0.8-1.2,1.8-1.4,2.9c-0.2,1.4,0,2.8,0.7,4
	C3.8,22,4.8,23,6,23.6v9.5c0,0.5,0.2,1,0.5,1.3c1.1,1.1,2.2,2.2,3.3,3.4c1.1,1.1,2.4,2.4,3.6,3.6c0.1,0,0.1,0.1,0.1,0.2
	c0,0.1,0,0.1,0,0.2c0,1.9,0,2.5,0,2.9v2.2c-2.1-0.2-4.3-0.3-7.5-0.3H3.7c-0.6,0-1.1,0.2-1.7,0.4c-0.5,0.3-1,0.6-1.3,1.1
	c-0.3,0.5-0.6,1-0.7,1.6C0,50.2,0,50.8,0.2,51.4L0,51.4z M8.5,20.4c-0.5,0-1-0.1-1.4-0.4c-0.4-0.3-0.7-0.7-0.9-1.1
	c-0.2-0.5-0.2-1-0.1-1.4c0.1-0.5,0.3-0.9,0.7-1.3c0.3-0.3,0.8-0.6,1.3-0.7c0.5-0.1,1,0,1.4,0.1c0.5,0.2,0.8,0.5,1.1,0.9
	c0.3,0.4,0.4,0.9,0.4,1.4c0,0.3-0.1,0.7-0.2,1c-0.1,0.3-0.3,0.6-0.5,0.8c-0.2,0.2-0.5,0.4-0.8,0.5C9.2,20.3,8.9,20.4,8.5,20.4z
	 M38.1,28.5c0-0.5,0.1-1,0.4-1.4c0.3-0.4,0.7-0.7,1.1-0.9c0.5-0.2,1-0.2,1.4-0.1c0.5,0.1,0.9,0.3,1.3,0.7c0.3,0.3,0.6,0.8,0.7,1.3
	c0.1,0.5,0,1-0.1,1.4c-0.2,0.5-0.5,0.8-0.9,1.1c-0.4,0.3-0.9,0.4-1.4,0.4c-0.7,0-1.3-0.3-1.8-0.7C38.4,29.8,38.1,29.1,38.1,28.5
	L38.1,28.5z M24,8.7c-0.5,0-1-0.1-1.4-0.4c-0.4-0.3-0.7-0.7-0.9-1.1c-0.2-0.5-0.2-1-0.1-1.4c0.1-0.5,0.3-0.9,0.7-1.3
	c0.3-0.3,0.8-0.6,1.3-0.7c0.5-0.1,1,0,1.4,0.1c0.5,0.2,0.8,0.5,1.1,0.9s0.4,0.9,0.4,1.4c0,0.7-0.3,1.3-0.7,1.8
	C25.3,8.4,24.6,8.7,24,8.7L24,8.7z M26.5,63.1c0,0.5-0.1,1-0.4,1.4c-0.3,0.4-0.7,0.7-1.1,0.9c-0.5,0.2-1,0.2-1.4,0.1
	c-0.5-0.1-0.9-0.3-1.3-0.7c-0.4-0.3-0.6-0.8-0.7-1.3c-0.1-0.5,0-1,0.1-1.4c0.2-0.5,0.5-0.8,0.9-1.1c0.4-0.3,0.9-0.4,1.4-0.4
	c0.7,0,1.3,0.3,1.8,0.7C26.2,61.8,26.5,62.4,26.5,63.1L26.5,63.1z M4.8,51.1C4.9,51,4.9,50.9,5,50.9c0.1,0,0.2-0.1,0.3-0.1h0.8
	c3.3,0,5.4,0.1,7.6,0.3c0.1,0.4,0.2,0.8,0.5,1.1c1.1,1.1,2.2,2.3,3.3,3.4l2.6,2.7c-0.8,0.6-1.4,1.5-1.8,2.4c-0.4,0.9-0.6,2-0.5,3
	c0.1,1,0.4,2,1,2.9c0.6,0.9,1.3,1.6,2.2,2c1.3,0.7,2.8,0.9,4.3,0.6c1.5-0.3,2.7-1.2,3.6-2.3c0.9-1.2,1.3-2.7,1.2-4.1
	c-0.1-1.5-0.7-2.9-1.8-3.9c1.1-1.1,2.1-2.2,3.2-3.2c2.9,1.4,5.4,3.4,7.5,5.8c1.2,1.5,2,3.3,2.2,5.2c0.2,1.9-0.1,3.8-0.9,5.5
	c-0.8,1.8-2.1,3.4-3.8,4.5c-1.6,1.1-3.6,1.7-5.6,1.8h-0.8C15,78.3,7.3,59.6,4.7,51.6c0-0.1,0-0.2,0-0.3C4.7,51.2,4.7,51.1,4.8,51.1"
	/>
<path class="st0" d="M52.5,61.5l7.3-32.6h3.9l7.3,32.6h-4.7l-1.4-7h-6.4l-1.4,7H52.5z M64,50.1l-2.3-11.8h-0.1l-2.3,11.8H64z"/>
<path class="st0" d="M77.6,64.2c0,0.6,0.3,1.1,0.7,1.6c0.2,0.2,0.5,0.4,0.8,0.6c0.3,0.1,0.7,0.2,1,0.2c0.3,0,0.6,0,0.9-0.1
	s0.5-0.3,0.7-0.6c0.4-0.5,0.5-1.2,0.5-1.8v-4.6h-0.1c-0.5,0.7-1.1,1.3-1.9,1.8c-0.8,0.4-1.6,0.6-2.5,0.6c-0.8,0.1-1.6-0.1-2.4-0.5
	c-0.7-0.4-1.3-1-1.7-1.7c-0.3-0.6-0.5-1.3-0.6-1.9c-0.1-1-0.2-2-0.2-3.1v-8.8c0-1.2,0-2.5,0.1-3.7c0.1-0.7,0.3-1.4,0.7-2
	c0.4-0.6,0.9-1.1,1.5-1.5c0.8-0.4,1.7-0.7,2.6-0.6c0.5,0,1,0.1,1.5,0.2c0.4,0.1,0.8,0.3,1.1,0.5c0.3,0.2,0.6,0.5,0.9,0.8l0.9,0.9
	v-2.1h4.7v26.1c0,0.8-0.1,1.6-0.4,2.4c-0.3,0.8-0.7,1.6-1.3,2.2c-0.6,0.7-1.4,1.2-2.2,1.6c-1,0.4-2.1,0.7-3.2,0.6
	c-0.7,0-1.5-0.1-2.2-0.3c-0.8-0.2-1.5-0.6-2.1-1.2c-0.7-0.6-1.3-1.3-1.7-2.1c-0.5-1.1-0.9-2.2-0.9-3.4H77.6z M77.6,54.4
	c0,0.7,0.2,1.3,0.5,1.9c0.2,0.3,0.5,0.5,0.8,0.7c0.3,0.1,0.7,0.2,1,0.2c0.3,0,0.6-0.1,0.9-0.2c0.3-0.1,0.5-0.3,0.8-0.5
	c0.4-0.5,0.7-1.1,0.7-1.8v-9c0-0.7-0.2-1.5-0.6-2.1c-0.2-0.3-0.5-0.5-0.8-0.6c-0.3-0.1-0.6-0.2-0.9-0.2c-0.3,0-0.7,0-1,0.2
	c-0.3,0.2-0.6,0.4-0.8,0.7c-0.4,0.7-0.6,1.5-0.6,2.3V54.4z"/>
<path class="st0" d="M90.8,61.5V38.3h4.7v2.5c0.8-0.8,1.8-1.4,2.8-2c1.1-0.5,2.2-0.8,3.4-0.7V43c-0.5-0.2-0.9-0.3-1.4-0.3
	c-0.5,0-1.1,0.1-1.6,0.3c-0.6,0.2-1.1,0.5-1.5,0.9c-0.5,0.4-0.9,0.9-1.2,1.5c-0.3,0.8-0.5,1.6-0.5,2.4v13.8L90.8,61.5z"/>
<path class="st0" d="M102.8,46.1c0-0.9,0.1-1.7,0.2-2.6c0.1-0.9,0.5-1.8,1-2.6c0.5-0.8,1.2-1.4,2-1.9c1.2-0.6,2.4-0.9,3.7-0.9
	s2.6,0.3,3.7,0.9c1,0.6,1.8,1.4,2.4,2.4c0.4,0.7,0.6,1.4,0.7,2.1c0.1,0.9,0.2,1.7,0.2,2.6v7.6c0,0.9-0.1,1.7-0.2,2.6
	c-0.1,0.7-0.3,1.5-0.7,2.1c-0.6,1-1.4,1.8-2.4,2.4c-1.2,0.6-2.4,0.9-3.7,0.9s-2.6-0.3-3.7-0.9c-0.8-0.5-1.5-1.1-2-1.9
	c-0.5-0.8-0.9-1.7-1-2.6c-0.1-0.9-0.2-1.7-0.2-2.6V46.1z M107.5,54.4c-0.1,0.7,0.2,1.4,0.6,2c0.4,0.4,1,0.7,1.7,0.7
	c0.6,0,1.2-0.2,1.7-0.7c0.5-0.6,0.7-1.3,0.6-2v-9.1c0.1-0.7-0.2-1.4-0.6-2c-0.5-0.4-1.1-0.7-1.7-0.7c-0.6,0-1.2,0.2-1.7,0.7
	c-0.5,0.6-0.7,1.3-0.6,2V54.4z"/>
<path class="st0" d="M135.6,38.3h-4.7v-1c0-1-0.2-1.9-0.8-2.8c-0.3-0.4-0.7-0.7-1.1-0.9c-0.4-0.2-0.9-0.3-1.4-0.2
	c-0.5,0-1,0.1-1.4,0.3c-0.4,0.2-0.8,0.6-1.1,1c-0.3,0.4-0.4,0.9-0.5,1.4c-0.1,0.5-0.1,1.1-0.1,1.6c0,0.5,0,1.1,0.1,1.6
	c0,0.4,0.2,0.8,0.3,1.1c0.2,0.4,0.5,0.6,0.8,0.9c0.4,0.3,0.9,0.5,1.4,0.7l3.6,1.4c0.9,0.3,1.8,0.8,2.5,1.4c0.6,0.5,1.1,1.1,1.5,1.9
	c0.3,0.8,0.6,1.6,0.7,2.5c0.1,1.1,0.2,2.1,0.2,3.2c0,1.3-0.1,2.6-0.4,3.8c-0.2,1.1-0.7,2.1-1.3,3c-0.7,0.9-1.5,1.6-2.5,2
	c-1.2,0.5-2.5,0.8-3.8,0.7c-1.1,0-2.2-0.2-3.2-0.6c-0.9-0.4-1.8-0.9-2.5-1.7c-0.7-0.7-1.3-1.5-1.7-2.5c-0.4-0.9-0.6-2-0.6-3v-1.7
	h4.7v1.5c0,0.8,0.3,1.6,0.8,2.3c0.3,0.4,0.7,0.6,1.2,0.8c0.4,0.2,0.9,0.2,1.4,0.2c0.6,0,1.3-0.1,1.9-0.3c0.4-0.2,0.8-0.6,1-1
	c0.3-0.5,0.4-1,0.4-1.5c0-0.6,0.1-1.3,0.1-2c0-0.7,0-1.4-0.1-2.1c0-0.5-0.2-0.9-0.4-1.3c-0.2-0.3-0.5-0.6-0.9-0.8
	c-0.5-0.3-0.9-0.5-1.4-0.7l-3.3-1.4c-1.7-0.6-3.1-1.7-4-3.3c-0.7-1.6-1.1-3.4-1-5.1c0-1.2,0.2-2.4,0.5-3.5c0.3-1,0.8-2,1.5-2.8
	c0.7-0.8,1.5-1.5,2.4-1.9c1.1-0.5,2.3-0.7,3.6-0.7c1.1,0,2.2,0.2,3.2,0.6c0.9,0.4,1.8,1,2.5,1.7c0.7,0.7,1.2,1.4,1.6,2.3
	c0.4,0.9,0.6,1.8,0.6,2.7L135.6,38.3z"/>
<path class="st0" d="M138.8,28.9h4.7v4.7h-4.7V28.9z M138.8,38.3h4.7v23.2h-4.7V38.3z"/>
<path class="st0" d="M147.3,61.5V38.3h4.7v2.3h0.1c0.5-0.7,1.1-1.3,1.8-1.8c0.8-0.5,1.7-0.8,2.6-0.7c0.9,0,1.8,0.2,2.5,0.7
	c0.6,0.4,1.2,1,1.6,1.6c0.6-0.6,1.2-1.2,1.9-1.7c0.9-0.5,1.9-0.7,2.9-0.7c0.6,0,1.2,0.1,1.8,0.3c0.6,0.2,1.2,0.5,1.7,1
	c0.5,0.5,0.9,1.1,1.2,1.8c0.3,0.8,0.5,1.7,0.5,2.6v17.8h-4.8V45.4c0-0.7-0.2-1.4-0.6-2c-0.2-0.2-0.5-0.4-0.8-0.6
	c-0.3-0.1-0.6-0.2-0.9-0.2c-0.4,0-0.7,0-1,0.2c-0.3,0.1-0.6,0.4-0.8,0.7c-0.4,0.7-0.5,1.6-0.5,2.4v15.6h-4.7V45.4
	c0-0.7-0.2-1.4-0.6-2c-0.2-0.2-0.5-0.4-0.8-0.6c-0.3-0.1-0.6-0.2-0.9-0.2c-0.4,0-0.7,0-1,0.2c-0.3,0.1-0.6,0.4-0.8,0.7
	c-0.4,0.7-0.5,1.6-0.5,2.4v15.6L147.3,61.5z"/>
<path class="st0" d="M174.7,61.5V28.9h6.8c1.3,0,2.6,0.2,3.8,0.7c1,0.4,1.9,1,2.6,1.8c0.7,0.8,1.2,1.7,1.4,2.6
	c0.3,1,0.4,2.1,0.4,3.1v1.2c0,0.8-0.1,1.5-0.2,2.2c-0.1,0.6-0.3,1.1-0.6,1.6c-0.6,0.9-1.4,1.7-2.4,2.2c1,0.5,1.9,1.3,2.4,2.3
	c0.6,1.3,0.9,2.7,0.8,4.2v1.8c0,2.9-0.7,5.1-2.1,6.6c-1.4,1.5-3.6,2.3-6.7,2.3L174.7,61.5z M179.3,33.3v9h2.1c1.6,0,2.6-0.4,3.1-1.2
	c0.6-1,0.9-2.2,0.8-3.4c0.1-1.2-0.2-2.3-0.9-3.3c-0.4-0.4-0.9-0.7-1.5-0.9c-0.6-0.2-1.2-0.3-1.7-0.2L179.3,33.3z M179.3,46.4v10.4h2
	c0.8,0,1.5-0.1,2.2-0.4c0.5-0.2,0.9-0.6,1.2-1.1c0.3-0.5,0.5-1.1,0.5-1.7c0.1-0.7,0.1-1.4,0.1-2.2c0-0.7,0-1.4-0.1-2.2
	c-0.1-0.6-0.3-1.1-0.6-1.5c-0.3-0.4-0.7-0.8-1.2-0.9c-0.7-0.2-1.4-0.3-2.1-0.3L179.3,46.4z"/>
<path class="st0" d="M193.9,28.9h4.7v4.7h-4.7V28.9z M193.9,38.3h4.7v23.2h-4.7V38.3z"/>
<path class="st0" d="M202,46.1c0-0.9,0.1-1.7,0.2-2.6c0.1-0.7,0.3-1.5,0.7-2.1c0.5-1,1.4-1.9,2.4-2.4c1.2-0.6,2.4-0.9,3.7-0.9
	c1.3,0,2.6,0.3,3.7,0.9c1,0.6,1.8,1.4,2.4,2.4c0.4,0.7,0.6,1.4,0.7,2.1c0.1,0.9,0.2,1.7,0.2,2.6v7.7c0,0.9-0.1,1.7-0.2,2.6
	c-0.1,0.9-0.5,1.8-1,2.6c-0.5,0.8-1.2,1.4-2,1.9c-1.1,0.6-2.4,0.9-3.7,0.9s-2.6-0.3-3.7-0.9c-0.8-0.5-1.5-1.1-2-1.9
	c-0.5-0.8-0.9-1.7-1-2.6c-0.1-0.9-0.2-1.7-0.2-2.6L202,46.1z M206,35.2l4.1-6.5h4.9l-6,6.5H206z M206.7,54.4c-0.1,0.7,0.2,1.4,0.6,2
	c0.4,0.4,1,0.7,1.7,0.7s1.2-0.2,1.7-0.7c0.5-0.6,0.7-1.3,0.6-2v-9.1c0.1-0.7-0.2-1.4-0.6-2c-0.5-0.4-1.1-0.7-1.7-0.7
	c-0.6,0-1.2,0.2-1.7,0.7c-0.5,0.6-0.7,1.3-0.6,2V54.4z"/>
<path class="st0" d="M219.4,38.3v-7h4.7v7h2.9v3.7h-2.9v12.9c0,0.4,0,0.9,0.2,1.3c0.1,0.3,0.3,0.5,0.5,0.7c0.3,0.2,0.6,0.3,0.9,0.3
	c0.3,0,0.8,0.1,1.3,0.1v4.4H225c-0.9,0-1.8-0.1-2.7-0.5c-0.7-0.3-1.2-0.7-1.7-1.3c-0.4-0.5-0.7-1.1-0.9-1.8
	c-0.2-0.6-0.3-1.3-0.3-1.9V41.9H217v-3.7H219.4z"/>
<path class="st0" d="M228.7,28.9h4.7v4.7h-4.7V28.9z M228.7,38.3h4.7v23.2h-4.7V38.3z"/>
<path class="st0" d="M242.2,54.8c0,0.3,0,0.6,0.1,0.9c0.1,0.3,0.3,0.6,0.5,0.8c0.2,0.2,0.5,0.4,0.8,0.5c0.3,0.1,0.6,0.1,0.9,0.1
	c0.3,0,0.7,0,1-0.1c0.3-0.1,0.6-0.4,0.8-0.6c0.3-0.5,0.5-1,0.5-1.6h4.7c0,0.9-0.1,1.8-0.4,2.7c-0.3,0.9-0.8,1.6-1.4,2.3
	c-0.6,0.6-1.4,1.2-2.2,1.5c-1.1,0.4-2.2,0.6-3.3,0.5s-2.3-0.4-3.3-0.9c-1-0.6-1.8-1.4-2.4-2.4c-0.4-0.7-0.6-1.4-0.7-2.1
	c-0.1-0.9-0.2-1.7-0.2-2.6v-7.6c0-0.9,0.1-1.7,0.2-2.6c0.1-0.7,0.3-1.5,0.7-2.1c0.6-1,1.4-1.8,2.4-2.4c1.1-0.6,2.4-1,3.7-0.9
	c1,0,2,0.2,2.9,0.5c0.8,0.3,1.6,0.9,2.2,1.5c1.3,1.5,1.9,3.4,1.8,5.4h-4.7c0.1-0.7-0.2-1.5-0.6-2.1c-0.2-0.2-0.5-0.4-0.8-0.5
	c-0.3-0.1-0.6-0.2-0.9-0.2c-0.3,0-0.6,0-0.9,0.2c-0.3,0.1-0.5,0.3-0.8,0.5c-0.5,0.6-0.7,1.3-0.6,2V54.8z"/>
<path class="st0" d="M263,61.5v-2.4h-0.1c-0.5,0.8-1.1,1.4-1.9,2c-0.8,0.5-1.7,0.7-2.6,0.7c-0.6,0-1.1-0.1-1.7-0.3
	c-0.6-0.2-1.2-0.5-1.6-0.9c-0.6-0.5-1-1.1-1.3-1.9c-0.4-1-0.5-2.1-0.5-3.1c0-1.2,0.1-2.3,0.3-3.5c0.2-0.9,0.6-1.8,1.2-2.5
	c0.6-0.7,1.4-1.2,2.2-1.4c1.2-0.4,2.4-0.5,3.6-0.5h0.5c0.2,0,0.3,0,0.5,0c0.2,0,0.4,0.1,0.6,0.1c0.2,0,0.5,0,0.7,0v-2.4
	c0-0.7-0.1-1.4-0.5-2c-0.2-0.3-0.5-0.5-0.8-0.6c-0.3-0.1-0.7-0.2-1-0.1c-0.6,0-1.2,0.2-1.7,0.6c-0.5,0.4-0.9,1.1-1,1.7h-4.5
	c0-1.9,0.8-3.7,2.1-5c0.6-0.6,1.4-1.1,2.2-1.5c0.9-0.4,1.9-0.5,2.9-0.5c0.9,0,1.9,0.1,2.8,0.5c0.8,0.3,1.6,0.8,2.2,1.4
	c0.6,0.7,1.1,1.4,1.5,2.3c0.4,1,0.6,2.1,0.6,3.2v16.2L263,61.5z M263,51.5c-0.4-0.1-0.9-0.1-1.3-0.1c-0.9,0-1.8,0.2-2.6,0.7
	c-0.4,0.3-0.7,0.7-0.9,1.2c-0.2,0.5-0.3,0.9-0.2,1.4c0,0.8,0.2,1.5,0.6,2.1c0.2,0.3,0.5,0.5,0.8,0.6c0.3,0.1,0.7,0.2,1,0.2
	c0.3,0,0.7,0,1-0.2c0.3-0.1,0.6-0.3,0.8-0.6c0.5-0.6,0.7-1.4,0.7-2.2V51.5z"/>
</svg>
