<svg width="23" height="24" viewBox="0 0 23 24" fill="none" xmlns="http://www.w3.org/2000/svg">
<path d="M6.71387 19.6665C6.71387 19.6665 6.71387 22.9998 11.0659 22.9998C15.418 22.9998 15.418 19.6665 15.418 19.6665" stroke="#7B7878" stroke-width="2" stroke-linejoin="round"/>
<path d="M3.8515 8.23098L1.61936 17.1828C1.30468 18.4448 2.2593 19.6667 3.55994 19.6667H6.71429H15.2857H18.4401C19.7407 19.6667 20.6953 18.4448 20.3806 17.1828L18.1485 8.23098C18.1447 8.21588 18.1414 8.20283 18.137 8.18791C18.0325 7.83402 16.5051 3 11 3C5.49489 3 3.96747 7.83401 3.86303 8.18791C3.85862 8.20283 3.85526 8.21588 3.8515 8.23098Z" stroke="#7B7878" stroke-width="2" stroke-linejoin="round"/>
<circle cx="18" cy="5" r="5" fill="#007B00"/>
</svg>
