<?xml version="1.0" encoding="utf-8"?>
<!-- Generator: Adobe Illustrator 21.0.0, SVG Export Plug-In . SVG Version: 6.00 Build 0)  -->
<svg version="1.1" id="Layer_1" xmlns="http://www.w3.org/2000/svg" xmlns:xlink="http://www.w3.org/1999/xlink" x="0px" y="0px"
	 viewBox="0 0 655 436" style="enable-background:new 0 0 655 436;" xml:space="preserve">
<style type="text/css">
	.st0{fill:#007B00;}
	.st1{opacity:0.9;fill:#FFFFFF;enable-background:new    ;}
	.st2{fill:#15247C;}
	.st3{fill:#00BC7D;}
	.st4{opacity:0.2;fill:#007B00;enable-background:new    ;}
	.st5{fill:#FFFFFF;}
	.st6{opacity:0.1;enable-background:new    ;}
	.st7{fill:#3562FF;}
	.st8{opacity:0.6;fill:#007B00;enable-background:new    ;}
	.st9{opacity:0.6;fill:#FFFFFF;enable-background:new    ;}
	.st10{opacity:0.3;fill:#007B00;enable-background:new    ;}
	.st11{opacity:0.6;}
	.st12{opacity:0.7;fill:#FFFFFF;enable-background:new    ;}
	.st13{opacity:0.4;fill:#FFFFFF;enable-background:new    ;}
	.st14{opacity:0.2;fill:#FFFFFF;enable-background:new    ;}
	.st15{opacity:0.15;enable-background:new    ;}
	.st16{fill:#FC9D9D;}
	.st17{opacity:0.15;}
	.st18{opacity:0.6;enable-background:new    ;}
	.st19{opacity:0.2;}
	.st20{opacity:0.2;enable-background:new    ;}
	.st21{opacity:0.3;enable-background:new    ;}
	.st22{fill:#007B00;fill-opacity:0.6;}
</style>
<path class="st0" d="M498.3,374.6H25.8l-18-155.7c-0.5-4.4,0.1-8.9,1.8-13l61-146.7c1.8-4.3,4.7-8,8.3-10.8
	c3.7-2.8,8.1-4.5,12.6-5.1L391.1,8.6c4.6-0.5,9.2,0.2,13.4,2c4.2,1.8,7.8,4.7,10.6,8.4l97,132.2c3.7,5.1,5.5,11.4,4.9,17.7
	L498.3,374.6z"/>
<path class="st1" d="M497.8,374.1H25.2l-18-155.7c-0.5-4.4,0.1-8.9,1.8-13L70,58.8c1.8-4.3,4.7-8,8.3-10.8C82,45.3,86.4,43.5,91,43
	L390.6,8.2c4.6-0.5,9.2,0.2,13.4,2c4.2,1.8,7.8,4.7,10.6,8.4l97,132.2c3.7,5.1,5.5,11.4,4.9,17.7L497.8,374.1z"/>
<path class="st2" d="M390.5,264.2h-0.9v-1.9h0.9V264.2z M390.5,260.1h-0.9v-2.3h0.9V260.1z M390.5,255.5h-0.9v-2.3h0.9V255.5z
	 M390.5,250.9h-0.9v-2.3h0.9V250.9z M390.5,246.4h-0.9v-2.3h0.9V246.4z M390.5,241.8h-0.9v-2.3h0.9V241.8z M390.5,237.2h-0.9v-2.3
	h0.9V237.2z M390.5,232.6h-0.9v-2.3h0.9V232.6z M390.5,228.1h-0.9v-2.3h0.9V228.1z M390.5,223.5h-0.9v-2.3h0.9V223.5z M390.5,218.9
	h-0.9v-2.3h0.9V218.9z M390.5,214.4h-0.9v-2.3h0.9V214.4z M390.5,209.8h-0.9v-2.3h0.9V209.8z M390.5,205.2h-0.9v-2.3h0.9V205.2z
	 M390.5,200.6h-0.9v-2.3h0.9V200.6z M390.5,196.1h-0.9v-2.3h0.9V196.1z M390.5,191.5h-0.9v-2.3h0.9V191.5z M390.5,186.9h-0.9v-2.3
	h0.9V186.9z M390.5,182.3h-0.9v-2.3h0.9V182.3z M390.5,177.8h-0.9v-2.3h0.9V177.8z M390.5,173.2h-0.9v-2.3h0.9V173.2z M390.5,168.6
	h-0.9v-2.3h0.9V168.6z M390.5,164.1h-0.9v-2.3h0.9V164.1z M389.6,159.5c-0.1-0.7-0.4-1.3-0.8-1.9l0.7-0.6c0.5,0.7,0.9,1.4,1,2.3
	L389.6,159.5z M387.2,156.5c-0.4-0.2-0.9-0.2-1.4-0.2h-0.7v-0.9h0.7c0.6,0,1.1,0.1,1.7,0.3L387.2,156.5z M382.8,156.2h-2.3v-0.9h2.3
	V156.2z M378.2,156.2h-2.3v-0.9h2.3V156.2z M373.6,156.2h-2.3v-0.9h2.3L373.6,156.2z M369.1,156.2h-2.3v-0.9h2.3V156.2z
	 M364.5,156.2h-2.3v-0.9h2.3V156.2z M359.9,156.2h-2.3v-0.9h2.3V156.2z M355.4,156.2h-2.3v-0.9h2.3V156.2z M350.8,156.2h-2.3v-0.9
	h2.3V156.2z M346.2,156.2h-2.3v-0.9h2.3L346.2,156.2z M341.6,156.2h-2.3v-0.9h2.3V156.2z M337.1,156.2h-2.3v-0.9h2.3V156.2z
	 M332.5,156.2h-2.3v-0.9h2.3L332.5,156.2z M327.9,156.2h-2.3v-0.9h2.3V156.2z M323.3,156.2h-2.3v-0.9h2.3V156.2z M318.8,156.2h-2.3
	v-0.9h2.3V156.2z M314.2,156.2h-2.3v-0.9h2.3V156.2z M309.6,156.2h-2.3v-0.9h2.3V156.2z M305,156.2h-2.3v-0.9h2.3L305,156.2z
	 M300.5,156.2h-2.3v-0.9h2.3V156.2z M295.9,156.2h-2.3v-0.9h2.3V156.2z M291.3,156.2H289v-0.9h2.3L291.3,156.2z M286.8,156.2h-2.3
	v-0.9h2.3V156.2z M282.2,156.2h-2.3v-0.9h2.3V156.2z M277.6,156.2h-2.3v-0.9h2.3V156.2z M273,156.2h-2.3v-0.9h2.3V156.2z
	 M268.5,156.2h-2.3v-0.9h2.3V156.2z M263.9,156.2h-2.3v-0.9h2.3L263.9,156.2z M259.3,156.2H257v-0.9h2.3V156.2z M254.7,156.2h-2.3
	v-0.9h2.3V156.2z"/>
<path class="st0" d="M104.2,197.4h241.1c1.3,0,2.6,0.5,3.5,1.4c0.9,0.9,1.4,2.2,1.4,3.5v165H99.2v-165c0-1.3,0.5-2.6,1.4-3.5
	C101.6,197.9,102.9,197.4,104.2,197.4z"/>
<path class="st3" d="M101.9,197.4H343c1.3,0,2.6,0.5,3.5,1.4c0.9,0.9,1.4,2.2,1.4,3.5V364H97V202.3c0-1.3,0.5-2.6,1.4-3.5
	C99.3,197.9,100.6,197.4,101.9,197.4z"/>
<path class="st4" d="M101.9,197.4H343c1.3,0,2.6,0.5,3.5,1.4c0.9,0.9,1.4,2.2,1.4,3.5V364H97V202.3c0-1.3,0.5-2.6,1.4-3.5
	C99.3,197.9,100.6,197.4,101.9,197.4z"/>
<path class="st5" d="M339.3,206.2H105.5v149h233.8V206.2z"/>
<path class="st3" d="M348.6,364h-96.3c-0.4,0-0.8,0.2-1.2,0.5c-0.3,0.3-0.5,0.7-0.5,1.2v5.2c0.9,1.2,2,2.1,3.3,2.7
	c1.3,0.6,2.7,1,4.2,1h84.4c1.3,0,2.6-0.3,3.8-0.8c1.1-0.5,2.1-1.3,2.7-2.3c0.7-1,1-2.2,1-3.5v-2.3c0-0.4-0.2-0.8-0.5-1.1
	C349.4,364.1,349,364,348.6,364z"/>
<path class="st0" d="M285,364H41.3c-0.4,0-0.8,0.2-1.2,0.5c-0.3,0.3-0.5,0.7-0.5,1.2v2.3c0,1.2,0.3,2.4,1,3.5c0.7,1,1.6,1.8,2.7,2.3
	c1.2,0.5,2.5,0.8,3.8,0.8h231.9c1.3,0,2.6-0.3,3.8-0.8c1.1-0.5,2.1-1.3,2.7-2.3c0.7-1,1-2.2,1-3.5v-2.3c0-0.4-0.2-0.8-0.5-1.1
	C285.9,364.2,285.5,364,285,364z"/>
<path class="st6" d="M182.1,368.3h-37.8c-1.4,0-2.7-0.4-3.8-1.2c-1.1-0.8-2-1.8-2.5-3.1h50.4c-0.5,1.3-1.4,2.3-2.5,3.1
	C184.8,367.8,183.4,368.3,182.1,368.3z"/>
<path class="st2" d="M339.3,206.2H105.5v13.3h233.8V206.2z"/>
<path class="st7" d="M112,215.2c1.6,0,2.8-1.3,2.8-2.8s-1.3-2.8-2.8-2.8c-1.6,0-2.8,1.3-2.8,2.8S110.4,215.2,112,215.2z"/>
<path class="st5" d="M122.1,215.2c1.6,0,2.8-1.3,2.8-2.8s-1.3-2.8-2.8-2.8c-1.6,0-2.8,1.3-2.8,2.8S120.6,215.2,122.1,215.2z"/>
<path class="st3" d="M132.3,215.2c1.6,0,2.8-1.3,2.8-2.8s-1.3-2.8-2.8-2.8c-1.6,0-2.8,1.3-2.8,2.8S130.7,215.2,132.3,215.2z"/>
<path class="st3" d="M301.9,225.3H161.7c-1.3,0-2.3,1-2.3,2.3v6.8c0,1.3,1,2.3,2.3,2.3h140.2c1.3,0,2.3-1,2.3-2.3v-6.8
	C304.2,226.3,303.1,225.3,301.9,225.3z"/>
<path class="st8" d="M301.9,225.3H161.7c-1.3,0-2.3,1-2.3,2.3v6.8c0,1.3,1,2.3,2.3,2.3h140.2c1.3,0,2.3-1,2.3-2.3v-6.8
	C304.2,226.3,303.1,225.3,301.9,225.3z"/>
<path class="st2" d="M298.5,229.4c-0.3-0.3-0.7-0.5-1.1-0.6c-0.4-0.1-0.8-0.1-1.2,0.1c-0.4,0.1-0.7,0.4-1,0.7
	c-0.2,0.3-0.4,0.7-0.4,1.1c0,0.4,0.1,0.8,0.3,1.2c0.2,0.4,0.5,0.7,0.9,0.9c0.4,0.2,0.8,0.3,1.2,0.3c0.4,0,0.8-0.2,1.1-0.4l1.2,1.2
	l0.4-0.4l-1.2-1.2c0.3-0.4,0.5-0.9,0.4-1.4C299.1,230.2,298.9,229.7,298.5,229.4z M298.1,232c-0.2,0.2-0.5,0.4-0.8,0.4
	c-0.3,0.1-0.6,0-0.9-0.1c-0.3-0.1-0.5-0.3-0.7-0.6c-0.2-0.3-0.3-0.6-0.3-0.9c0-0.3,0.1-0.6,0.3-0.9c0.2-0.3,0.4-0.5,0.7-0.6
	c0.3-0.1,0.6-0.1,0.9-0.1s0.6,0.2,0.8,0.4c0.3,0.3,0.5,0.7,0.5,1.1C298.6,231.3,298.4,231.7,298.1,232L298.1,232z"/>
<path class="st2" d="M317.2,229.1h-6.3v0.6h6.3V229.1z"/>
<path class="st2" d="M317.2,231.3h-6.3v0.6h6.3V231.3z"/>
<path class="st2" d="M317.2,233.5h-6.3v0.6h6.3V233.5z"/>
<path class="st7" d="M121.8,225.3h-7.3c-1.1,0-2,0.9-2,2v7.3c0,1.1,0.9,2,2,2h7.3c1.1,0,2-0.9,2-2v-7.3
	C123.8,226.2,122.9,225.3,121.8,225.3z"/>
<path class="st5" d="M115.1,229.4h6v0.1c0,0.8-0.3,1.6-0.9,2.1c-0.6,0.6-1.3,0.9-2.1,0.9c-0.8,0-1.6-0.3-2.1-0.9
	C115.4,231,115.1,230.3,115.1,229.4L115.1,229.4L115.1,229.4z"/>
<path class="st7" d="M328.5,235.6c2.6,0,4.7-2.1,4.7-4.7c0-2.6-2.1-4.7-4.7-4.7c-2.6,0-4.7,2.1-4.7,4.7
	C323.9,233.5,326,235.6,328.5,235.6z"/>
<path class="st7" d="M328.5,231c0.9,0,1.7-0.7,1.7-1.7c0-0.9-0.7-1.7-1.7-1.7c-0.9,0-1.7,0.7-1.7,1.7
	C326.9,230.3,327.6,231,328.5,231z"/>
<path class="st7" d="M332.3,233.7c-0.4,0.6-1,1.1-1.7,1.4c-0.7,0.3-1.4,0.5-2.1,0.5c-0.7,0-1.5-0.2-2.1-0.5
	c-0.7-0.3-1.2-0.8-1.7-1.4c0.1-0.6,0.4-1.2,0.9-1.6c0.5-0.4,1.1-0.6,1.7-0.6h2.5c0.6,0,1.2,0.2,1.7,0.6
	C331.9,232.5,332.2,233.1,332.3,233.7z"/>
<path class="st5" d="M328.5,231c0.9,0,1.7-0.7,1.7-1.7c0-0.9-0.7-1.7-1.7-1.7c-0.9,0-1.7,0.7-1.7,1.7
	C326.9,230.3,327.6,231,328.5,231z"/>
<path class="st5" d="M332.3,233.7c-0.4,0.6-1,1.1-1.7,1.4c-0.7,0.3-1.4,0.5-2.1,0.5c-0.7,0-1.5-0.2-2.1-0.5
	c-0.7-0.3-1.2-0.8-1.7-1.4c0.1-0.6,0.4-1.2,0.9-1.6c0.5-0.4,1.1-0.6,1.7-0.6h2.5c0.6,0,1.2,0.2,1.7,0.6
	C331.9,232.5,332.2,233.1,332.3,233.7z"/>
<path class="st7" d="M120,251.6h-5.6c-0.9,0-1.7,0.8-1.7,1.7v5.4c0,1,0.8,1.7,1.7,1.7h5.6c0.9,0,1.7-0.8,1.7-1.7v-5.4
	C121.7,252.4,120.9,251.6,120,251.6z"/>
<path class="st7" d="M153.2,254.3h-26.3c-0.5,0-0.9,0.4-0.9,0.9v1.7c0,0.5,0.4,0.9,0.9,0.9h26.3c0.5,0,0.9-0.4,0.9-0.9v-1.7
	C154,254.7,153.6,254.3,153.2,254.3z"/>
<path class="st7" d="M153.2,274.6h-26.3c-0.5,0-0.9,0.4-0.9,0.9v1.7c0,0.5,0.4,0.9,0.9,0.9h26.3c0.5,0,0.9-0.4,0.9-0.9v-1.7
	C154,275,153.6,274.6,153.2,274.6z"/>
<path class="st7" d="M153.2,294.9h-26.3c-0.5,0-0.9,0.4-0.9,0.9v1.7c0,0.5,0.4,0.9,0.9,0.9h26.3c0.5,0,0.9-0.4,0.9-0.9v-1.7
	C154,295.3,153.6,294.9,153.2,294.9z"/>
<path class="st7" d="M153.2,315.3h-26.3c-0.5,0-0.9,0.4-0.9,0.9v1.7c0,0.5,0.4,0.9,0.9,0.9h26.3c0.5,0,0.9-0.4,0.9-0.9v-1.7
	C154,315.6,153.6,315.3,153.2,315.3z"/>
<path class="st7" d="M153.2,335.6h-26.3c-0.5,0-0.9,0.4-0.9,0.9v1.7c0,0.5,0.4,0.9,0.9,0.9h26.3c0.5,0,0.9-0.4,0.9-0.9v-1.7
	C154,336,153.6,335.6,153.2,335.6z"/>
<path class="st7" d="M120,271.9h-5.6c-0.9,0-1.7,0.8-1.7,1.7v5.4c0,1,0.8,1.7,1.7,1.7h5.6c0.9,0,1.7-0.8,1.7-1.7v-5.4
	C121.7,272.7,120.9,271.9,120,271.9z"/>
<path class="st7" d="M120,292.2h-5.6c-0.9,0-1.7,0.8-1.7,1.7v5.4c0,0.9,0.8,1.7,1.7,1.7h5.6c0.9,0,1.7-0.8,1.7-1.7V294
	C121.7,293,120.9,292.2,120,292.2z"/>
<path class="st7" d="M120,312.6h-5.6c-0.9,0-1.7,0.8-1.7,1.7v5.4c0,0.9,0.8,1.7,1.7,1.7h5.6c0.9,0,1.7-0.8,1.7-1.7v-5.4
	C121.7,313.3,120.9,312.6,120,312.6z"/>
<path class="st7" d="M120,332.9h-5.6c-0.9,0-1.7,0.8-1.7,1.7v5.4c0,0.9,0.8,1.7,1.7,1.7h5.6c0.9,0,1.7-0.8,1.7-1.7v-5.4
	C121.7,333.7,120.9,332.9,120,332.9z"/>
<path class="st9" d="M120,251.6h-5.6c-0.9,0-1.7,0.8-1.7,1.7v5.4c0,1,0.8,1.7,1.7,1.7h5.6c0.9,0,1.7-0.8,1.7-1.7v-5.4
	C121.7,252.4,120.9,251.6,120,251.6z"/>
<path class="st9" d="M153.2,254.3h-26.3c-0.5,0-0.9,0.4-0.9,0.9v1.7c0,0.5,0.4,0.9,0.9,0.9h26.3c0.5,0,0.9-0.4,0.9-0.9v-1.7
	C154,254.7,153.6,254.3,153.2,254.3z"/>
<path class="st9" d="M153.2,274.6h-26.3c-0.5,0-0.9,0.4-0.9,0.9v1.7c0,0.5,0.4,0.9,0.9,0.9h26.3c0.5,0,0.9-0.4,0.9-0.9v-1.7
	C154,275,153.6,274.6,153.2,274.6z"/>
<path class="st9" d="M153.2,294.9h-26.3c-0.5,0-0.9,0.4-0.9,0.9v1.7c0,0.5,0.4,0.9,0.9,0.9h26.3c0.5,0,0.9-0.4,0.9-0.9v-1.7
	C154,295.3,153.6,294.9,153.2,294.9z"/>
<path class="st9" d="M153.2,315.3h-26.3c-0.5,0-0.9,0.4-0.9,0.9v1.7c0,0.5,0.4,0.9,0.9,0.9h26.3c0.5,0,0.9-0.4,0.9-0.9v-1.7
	C154,315.6,153.6,315.3,153.2,315.3z"/>
<path class="st9" d="M153.2,335.6h-26.3c-0.5,0-0.9,0.4-0.9,0.9v1.7c0,0.5,0.4,0.9,0.9,0.9h26.3c0.5,0,0.9-0.4,0.9-0.9v-1.7
	C154,336,153.6,335.6,153.2,335.6z"/>
<path class="st9" d="M120,271.9h-5.6c-0.9,0-1.7,0.8-1.7,1.7v5.4c0,1,0.8,1.7,1.7,1.7h5.6c0.9,0,1.7-0.8,1.7-1.7v-5.4
	C121.7,272.7,120.9,271.9,120,271.9z"/>
<path class="st9" d="M120,292.2h-5.6c-0.9,0-1.7,0.8-1.7,1.7v5.4c0,0.9,0.8,1.7,1.7,1.7h5.6c0.9,0,1.7-0.8,1.7-1.7V294
	C121.7,293,120.9,292.2,120,292.2z"/>
<path class="st9" d="M120,312.6h-5.6c-0.9,0-1.7,0.8-1.7,1.7v5.4c0,0.9,0.8,1.7,1.7,1.7h5.6c0.9,0,1.7-0.8,1.7-1.7v-5.4
	C121.7,313.3,120.9,312.6,120,312.6z"/>
<path class="st9" d="M120,332.9h-5.6c-0.9,0-1.7,0.8-1.7,1.7v5.4c0,0.9,0.8,1.7,1.7,1.7h5.6c0.9,0,1.7-0.8,1.7-1.7v-5.4
	C121.7,333.7,120.9,332.9,120,332.9z"/>
<path class="st3" d="M328.8,247.4H167c-0.8,0-1.4,0.6-1.4,1.4v3.1c0,0.8,0.6,1.4,1.4,1.4h161.8c0.8,0,1.4-0.6,1.4-1.4v-3.1
	C330.2,248,329.6,247.4,328.8,247.4z"/>
<path class="st10" d="M328.8,247.4H167c-0.8,0-1.4,0.6-1.4,1.4v3.1c0,0.8,0.6,1.4,1.4,1.4h161.8c0.8,0,1.4-0.6,1.4-1.4v-3.1
	C330.2,248,329.6,247.4,328.8,247.4z"/>
<path class="st7" d="M277.4,348H166.5c-0.5,0-0.9,0.4-0.9,0.9s0.4,0.9,0.9,0.9h110.9c0.5,0,0.9-0.4,0.9-0.9S277.9,348,277.4,348z"/>
<path class="st7" d="M277.4,339.8H166.5c-0.5,0-0.9,0.4-0.9,0.9c0,0.5,0.4,0.9,0.9,0.9h110.9c0.5,0,0.9-0.4,0.9-0.9
	C278.3,340.3,277.9,339.8,277.4,339.8z"/>
<path class="st7" d="M277.4,331.7H166.5c-0.5,0-0.9,0.4-0.9,0.9c0,0.5,0.4,0.9,0.9,0.9h110.9c0.5,0,0.9-0.4,0.9-0.9
	C278.3,332.1,277.9,331.7,277.4,331.7z"/>
<path class="st7" d="M277.4,323.6H166.5c-0.5,0-0.9,0.4-0.9,0.9c0,0.5,0.4,0.9,0.9,0.9h110.9c0.5,0,0.9-0.4,0.9-0.9
	C278.3,324,277.9,323.6,277.4,323.6z"/>
<path class="st7" d="M277.4,315.4H166.5c-0.5,0-0.9,0.4-0.9,0.9s0.4,0.9,0.9,0.9h110.9c0.5,0,0.9-0.4,0.9-0.9
	S277.9,315.4,277.4,315.4z"/>
<path class="st7" d="M277.4,307.3H166.5c-0.5,0-0.9,0.4-0.9,0.9c0,0.5,0.4,0.9,0.9,0.9h110.9c0.5,0,0.9-0.4,0.9-0.9
	C278.3,307.7,277.9,307.3,277.4,307.3z"/>
<path class="st7" d="M329.3,299.2H239c-0.5,0-0.9,0.4-0.9,0.9c0,0.5,0.4,0.9,0.9,0.9h90.3c0.5,0,0.9-0.4,0.9-0.9
	C330.2,299.6,329.8,299.2,329.3,299.2z"/>
<path class="st7" d="M329.3,291H239c-0.5,0-0.9,0.4-0.9,0.9c0,0.5,0.4,0.9,0.9,0.9h90.3c0.5,0,0.9-0.4,0.9-0.9
	C330.2,291.4,329.8,291,329.3,291z"/>
<path class="st7" d="M329.3,282.9H239c-0.5,0-0.9,0.4-0.9,0.9s0.4,0.9,0.9,0.9h90.3c0.5,0,0.9-0.4,0.9-0.9S329.8,282.9,329.3,282.9z
	"/>
<path class="st7" d="M329.3,274.7H239c-0.5,0-0.9,0.4-0.9,0.9s0.4,0.9,0.9,0.9h90.3c0.5,0,0.9-0.4,0.9-0.9S329.8,274.7,329.3,274.7z
	"/>
<path class="st7" d="M329.3,266.6H239c-0.5,0-0.9,0.4-0.9,0.9c0,0.5,0.4,0.9,0.9,0.9h90.3c0.5,0,0.9-0.4,0.9-0.9
	C330.2,267,329.8,266.6,329.3,266.6z"/>
<path class="st7" d="M329.3,258.5H239c-0.5,0-0.9,0.4-0.9,0.9c0,0.5,0.4,0.9,0.9,0.9h90.3c0.5,0,0.9-0.4,0.9-0.9
	C330.2,258.9,329.8,258.5,329.3,258.5z"/>
<g class="st11">
	<path class="st9" d="M277.4,348H166.5c-0.5,0-0.9,0.4-0.9,0.9s0.4,0.9,0.9,0.9h110.9c0.5,0,0.9-0.4,0.9-0.9S277.9,348,277.4,348z"
		/>
	<path class="st9" d="M277.4,339.8H166.5c-0.5,0-0.9,0.4-0.9,0.9s0.4,0.9,0.9,0.9h110.9c0.5,0,0.9-0.4,0.9-0.9
		S277.9,339.8,277.4,339.8z"/>
	<path class="st9" d="M277.4,331.7H166.5c-0.5,0-0.9,0.4-0.9,0.9c0,0.5,0.4,0.9,0.9,0.9h110.9c0.5,0,0.9-0.4,0.9-0.9
		C278.3,332.1,277.9,331.7,277.4,331.7z"/>
	<path class="st9" d="M277.4,323.6H166.5c-0.5,0-0.9,0.4-0.9,0.9c0,0.5,0.4,0.9,0.9,0.9h110.9c0.5,0,0.9-0.4,0.9-0.9
		C278.3,324,277.9,323.6,277.4,323.6z"/>
	<path class="st9" d="M277.4,315.4H166.5c-0.5,0-0.9,0.4-0.9,0.9c0,0.5,0.4,0.9,0.9,0.9h110.9c0.5,0,0.9-0.4,0.9-0.9
		C278.3,315.8,277.9,315.4,277.4,315.4z"/>
	<path class="st9" d="M277.4,307.3H166.5c-0.5,0-0.9,0.4-0.9,0.9c0,0.5,0.4,0.9,0.9,0.9h110.9c0.5,0,0.9-0.4,0.9-0.9
		C278.3,307.7,277.9,307.3,277.4,307.3z"/>
	<path class="st9" d="M329.3,299.2H239c-0.5,0-0.9,0.4-0.9,0.9c0,0.5,0.4,0.9,0.9,0.9h90.3c0.5,0,0.9-0.4,0.9-0.9
		C330.2,299.6,329.8,299.2,329.3,299.2z"/>
	<path class="st9" d="M329.3,291H239c-0.5,0-0.9,0.4-0.9,0.9c0,0.5,0.4,0.9,0.9,0.9h90.3c0.5,0,0.9-0.4,0.9-0.9
		C330.2,291.4,329.8,291,329.3,291z"/>
	<path class="st9" d="M329.3,282.9H239c-0.5,0-0.9,0.4-0.9,0.9c0,0.5,0.4,0.9,0.9,0.9h90.3c0.5,0,0.9-0.4,0.9-0.9
		C330.2,283.3,329.8,282.9,329.3,282.9z"/>
	<path class="st9" d="M329.3,274.7H239c-0.5,0-0.9,0.4-0.9,0.9s0.4,0.9,0.9,0.9h90.3c0.5,0,0.9-0.4,0.9-0.9S329.8,274.7,329.3,274.7
		z"/>
	<path class="st9" d="M329.3,266.6H239c-0.5,0-0.9,0.4-0.9,0.9c0,0.5,0.4,0.9,0.9,0.9h90.3c0.5,0,0.9-0.4,0.9-0.9
		C330.2,267,329.8,266.6,329.3,266.6z"/>
	<path class="st9" d="M329.3,258.5H239c-0.5,0-0.9,0.4-0.9,0.9c0,0.5,0.4,0.9,0.9,0.9h90.3c0.5,0,0.9-0.4,0.9-0.9
		C330.2,258.9,329.8,258.5,329.3,258.5z"/>
</g>
<path class="st3" d="M339.3,242.2H105.5v0.3h53.7V266h-53.7v0.3h53.7v20h-53.7v0.3h53.7v20h-53.7v0.3h53.7v20h-53.7v0.3h53.7v20
	h-53.7v0.3h53.7v7.6h0.3V242.5h179.8V242.2z"/>
<path class="st7" d="M165.6,261.9v36.8c0,1.9,1.6,3.5,3.5,3.5h57.5c1.9,0,3.5-1.6,3.5-3.5v-36.8c0-1.9-1.6-3.5-3.5-3.5h-57.5
	C167.1,258.4,165.6,259.9,165.6,261.9z"/>
<path class="st12" d="M165.6,261.9v36.8c0,1.9,1.6,3.5,3.5,3.5h57.5c1.9,0,3.5-1.6,3.5-3.5v-36.8c0-1.9-1.6-3.5-3.5-3.5h-57.5
	C167.1,258.4,165.6,259.9,165.6,261.9z"/>
<path class="st0" d="M173.3,299.3l16.7-10.7L173.4,278L173.3,299.3z"/>
<path class="st5" d="M200.5,274.3v23.5H224v-23.5H200.5z"/>
<path class="st7" d="M196.2,284c6,0,10.9-4.9,10.9-10.9c0-6-4.9-10.9-10.9-10.9c-6,0-10.9,4.9-10.9,10.9
	C185.4,279.1,190.2,284,196.2,284z"/>
<path class="st7" d="M326.9,305.2h-37.6c-1.9,0-3.5,1.6-3.5,3.5v37.6c0,1.9,1.6,3.5,3.5,3.5h37.6c1.9,0,3.5-1.6,3.5-3.5v-37.6
	C330.4,306.8,328.8,305.2,326.9,305.2z"/>
<path class="st12" d="M326.9,305.2h-37.6c-1.9,0-3.5,1.6-3.5,3.5v37.6c0,1.9,1.6,3.5,3.5,3.5h37.6c1.9,0,3.5-1.6,3.5-3.5v-37.6
	C330.4,306.8,328.8,305.2,326.9,305.2z"/>
<path class="st0" d="M295.4,314.6h25.3v1.1c0,3.4-1.3,6.6-3.7,8.9c-2.4,2.4-5.6,3.7-8.9,3.7c-3.4,0-6.6-1.3-8.9-3.7
	c-2.4-2.4-3.7-5.6-3.7-8.9V314.6z"/>
<path class="st5" d="M320.7,333.1h-25.3v7.3h25.3V333.1z"/>
<path class="st7" d="M148.8,227.7h-20.6c-0.8,0-1.4,0.6-1.4,1.4v3c0,0.8,0.6,1.4,1.4,1.4h20.6c0.8,0,1.4-0.6,1.4-1.4v-3
	C150.2,228.4,149.6,227.7,148.8,227.7z"/>
<path class="st7" d="M119.1,127.1l9.3-6.4c0.2-0.1,0.5-0.2,0.7-0.2c0.3,0,0.5,0,0.7,0.2l3.5,1.8l21.3-14.6c0.3-0.2,0.7-0.3,1.1-0.2
	c0.4,0.1,0.7,0.3,0.9,0.6l15.6,22.7c0.1,0.1,0.2,0.3,0.2,0.5c0,0.2,0,0.3,0,0.5s-0.1,0.3-0.2,0.5s-0.2,0.3-0.4,0.4l-33.3,22.9
	c-0.3,0.2-0.6,0.3-1,0.2c-0.3-0.1-0.6-0.3-0.8-0.5l-18-26.1c-0.2-0.3-0.3-0.7-0.2-1.1C118.6,127.7,118.8,127.3,119.1,127.1z"/>
<path class="st7" d="M172.8,131.4l-7.2-24c0-0.1-0.1-0.3-0.2-0.4c-0.1-0.1-0.2-0.2-0.4-0.2c-0.1-0.1-0.3-0.1-0.4,0
	c-0.1,0-0.3,0.1-0.4,0.2L130.5,130c-0.2,0.1-0.4,0.4-0.5,0.6c-0.1,0.3-0.1,0.5,0,0.8l7.2,23.9c0,0.1,0.1,0.2,0.2,0.3
	c0.1,0.1,0.2,0.2,0.3,0.2c0.1,0,0.2,0.1,0.3,0s0.2-0.1,0.3-0.1l34.2-23.5c0.1-0.1,0.2-0.2,0.3-0.4
	C172.8,131.7,172.8,131.5,172.8,131.4z"/>
<path class="st13" d="M172.8,131.4l-7.2-24c0-0.1-0.1-0.3-0.2-0.4c-0.1-0.1-0.2-0.2-0.4-0.2c-0.1-0.1-0.3-0.1-0.4,0
	c-0.1,0-0.3,0.1-0.4,0.2L130.5,130c-0.2,0.1-0.4,0.4-0.5,0.6c-0.1,0.3-0.1,0.5,0,0.8l7.2,23.9c0,0.1,0.1,0.2,0.2,0.3
	c0.1,0.1,0.2,0.2,0.3,0.2c0.1,0,0.2,0.1,0.3,0s0.2-0.1,0.3-0.1l34.2-23.5c0.1-0.1,0.2-0.2,0.3-0.4
	C172.8,131.7,172.8,131.5,172.8,131.4z"/>
<path class="st9" d="M172.8,131.4l-7.2-24L172.8,131.4z"/>
<path class="st7" d="M278.6,89.6l-26.9-3.5c-0.2,0-0.4-0.1-0.6-0.2c-0.2-0.1-0.4-0.2-0.5-0.4c-0.1-0.2-0.2-0.4-0.3-0.6
	c-0.1-0.2-0.1-0.4,0-0.6l4.5-34.5c0-0.2,0.1-0.4,0.2-0.6c0.1-0.2,0.2-0.3,0.4-0.5c0.2-0.1,0.4-0.2,0.6-0.3c0.2-0.1,0.4-0.1,0.6,0
	l26.8,3.5c0.2,0,0.4,0.1,0.6,0.2c0.2,0.1,0.4,0.2,0.5,0.4c0.1,0.2,0.2,0.4,0.3,0.6c0.1,0.2,0.1,0.4,0,0.6l-4.4,34.6
	c0,0.2-0.1,0.4-0.2,0.6c-0.1,0.2-0.2,0.4-0.4,0.5c-0.2,0.1-0.4,0.2-0.6,0.3C279,89.6,278.8,89.7,278.6,89.6z"/>
<path class="st14" d="M278.6,89.6l-26.9-3.5c-0.2,0-0.4-0.1-0.6-0.2c-0.2-0.1-0.4-0.2-0.5-0.4c-0.1-0.2-0.2-0.4-0.3-0.6
	c-0.1-0.2-0.1-0.4,0-0.6l4.5-34.5c0-0.2,0.1-0.4,0.2-0.6c0.1-0.2,0.2-0.3,0.4-0.5c0.2-0.1,0.4-0.2,0.6-0.3c0.2-0.1,0.4-0.1,0.6,0
	l26.8,3.5c0.2,0,0.4,0.1,0.6,0.2c0.2,0.1,0.4,0.2,0.5,0.4c0.1,0.2,0.2,0.4,0.3,0.6c0.1,0.2,0.1,0.4,0,0.6l-4.4,34.6
	c0,0.2-0.1,0.4-0.2,0.6c-0.1,0.2-0.2,0.4-0.4,0.5c-0.2,0.1-0.4,0.2-0.6,0.3C279,89.6,278.8,89.7,278.6,89.6z"/>
<path class="st7" d="M281,88.1l-26.2-10c-0.3-0.1-0.5-0.3-0.7-0.6s-0.1-0.6,0-0.9l12.7-33.4c0.1-0.3,0.3-0.5,0.6-0.7
	c0.3-0.1,0.6-0.1,0.9,0l19.1,7.3l5,11.3l-10,26.3c-0.1,0.3-0.3,0.5-0.6,0.7C281.7,88.2,281.3,88.2,281,88.1z"/>
<path class="st9" d="M281,88.1l-26.2-10c-0.3-0.1-0.5-0.3-0.7-0.6s-0.1-0.6,0-0.9l12.7-33.4c0.1-0.3,0.3-0.5,0.6-0.7
	c0.3-0.1,0.6-0.1,0.9,0l19.1,7.3l5,11.3l-10,26.3c-0.1,0.3-0.3,0.5-0.6,0.7C281.7,88.2,281.3,88.2,281,88.1z"/>
<path class="st7" d="M292.6,61.1l-7-2.7c-0.3-0.1-0.5-0.3-0.7-0.6c-0.1-0.3-0.1-0.6,0-0.9l2.7-7.1L292.6,61.1z"/>
<path class="st14" d="M292.6,61.1l-7-2.7c-0.3-0.1-0.5-0.3-0.7-0.6c-0.1-0.3-0.1-0.6,0-0.9l2.7-7.1L292.6,61.1z"/>
<path class="st7" d="M272.7,48.3l-3.2-1.2l-2.9,7.5l3.2,1.2L272.7,48.3z"/>
<path class="st5" d="M274.6,53l-3.2-1.2l-1.5,4L273,57L274.6,53z"/>
<path class="st5" d="M286.5,66.3l-21.2-8.1l-0.7,1.7l21.2,8.1L286.5,66.3z"/>
<path class="st5" d="M284,72.8l-21.2-8.1l-0.7,1.7l21.2,8.1L284,72.8z"/>
<path class="st5" d="M275.2,77l-14.9-5.7l-0.7,1.7l14.9,5.7L275.2,77z"/>
<path class="st5" d="M340.9,105.4l-37.1-7.2l-5.5,28.4l37.1,7.2L340.9,105.4z"/>
<path class="st7" d="M338.6,107l-33.4-6.5l-4.8,24.5l33.4,6.5L338.6,107z"/>
<path class="st12" d="M338.6,107l-33.4-6.5l-4.8,24.5l33.4,6.5L338.6,107z"/>
<path class="st7" d="M336.1,119.9l-6.5-8.4c-0.2-0.2-0.4-0.4-0.7-0.4c-0.3-0.1-0.5,0-0.8,0.1l-10.2,5.9l-3.7-4.7
	c-0.2-0.2-0.4-0.4-0.7-0.4c-0.3-0.1-0.5,0-0.8,0.1l-11.2,6.5l-1.2,6.3l33.4,6.5L336.1,119.9z"/>
<path class="st14" d="M336.1,119.9l-6.5-8.4c-0.2-0.2-0.4-0.4-0.7-0.4c-0.3-0.1-0.5,0-0.8,0.1l-10.2,5.9l-3.7-4.7
	c-0.2-0.2-0.4-0.4-0.7-0.4c-0.3-0.1-0.5,0-0.8,0.1l-11.2,6.4l-1.2,6.3l33.4,6.5L336.1,119.9z"/>
<path class="st5" d="M319.6,110.1c1.1,0,2-0.9,2-2s-0.9-2-2-2c-1.1,0-2,0.9-2,2S318.5,110.1,319.6,110.1z"/>
<path class="st15" d="M318,117.1l-2,1.2c-0.1,0-0.2,0.1-0.3,0.1c-0.1,0-0.2,0-0.3-0.1c-0.1,0-0.2-0.1-0.2-0.2s-0.1-0.2-0.1-0.3
	l-1.6-5.9c0.2,0,0.3,0,0.5,0.1c0.2,0.1,0.3,0.2,0.4,0.3L318,117.1z"/>
<path class="st15" d="M336.1,119.9l-1.6,8.4l-5.5-17.2c0.3,0.1,0.5,0.2,0.6,0.4L336.1,119.9z"/>
<path class="st7" d="M208.1,61.1l-21.9,1.9c-3,0.3-5.2,2.9-4.9,5.9l1.9,21.9c0.3,3,2.9,5.2,5.9,4.9l21.9-1.9c3-0.3,5.2-2.9,4.9-5.9
	L214,66.1C213.7,63.1,211.1,60.9,208.1,61.1z"/>
<path class="st14" d="M208.1,61.1l-21.9,1.9c-3,0.3-5.2,2.9-4.9,5.9l1.9,21.9c0.3,3,2.9,5.2,5.9,4.9l21.9-1.9c3-0.3,5.2-2.9,4.9-5.9
	L214,66.1C213.7,63.1,211.1,60.9,208.1,61.1z"/>
<path class="st5" d="M205.6,69.7c-0.1-0.1-0.2-0.1-0.2-0.1c-0.1,0-0.2,0-0.3,0l-11.3,3.3c-0.2,0.1-0.3,0.2-0.4,0.3
	c-0.1,0.2-0.1,0.3-0.1,0.5l0.8,10.1c-0.6-0.4-1.3-0.5-2-0.4c-0.6,0.1-1.1,0.4-1.6,0.8c-0.4,0.4-0.8,0.9-0.9,1.5
	c-0.2,0.6-0.1,1.2,0.1,1.7s0.5,1.1,1,1.4c0.5,0.4,1,0.6,1.6,0.6c0.6,0.1,1.2-0.1,1.7-0.4c0.5-0.3,0.9-0.7,1.2-1.2
	c0.3-0.5,0.4-1.1,0.3-1.7L195,78l10-3l0.5,6.2c-0.6-0.4-1.3-0.5-2-0.4c-0.6,0.1-1.1,0.4-1.6,0.8c-0.4,0.4-0.8,0.9-0.9,1.5
	c-0.1,0.6-0.1,1.2,0.1,1.7c0.2,0.6,0.5,1.1,1,1.4c0.5,0.4,1,0.6,1.6,0.6c0.6,0,1.2-0.1,1.7-0.4c0.5-0.3,0.9-0.7,1.2-1.2
	c0.3-0.5,0.4-1.1,0.4-1.7l-1.2-13.2c0-0.1,0-0.2-0.1-0.3C205.8,69.8,205.7,69.8,205.6,69.7z"/>
<path class="st2" d="M192.3,151.2l-1.8-0.8l0.4-0.8l1.8,0.8L192.3,151.2z M188.5,149.5l-2.1-0.9l0.4-0.8l2.1,0.9L188.5,149.5z
	 M184.3,147.7l-2.1-0.9l0.4-0.8l2.1,0.9L184.3,147.7z M180.1,145.9l-2.1-0.9l0.4-0.8l2.1,0.9L180.1,145.9z M175.9,144l-2.1-0.9
	l0.4-0.8l2.1,0.9L175.9,144z M171.7,142.2l-2.1-0.9l0.3-0.8l2.1,0.9L171.7,142.2z M167.5,140.4l-2.1-0.9l0.4-0.8l2.1,0.9
	L167.5,140.4z"/>
<path class="st2" d="M213.2,114.3l-1.1-2l0.8-0.4l1.1,2L213.2,114.3z M210.9,110.4l-1.1-2l0.8-0.4l1.1,2L210.9,110.4z M208.6,106.4
	l-1.1-2l0.8-0.4l1.1,2L208.6,106.4z M206.3,102.5l-1.1-2l0.8-0.4l1.1,2L206.3,102.5z M204,98.5l-1.1-2l0.8-0.4l1.1,2L204,98.5z"/>
<path class="st2" d="M257.1,108.1l-0.8-0.4l1-2l0.8,0.4L257.1,108.1z M259.1,104l-0.8-0.4l1-2.1l0.8,0.4L259.1,104z M261.1,99.9
	l-0.8-0.4l1-2.1l0.8,0.4L261.1,99.9z M263,95.8l-0.8-0.4l1-2.1l0.8,0.4L263,95.8z M265,91.7l-0.8-0.4l1-2.1l0.8,0.4L265,91.7z"/>
<path class="st2" d="M264.3,137.5l-0.3-0.8l2.1-0.8l0.3,0.8L264.3,137.5z M268.6,135.9l-0.3-0.8l2.1-0.8l0.3,0.8L268.6,135.9z
	 M272.9,134.3l-0.3-0.8l2.1-0.8l0.3,0.8L272.9,134.3z M277.2,132.8l-0.3-0.8l2.1-0.8l0.3,0.8L277.2,132.8z M281.5,131.2l-0.3-0.8
	l2.1-0.8l0.3,0.8L281.5,131.2z M285.7,129.6l-0.3-0.8l2.1-0.8l0.3,0.8L285.7,129.6z M290,128l-0.3-0.8l2.1-0.8l0.3,0.8L290,128z
	 M294.3,126.4l-0.3-0.8l2.1-0.8l0.3,0.8L294.3,126.4z"/>
<path class="st2" d="M232.3,197.4h-0.9v-2.3h0.9V197.4z M232.3,192.8h-0.9v-2.3h0.9V192.8z M232.3,188.2h-0.9v-2.3h0.9V188.2z
	 M232.3,183.6h-0.9v-2.3h0.9V183.6z M232.3,179.1h-0.9v-2.3h0.9V179.1z M232.3,174.5h-0.9v-2.3h0.9V174.5z M232.3,169.9h-0.9v-2.3
	h0.9V169.9z M232.3,165.3h-0.9V163h0.9V165.3z M232.3,160.8h-0.9v-2.3h0.9V160.8z M232.3,156.2h-0.9v-2.3h0.9V156.2z"/>
<path class="st2" d="M232.5,180.4h-2c-0.5,0-0.8,0.4-0.8,0.8v2c0,0.5,0.4,0.8,0.8,0.8h2c0.5,0,0.8-0.4,0.8-0.8v-2
	C233.3,180.8,233,180.4,232.5,180.4z"/>
<path class="st2" d="M305.5,153.8h-2.1c-0.5,0-0.9,0.4-0.9,0.9v2.1c0,0.5,0.4,0.9,0.9,0.9h2.1c0.5,0,0.9-0.4,0.9-0.9v-2.1
	C306.3,154.2,305.9,153.8,305.5,153.8z"/>
<path class="st2" d="M361.2,154h-2c-0.5,0-0.8,0.4-0.8,0.8v2c0,0.5,0.4,0.8,0.8,0.8h2c0.5,0,0.8-0.4,0.8-0.8v-2
	C362.1,154.3,361.7,154,361.2,154z"/>
<path class="st2" d="M391.1,185.5h-2c-0.5,0-0.8,0.4-0.8,0.8v2c0,0.5,0.4,0.8,0.8,0.8h2c0.5,0,0.8-0.4,0.8-0.8v-2
	C391.9,185.8,391.6,185.5,391.1,185.5z"/>
<path class="st2" d="M391.1,239.8l-2,0c-0.5,0-0.8,0.4-0.8,0.9l0,2c0,0.5,0.4,0.8,0.9,0.8l2,0c0.5,0,0.8-0.4,0.8-0.9l0-2
	C391.9,240.2,391.5,239.8,391.1,239.8z"/>
<path class="st3" d="M517,374.9H11.5c-0.1,0-0.2,0-0.2-0.1c-0.1-0.1-0.1-0.2-0.1-0.2c0-0.1,0-0.2,0.1-0.2c0.1-0.1,0.2-0.1,0.2-0.1
	H517c0.1,0,0.2,0,0.2,0.1c0.1,0.1,0.1,0.2,0.1,0.2c0,0.1,0,0.2-0.1,0.2C517.2,374.8,517.1,374.9,517,374.9z"/>
<g class="st11">
	<path class="st9" d="M517,374.9H11.5c-0.1,0-0.2,0-0.2-0.1c-0.1-0.1-0.1-0.2-0.1-0.2c0-0.1,0-0.2,0.1-0.2c0.1-0.1,0.2-0.1,0.2-0.1
		H517c0.1,0,0.2,0,0.2,0.1c0.1,0.1,0.1,0.2,0.1,0.2c0,0.1,0,0.2-0.1,0.2C517.2,374.8,517.1,374.9,517,374.9z"/>
</g>
<path class="st16" d="M404.2,285.8l-0.2-3.7c0-0.7-0.3-1.3-0.7-1.8l-1.3-1.6c-0.2-0.2-0.4-0.4-0.6-0.4c-0.2-0.1-0.5-0.1-0.8,0
	l-3,0.7c-0.1,0-0.1,0.1-0.2,0.1c0,0.1-0.1,0.1-0.1,0.2c0,0.4,0.2,0.8,0.5,1c0.3,0.3,0.6,0.4,1,0.5l1.9,0.1l0.3,0.7
	c0,0.1,0.1,0.2,0,0.3l-0.6,1.2c-0.1,0.2-0.2,0.3-0.4,0.5c-0.2,0.1-0.4,0.2-0.6,0.3c-0.2,0-0.4,0-0.6,0c-0.2,0-0.4-0.1-0.6-0.3
	l-1.1-0.8l-1.7,3.3l0.9,1.8c0.3,0.5,0.6,0.9,1.1,1.2c0.4,0.3,0.9,0.5,1.5,0.6l0.4,0.1c0.1,0,0.2,0.1,0.3,0.1
	c0.1,0.1,0.2,0.1,0.2,0.2l1.7,2.5l4.5-3.7l-1.8-2.3C404.3,286.2,404.2,286,404.2,285.8z"/>
<g class="st17">
	<path class="st15" d="M402.3,279.1c0.4,0.5,0.7,1.2,0.7,1.8l0.2,6c0,0.2,0.1,0.3,0.1,0.4l1.6,2.3l1.2-1l-1.8-2.3
		c-0.1-0.1-0.2-0.3-0.2-0.5l-0.2-3.7c0-0.7-0.3-1.3-0.7-1.8l-1.3-1.6c0-0.1-0.1-0.1-0.1-0.1L402.3,279.1z"/>
</g>
<path class="st0" d="M425,300.9l-3.9,3.8l-15.5-16.9l-4.9,3.1l15.2,23.8c0.5,0.8,1.2,1.4,1.9,1.9c0.8,0.5,1.7,0.8,2.6,0.9
	c0.9,0.1,1.8,0,2.7-0.4c0.9-0.3,1.6-0.8,2.3-1.5l8.6-9.1L425,300.9z"/>
<path class="st16" d="M395.4,280.9l-0.3,4.3l-4.8-8.8c-0.1-0.2-0.2-0.5-0.1-0.8c0.1-0.3,0.2-0.5,0.5-0.6c0.2-0.1,0.5-0.2,0.8-0.1
	c0.3,0.1,0.5,0.2,0.6,0.5L395.4,280.9z"/>
<path class="st15" d="M392.1,275.3c-0.1-0.2-0.3-0.3-0.5-0.4c-0.2-0.1-0.4-0.1-0.6-0.1c0.1,0.1,0.3,0.2,0.3,0.3l2,3.3
	c0.2,0.4,0.4,0.8,0.4,1.2l0.4,3.8l0.9,1.7l0.3-4.3L392.1,275.3z"/>
<path class="st15" d="M398.8,284.9l-1.2-0.9l-0.1-0.2l-0.3,2.5l0.2,0.1l0.1-1.1c0.1,0.1,0.1,0.3,0.3,0.4c0.1,0.1,0.3,0.2,0.4,0.2
	l0.9,0L398.8,284.9z"/>
<path class="st7" d="M388.7,267.5l-0.4,0.2c-0.1,0.1-0.2,0.1-0.2,0.2c-0.1,0.1-0.1,0.2-0.1,0.3c0,0.1,0,0.2,0,0.3
	c0,0.1,0,0.2,0.1,0.3l10.7,17.2c0.1,0.1,0.1,0.2,0.2,0.2c0.1,0.1,0.2,0.1,0.3,0.1c0.1,0,0.2,0,0.3,0c0.1,0,0.2-0.1,0.3-0.1l0.6-0.4
	c0.2-0.1,0.3-0.3,0.3-0.5c0-0.2,0-0.4-0.1-0.6l-10.8-17c-0.1-0.2-0.3-0.3-0.5-0.3C389.1,267.3,388.9,267.3,388.7,267.5z"/>
<path class="st16" d="M393.7,276.6l0.8,7.4l2,3.7l0.3-2.3l-1.2-9c0-0.2-0.1-0.5-0.3-0.6c-0.2-0.2-0.4-0.2-0.7-0.2
	c-0.1,0-0.3,0-0.4,0.1c-0.1,0.1-0.2,0.1-0.3,0.2c-0.1,0.1-0.2,0.2-0.2,0.3C393.7,276.3,393.6,276.5,393.7,276.6z"/>
<path class="st16" d="M396.3,280.4l-0.9,4.7l1.5,2.3l0.8-6.8c0-0.1,0-0.3-0.1-0.4c-0.1-0.1-0.2-0.2-0.3-0.3
	c-0.1-0.1-0.2-0.1-0.3-0.1c-0.1,0-0.2,0-0.3,0.1c-0.1,0-0.2,0.1-0.3,0.2C396.3,280.2,396.3,280.3,396.3,280.4z"/>
<path class="st15" d="M396.2,280.9l-0.6,3.2l0.2-6.1L396.2,280.9z"/>
<path class="st18" d="M405.5,287.8l0.9,1l-5.1,3.2l-0.7-1.2L405.5,287.8z"/>
<path class="st5" d="M419.2,316.1c0.4,0,0.7-0.3,0.7-0.7s-0.3-0.7-0.7-0.7s-0.7,0.3-0.7,0.7S418.9,316.1,419.2,316.1z"/>
<path class="st7" d="M427.7,258.2c3.8,0,6.9-3.1,6.9-6.9c0-3.8-3.1-6.9-6.9-6.9c-3.8,0-6.9,3.1-6.9,6.9
	C420.8,255.1,423.9,258.2,427.7,258.2z"/>
<path class="st16" d="M235.1,354.9l-4.1-0.9c-0.2,0-0.3,0-0.5,0c-0.2,0-0.3,0.1-0.4,0.2c-0.1,0.1-0.2,0.2-0.3,0.4
	c-0.1,0.1-0.1,0.3-0.1,0.5c0,0.2,0.1,0.4,0.2,0.6c0.1,0.2,0.3,0.3,0.5,0.4l5,2L235.1,354.9z"/>
<path class="st15" d="M235.1,354.9l-4.1-0.9c-0.2,0-0.3,0-0.5,0c-0.2,0-0.3,0.1-0.4,0.2c-0.1,0.1-0.2,0.2-0.3,0.4
	c-0.1,0.1-0.1,0.3-0.1,0.5c0,0.2,0.1,0.4,0.2,0.6c0.1,0.2,0.3,0.3,0.5,0.4l5,2L235.1,354.9z"/>
<path class="st16" d="M266,362.1l-12.3,1.3c-1.4,0.1-2.8-0.1-4-0.8l-13-7.4c-1.3-0.7-2.6-1.5-3.7-2.5l-0.1,0
	c-0.2-0.2-0.5-0.3-0.8-0.3c-0.3,0-0.6,0-0.8,0.2l0,0c-0.2,0.1-0.3,0.2-0.4,0.4c-0.1,0.2-0.2,0.3-0.2,0.5c0,0.2,0,0.4,0,0.6
	c0,0.2,0.1,0.4,0.2,0.5l5.1,7.3c0.7,0.9,2.9,2.7,3.9,3.2c1.5,0.8,2.7,2.1,3.4,3.7l1.3,3.3c0.2,0.6,0.6,1.1,1,1.5
	c0.4,0.4,1,0.7,1.5,1c0.6,0.2,1.2,0.3,1.8,0.2c0.6-0.1,1.2-0.2,1.7-0.5l1.7-1l14.2,0.9L266,362.1z"/>
<g class="st19">
	<path class="st20" d="M251.7,371.7c-0.1,0-0.2,0-0.4,0.1l-1.4,0.6c-1.7,0.9-4.1,0.3-5.6-1.1l0.2,0.5c0.2,0.6,0.6,1.1,1,1.5
		c0.4,0.4,1,0.8,1.5,1c0.6,0.2,1.2,0.3,1.8,0.2s1.2-0.2,1.7-0.5l1.7-1l14.2,0.9l-0.1-2.7L251.7,371.7z"/>
</g>
<path class="st16" d="M294.9,360.9l-19.9,8.4c-0.5,0.2-0.9,0.6-1.2,1c-0.3,0.4-0.4,1-0.4,1.5c0,0.7,0.3,1.4,0.8,1.9
	c0.5,0.5,1.2,0.8,1.9,0.8h24.4c1.4,0,2.7-0.5,3.7-1.4c1-0.9,1.7-2.2,1.8-3.6l0.3-2.9l6-6.8l-10-6.4L294.9,360.9z"/>
<path class="st2" d="M413.1,327l-54.9-26.2c-2.4-1.2-5.2-1.5-7.8-0.9c-2.6,0.6-5,2-6.7,4l-43,50.3l8.7,7.9l42.5-38.7l40.7,25.8
	l18.7-8.1L413.1,327z"/>
<path class="st20" d="M407.9,331.8c-0.1-0.1-0.2-0.1-0.4-0.1c-0.1,0-0.2,0.1-0.3,0.2l-6,6.5c-0.2,0.2-0.4,0.3-0.7,0.4
	c-0.3,0-0.6,0-0.8-0.1l-42.9-21.8c-1.1-0.6-2.3-0.8-3.6-0.6c-1.2,0.2-2.3,0.7-3.2,1.6l-43.7,41.4l3.2,2.9l42.5-38.7l40.7,25.8
	l15-6.5l-6.2-3.2l6.5-7c0.1-0.1,0.1-0.1,0.1-0.2c0-0.1,0-0.1,0-0.2c0-0.1,0-0.1-0.1-0.2C408,331.9,408,331.8,407.9,331.8z"/>
<path class="st16" d="M477.3,369.1c0.3,0,0.5,0.1,0.7,0.2l8.8,3.2c0.1,0,0.2,0.1,0.3,0.2c0.1,0.1,0.2,0.2,0.2,0.3
	c0,0.1,0.1,0.3,0.1,0.4c0,0.1-0.1,0.3-0.1,0.4c-0.1,0.2-0.3,0.3-0.5,0.4c-0.2,0.1-0.4,0.1-0.6,0l-7.8-3.1L476,369L477.3,369.1z"/>
<path class="st15" d="M477.3,369.1c0.3,0,0.5,0.1,0.7,0.2l8.8,3.2c0.1,0,0.2,0.1,0.3,0.2c0.1,0.1,0.2,0.2,0.2,0.3
	c0,0.1,0.1,0.3,0.1,0.4c0,0.1-0.1,0.3-0.1,0.4c-0.1,0.2-0.3,0.3-0.5,0.4c-0.2,0.1-0.4,0.1-0.6,0l-7.8-3.1L476,369L477.3,369.1z"/>
<path class="st15" d="M425,300.9l-2.3,2.2l0.2,0.7c0.2,0.7,0.2,1.4-0.1,2.1l-2.6,5.5c-0.2,0.4-0.5,0.7-0.8,1
	c-0.3,0.3-0.8,0.4-1.2,0.5c-0.4,0.1-0.9,0-1.3-0.1c-0.4-0.1-0.8-0.4-1.1-0.7l-4.6-4.7l4.6,7.2c0.5,0.8,1.2,1.4,2,1.9l0.2,0.1
	l0.3,0.1l0.2,0.1l0.3,0.1l0.2,0.1l0.3,0.1h0.1c1.1,0.3,2.2,0.3,3.2,0c1-0.3,2-0.9,2.7-1.7l8.6-9.1L425,300.9z"/>
<path class="st16" d="M459.9,364.1l7.7-3.5l0.5,6.5c0,0.2,0.1,0.5,0.3,0.6c0.2,0.2,0.4,0.3,0.6,0.3l7.4,0.9c0.6,0.1,1.1,0.2,1.6,0.4
	l7.3,3c0.1,0.1,0.2,0.1,0.3,0.2c0.1,0.1,0.2,0.2,0.2,0.3c0,0.1,0.1,0.3,0.1,0.4c0,0.1,0,0.3-0.1,0.4v0c-0.1,0.2-0.3,0.4-0.5,0.5
	c-0.2,0.1-0.5,0.1-0.7,0.1L476,372l-8.8,2.3c-0.7,0.2-1.4,0.2-2,0.2c-0.7-0.1-1.3-0.3-1.9-0.7c-0.6-0.4-1.1-0.8-1.5-1.4
	c-0.4-0.6-0.7-1.2-0.8-1.9l-0.2-0.9L459.9,364.1z"/>
<path class="st2" d="M434.4,350.2l-4.7,8.1c-2.8,4.9-6.9,9-11.9,11.8c-4.9,2.8-10.5,4.3-16.2,4.3h-143v-11.8l136.1-16.1l18.7-20
	C418.4,343.7,429.6,348.2,434.4,350.2z"/>
<path class="st16" d="M470.3,371.6l4.6,0.4c0.5,0,1,0.3,1.4,0.7c0.4,0.4,0.6,0.9,0.6,1.4c0,0.1,0,0.1,0,0.2c0,0.1-0.1,0.1-0.1,0.2
	c0,0-0.1,0.1-0.2,0.1c-0.1,0-0.1,0-0.2,0h-10L470.3,371.6z"/>
<g class="st17">
	<path class="st15" d="M475.6,372.1c-0.2-0.1-0.3-0.1-0.5-0.1l-3.8-0.3c0,0-0.1,0-0.1,0c0,0-0.1,0-0.1-0.1c0,0,0-0.1,0-0.1
		c0,0,0-0.1,0-0.1c0-0.1,0-0.1,0.1-0.2c0.1,0,0.1-0.1,0.2-0.1l3.8,0.3c0.4,0.1,0.7,0.3,0.9,0.5L475.6,372.1z"/>
</g>
<path class="st15" d="M469,368.1l-2.1-0.1c-0.3,0-0.5-0.1-0.7-0.3c-0.2-0.2-0.3-0.4-0.4-0.7l-0.2-2.6l2.3-0.1l0.2,2.9
	c0,0.2,0.1,0.5,0.3,0.6C468.5,367.9,468.7,368,469,368.1z"/>
<path class="st0" d="M463.1,281.1c-0.2-2.7-1.3-5.2-3.3-7c-2-1.8-4.5-2.9-7.2-2.9l-12.6,2.6c-3.9,0.8-5.5,4.2-7.1,7.7l-1.5,3.4
	c-0.8,1.6-1.3,3-2.6,4l-1.9,1.4c-3.1,2.2-4.1,6.1-2.8,9.8l1.3,4c0.2,0.7,0.2,1.4-0.1,2.1l-6.9,14.8c-1.1,2.3-2.8,4.4-5,5.8
	c-0.8,0.6-1.4,1.4-1.7,2.4c-0.3,1-0.2,2,0.1,2.9c4.8,11.8,16.9,16.7,21.9,18.4c0.5,0.2,1.1,0.2,1.7,0c0.5-0.2,1-0.6,1.2-1.1
	l16.6-26.6l6.7,41.9l8-0.3L463.1,281.1z"/>
<path class="st15" d="M463.1,281.1c-0.1-2.1-0.9-4.2-2.2-5.9c-1.3-1.7-3.1-2.9-5.1-3.6c2.4,2.2,3.3,7.1,3.6,12l6.2,80.5l2.3-0.1
	L463.1,281.1z"/>
<path class="st15" d="M421,304.7l-1.8,1.7c0,0-0.1,0-0.1,0.1c0,0-0.1,0-0.1,0c0,0-0.1,0-0.1,0c0,0-0.1,0-0.1-0.1
	c0-0.1-0.1-0.1-0.1-0.2c0-0.1,0-0.1,0.1-0.2l1.8-1.8L421,304.7z"/>
<path class="st20" d="M427.7,258.2c3.8,0,6.9-3.1,6.9-6.9c0-3.8-3.1-6.9-6.9-6.9c-3.8,0-6.9,3.1-6.9,6.9
	C420.8,255.1,423.9,258.2,427.7,258.2z"/>
<path class="st20" d="M426.4,347.1l-4.3,7.1c-2.1,3.5-5,6.5-8.5,8.5c-3.5,2.1-7.5,3.3-11.6,3.4l-143.4,5.4v2.9h143
	c5.7,0,11.3-1.5,16.2-4.3c4.9-2.8,9-6.9,11.9-11.8l4.5-7.9C431.5,349.6,428.9,348.5,426.4,347.1z"/>
<path class="st16" d="M427.3,262.4c0,0.1,0,0.2,0,0.2c0,0.1-0.1,0.1-0.2,0.2c-0.3,0.1-0.5,0.3-0.7,0.6c-0.1,0.3-0.2,0.6-0.2,0.9
	c0,0.2,0.1,0.4,0.2,0.6c0.1,0.2,0.3,0.3,0.5,0.4l0.7,0.4l2.2,4c0.5,0.9,1.3,1.6,2.3,1.9c1,0.3,2,0.3,3-0.1l3.7-1.6l2,5
	c0.1,0.2,0.1,0.5,0.1,0.7c0,0.2-0.1,0.5-0.3,0.6l-2.9,3.8c-0.3,0.4-0.5,0.8-0.5,1.3c-0.1,0.5,0,1,0.2,1.4c0.2,0.4,0.5,0.8,0.9,1.1
	c0.4,0.3,0.8,0.5,1.3,0.5c1.2,0.2,2.3,0,3.4-0.4c1.1-0.4,2.1-1,2.9-1.9l9.9-10.5l-6.1-8.8c-0.7-0.1-1.4-0.4-2.1-0.8
	c-0.6-0.4-1.2-0.9-1.6-1.5l-5.6-8.1l-14.7-0.4L427.3,262.4z"/>
<path class="st3" d="M440.5,285c-0.4,0-0.7,0-1.1-0.1c-0.6-0.1-1.1-0.3-1.6-0.7c-0.5-0.4-0.8-0.8-1-1.3c-0.2-0.5-0.3-1.1-0.2-1.7
	c0.1-0.6,0.3-1.1,0.6-1.6l2.9-3.8c0.1-0.1,0.2-0.3,0.2-0.4c0-0.1,0-0.3,0-0.4l0.4-0.4c0.2,0.6,0.3,1-0.3,1.9l-2.3,3.8
	c-0.2,0.3-0.4,0.7-0.4,1.1c0,0.4,0,0.8,0.2,1.1c0.1,0.4,0.4,0.7,0.7,0.9c0.3,0.2,0.7,0.4,1.1,0.4c1.1,0.1,2.2,0,3.2-0.3
	c1-0.4,1.9-1,2.7-1.7l9.9-10.5l0.8,0.7l-9.9,10.5c-0.7,0.8-1.6,1.4-2.6,1.8C442.6,284.8,441.6,285.1,440.5,285z"/>
<g class="st11">
	<path class="st18" d="M440.5,285c-0.4,0-0.7,0-1.1-0.1c-0.6-0.1-1.1-0.3-1.6-0.7c-0.5-0.4-0.8-0.8-1-1.3c-0.2-0.5-0.3-1.1-0.2-1.7
		c0.1-0.6,0.3-1.1,0.6-1.6l2.9-3.8c0.1-0.1,0.2-0.3,0.2-0.4c0-0.1,0-0.3,0-0.4l0.4-0.4c0.2,0.6,0.3,1-0.3,1.9l-2.3,3.8
		c-0.2,0.3-0.4,0.7-0.4,1.1c0,0.4,0,0.8,0.2,1.1c0.1,0.4,0.4,0.7,0.7,0.9c0.3,0.2,0.7,0.4,1.1,0.4c1.1,0.1,2.2,0,3.2-0.3
		c1-0.4,1.9-1,2.7-1.7l9.9-10.5l0.8,0.7l-9.9,10.5c-0.7,0.8-1.6,1.4-2.6,1.8C442.6,284.8,441.6,285.1,440.5,285z"/>
</g>
<path class="st15" d="M447.5,261.5l-1.9-2.5l-1.7,2.5L447.5,261.5z"/>
<path class="st15" d="M438.7,269.9l2-0.9c0.1,0,0.1,0,0.2,0c0.1,0,0.1,0,0.2,0.1c0.1,0.1,0.1,0.1,0.1,0.2c0,0.1,0,0.1,0,0.2
	l-1.3,3.4L438.7,269.9z"/>
<path class="st7" d="M454.5,255.2L454.5,255.2c-0.7,0-1.2-0.3-1.6-0.6c-0.4-0.4-0.7-0.9-0.7-1.5c-0.1-1.4-0.3-2.8-0.7-4.2
	c-3.6-12-23.1-12.1-26,1.8c-0.2,0.4-0.3,0.8-0.3,1.3c0,0.2,0,0.4,0,0.5l0,0.2h0c0.1,0.9,0.6,1.8,1.3,2.4c0.7,0.6,1.6,0.9,2.5,0.9
	c0.7,0,1.4-0.2,2-0.6c0.4-0.2,0.8-0.3,1.2-0.2c0.4,0.1,0.8,0.3,1,0.7c0.5,0.8,1.2,1.6,2,2.1c0.8,0.6,1.7,0.9,2.7,1.1s2,0.1,2.9-0.1
	c1-0.2,1.9-0.7,2.6-1.3c0.8,0.4,1.4,1,1.8,1.7c-1.4,1.9-2.2,4.2-2.1,6.5c0,2.1,0.7,4.1,1.8,5.8c1.2,1.7,2.8,3.1,4.7,3.9
	c1.9,0.8,4,1,6,0.7c2-0.4,3.9-1.3,5.4-2.8c1.5-1.4,2.5-3.3,3-5.3c0.5-2,0.3-4.1-0.4-6.1c-0.7-1.9-2-3.6-3.6-4.9
	C458.6,256.1,456.6,255.3,454.5,255.2L454.5,255.2z"/>
<path class="st20" d="M454.5,255.2L454.5,255.2c-0.7,0-1.2-0.3-1.6-0.6c-0.4-0.4-0.7-0.9-0.7-1.5c-0.1-1.4-0.3-2.8-0.7-4.2
	c-3.6-12-23.1-12.1-26,1.8c-0.2,0.4-0.3,0.8-0.3,1.3c0,0.2,0,0.4,0,0.5l0,0.2h0c0.1,0.9,0.6,1.8,1.3,2.4c0.7,0.6,1.6,0.9,2.5,0.9
	c0.7,0,1.4-0.2,2-0.6c0.4-0.2,0.8-0.3,1.2-0.2c0.4,0.1,0.8,0.3,1,0.7c0.5,0.8,1.2,1.6,2,2.1c0.8,0.6,1.7,0.9,2.7,1.1s2,0.1,2.9-0.1
	c1-0.2,1.9-0.7,2.6-1.3c0.8,0.4,1.4,1,1.8,1.7c-1.4,1.9-2.2,4.2-2.1,6.5c0,2.1,0.7,4.1,1.8,5.8c1.2,1.7,2.8,3.1,4.7,3.9
	c1.9,0.8,4,1,6,0.7c2-0.4,3.9-1.3,5.4-2.8c1.5-1.4,2.5-3.3,3-5.3c0.5-2,0.3-4.1-0.4-6.1c-0.7-1.9-2-3.6-3.6-4.9
	C458.6,256.1,456.6,255.3,454.5,255.2L454.5,255.2z"/>
<path class="st15" d="M428.4,267.1c0.6-0.2,1-0.7,1.3-1.2c0-0.1,0.1-0.1,0.2-0.2c0.1,0,0.2,0,0.2,0c0,0,0.1,0,0.1,0.1
	c0,0,0.1,0.1,0.1,0.1c0,0,0,0.1,0,0.1c0,0,0,0.1,0,0.1c-0.3,0.7-0.9,1.2-1.6,1.5L428.4,267.1z"/>
<path class="st15" d="M432.9,281.6l-1.5,3.4c-0.8,1.6-1.3,3-2.6,4l2.7-1.7c0.6-0.4,1-0.9,1.3-1.6l2.1-7.5l0.2-0.9
	C434.3,278.6,433.6,280.1,432.9,281.6z"/>
<path d="M428.4,260.9c0.5,0,0.9-0.4,0.9-0.9s-0.4-0.9-0.9-0.9s-0.9,0.4-0.9,0.9S427.9,260.9,428.4,260.9z"/>
<path class="st5" d="M428,260.6c0.1,0,0.2-0.1,0.2-0.2s-0.1-0.2-0.2-0.2c-0.1,0-0.2,0.1-0.2,0.2S427.9,260.6,428,260.6z"/>
<path class="st18" d="M460,364.5l-0.2-1.4l8.1-0.3l0.1,1.4L460,364.5z"/>
<path class="st5" d="M458.1,304.9c0.4,0,0.7-0.3,0.7-0.7s-0.3-0.7-0.7-0.7c-0.4,0-0.7,0.3-0.7,0.7S457.7,304.9,458.1,304.9z"/>
<path class="st5" d="M435.2,349.2c0.4,0,0.7-0.3,0.7-0.7s-0.3-0.7-0.7-0.7s-0.7,0.3-0.7,0.7S434.8,349.2,435.2,349.2z"/>
<path class="st5" d="M435.2,336.4c0.4,0,0.7-0.3,0.7-0.7s-0.3-0.7-0.7-0.7s-0.7,0.3-0.7,0.7S434.8,336.4,435.2,336.4z"/>
<path class="st5" d="M427,330.2c0.4,0,0.7-0.3,0.7-0.7c0-0.4-0.3-0.7-0.7-0.7s-0.7,0.3-0.7,0.7C426.3,329.9,426.6,330.2,427,330.2z"
	/>
<path class="st5" d="M419.2,322.7c0.4,0,0.7-0.3,0.7-0.7c0-0.4-0.3-0.7-0.7-0.7s-0.7,0.3-0.7,0.7
	C418.6,322.4,418.9,322.7,419.2,322.7z"/>
<path class="st5" d="M456.1,328.7c0.4,0,0.7-0.3,0.7-0.7c0-0.4-0.3-0.7-0.7-0.7s-0.7,0.3-0.7,0.7
	C455.4,328.4,455.7,328.7,456.1,328.7z"/>
<path class="st5" d="M448.9,316.1c0.4,0,0.7-0.3,0.7-0.7s-0.3-0.7-0.7-0.7c-0.4,0-0.7,0.3-0.7,0.7S448.6,316.1,448.9,316.1z"/>
<path class="st5" d="M466.3,359.1c0.4,0,0.7-0.3,0.7-0.7c0-0.4-0.3-0.7-0.7-0.7c-0.4,0-0.7,0.3-0.7,0.7
	C465.6,358.8,465.9,359.1,466.3,359.1z"/>
<path class="st5" d="M459.1,349.8c0.4,0,0.7-0.3,0.7-0.7s-0.3-0.7-0.7-0.7c-0.4,0-0.7,0.3-0.7,0.7S458.7,349.8,459.1,349.8z"/>
<path class="st5" d="M464.5,337c0.4,0,0.7-0.3,0.7-0.7s-0.3-0.7-0.7-0.7c-0.4,0-0.7,0.3-0.7,0.7S464.2,337,464.5,337z"/>
<path class="st5" d="M463.9,317.4c0.4,0,0.7-0.3,0.7-0.7c0-0.4-0.3-0.7-0.7-0.7c-0.4,0-0.7,0.3-0.7,0.7
	C463.2,317.1,463.5,317.4,463.9,317.4z"/>
<path class="st5" d="M424.6,340.5c0.4,0,0.7-0.3,0.7-0.7c0-0.4-0.3-0.7-0.7-0.7c-0.4,0-0.7,0.3-0.7,0.7
	C423.9,340.2,424.2,340.5,424.6,340.5z"/>
<path class="st5" d="M438.1,321.4c0.4,0,0.7-0.3,0.7-0.7c0-0.4-0.3-0.7-0.7-0.7s-0.7,0.3-0.7,0.7
	C437.4,321.1,437.7,321.4,438.1,321.4z"/>
<path class="st5" d="M441.3,308.3c0.4,0,0.7-0.3,0.7-0.7c0-0.4-0.3-0.7-0.7-0.7c-0.4,0-0.7,0.3-0.7,0.7
	C440.6,308,440.9,308.3,441.3,308.3z"/>
<path class="st5" d="M436.6,295.3c0.4,0,0.7-0.3,0.7-0.7c0-0.4-0.3-0.7-0.7-0.7s-0.7,0.3-0.7,0.7C435.9,295,436.2,295.3,436.6,295.3
	z"/>
<path class="st5" d="M427,319c0.4,0,0.7-0.3,0.7-0.7c0-0.4-0.3-0.7-0.7-0.7s-0.7,0.3-0.7,0.7C426.3,318.7,426.6,319,427,319z"/>
<path class="st5" d="M428.9,306.1c0.4,0,0.7-0.3,0.7-0.7s-0.3-0.7-0.7-0.7c-0.4,0-0.7,0.3-0.7,0.7S428.5,306.1,428.9,306.1z"/>
<path class="st5" d="M427.1,293.4c0.4,0,0.7-0.3,0.7-0.7s-0.3-0.7-0.7-0.7c-0.4,0-0.7,0.3-0.7,0.7S426.7,293.4,427.1,293.4z"/>
<path class="st5" d="M417.8,304.3c0.4,0,0.7-0.3,0.7-0.7c0-0.4-0.3-0.7-0.7-0.7c-0.4,0-0.7,0.3-0.7,0.7
	C417.2,304,417.5,304.3,417.8,304.3z"/>
<path class="st5" d="M408.8,301.6c0.4,0,0.7-0.3,0.7-0.7c0-0.4-0.3-0.7-0.7-0.7c-0.4,0-0.7,0.3-0.7,0.7
	C408.1,301.3,408.4,301.6,408.8,301.6z"/>
<path class="st5" d="M405.5,292c0.4,0,0.7-0.3,0.7-0.7c0-0.4-0.3-0.7-0.7-0.7c-0.4,0-0.7,0.3-0.7,0.7
	C404.8,291.7,405.1,292,405.5,292z"/>
<path class="st5" d="M435.3,283c0.4,0,0.7-0.3,0.7-0.7s-0.3-0.7-0.7-0.7c-0.4,0-0.7,0.3-0.7,0.7S434.9,283,435.3,283z"/>
<path class="st5" d="M447.5,296c0.4,0,0.7-0.3,0.7-0.7s-0.3-0.7-0.7-0.7s-0.7,0.3-0.7,0.7S447.1,296,447.5,296z"/>
<path class="st5" d="M453.2,283.7c0.4,0,0.7-0.3,0.7-0.7s-0.3-0.7-0.7-0.7s-0.7,0.3-0.7,0.7S452.9,283.7,453.2,283.7z"/>
<path class="st5" d="M461.2,292c0.4,0,0.7-0.3,0.7-0.7c0-0.4-0.3-0.7-0.7-0.7c-0.4,0-0.7,0.3-0.7,0.7
	C460.5,291.7,460.8,292,461.2,292z"/>
<path class="st5" d="M415,332.2c0.4,0,0.7-0.3,0.7-0.7c0-0.4-0.3-0.7-0.7-0.7s-0.7,0.3-0.7,0.7C414.3,331.9,414.6,332.2,415,332.2z"
	/>
<path class="st5" d="M444.9,330.9c0.4,0,0.7-0.3,0.7-0.7c0-0.4-0.3-0.7-0.7-0.7s-0.7,0.3-0.7,0.7
	C444.2,330.6,444.5,330.9,444.9,330.9z"/>
<path class="st15" d="M426.4,347.1c2.4,1.3,4.9,2.4,7.6,3.3c0.5,0.2,1.1,0.1,1.6-0.1c0.5-0.2,0.9-0.6,1.2-1.1l16.6-26.7l-2.4-15
	c0-0.2-0.1-0.3-0.2-0.4c-0.1-0.1-0.3-0.2-0.4-0.2c-0.2,0-0.3,0-0.5,0.1c-0.1,0.1-0.3,0.2-0.4,0.3L426.4,347.1z"/>
<path class="st0" d="M434.7,263.5l7.9-7.3l2.5,4.9l-4.7,6.6L434.7,263.5z M442.7,256.9l-7.3,6.5l5,3.6l4.4-5.8L442.7,256.9z"/>
<path class="st0" d="M425.9,263.3c0,0,1.5,9.8,8.8,8.9l5.7-4.5l-4.4-5.2L425.9,263.3z"/>
<path class="st9" d="M439.1,268.7l-0.2,0.3l-1.9-5.4l0.5,0.5L439.1,268.7z"/>
<path class="st9" d="M437.5,270l-0.2,0.3l-2.8-7.7l0.3,0L437.5,270z"/>
<path class="st9" d="M435.3,271.7l-0.2,0.3l-3.3-9.2l0.3,0L435.3,271.7z"/>
<path class="st9" d="M432.8,272.2c-0.1,0-0.2,0-0.3-0.1l-3.4-9.2l0.3,0L432.8,272.2z"/>
<path class="st9" d="M429.8,270.8c-0.2-0.1-0.4-0.3-0.6-0.5l-2.9-7.1l0.4,0L429.8,270.8z"/>
<path class="st5" d="M442.2,257c0,0,0-0.1-0.1-0.1c0,0-0.1-0.1-0.1-0.1c0,0-0.1,0-0.1,0c0,0-0.1,0-0.1,0l-14.5,4.7l-0.7-2.2
	c0,0,0-0.1-0.1-0.1c0,0-0.1-0.1-0.1-0.1c0,0-0.1,0-0.1,0c0,0-0.1,0-0.1,0c-0.1,0-0.1,0.1-0.2,0.1c0,0.1,0,0.2,0,0.2l1.5,4.9
	c0,0.1,0.1,0.1,0.1,0.2c0.1,0,0.1,0.1,0.2,0.1c0,0,0.1,0,0.1,0c0,0,0.1,0,0.1-0.1c0,0,0.1-0.1,0.1-0.1c0,0,0-0.1,0-0.1s0-0.1,0-0.1
	l-0.6-2l14.5-4.8c0,0,0.1,0,0.1-0.1c0,0,0.1-0.1,0.1-0.1c0,0,0-0.1,0-0.1C442.2,257,442.2,257,442.2,257z"/>
<path class="st16" d="M444.2,261.8c0,0,3.6-1.7,2.4-5.5c-1.2-3.8-5.8-2.1-4.5,1.7l1.7,4L444.2,261.8z"/>
<path class="st21" d="M444.5,255.1c-0.2,0-0.4,0-0.6,0c-0.2,0.1-0.4,0.2-0.6,0.3c-0.2,0.1-0.3,0.3-0.3,0.5c-0.1,0.2-0.1,0.4-0.1,0.6
	c0,0.5,0.1,1.1,0.4,1.6l0.2,0.4c0.1,0.3,0.7,0.1,0.5-0.2l-0.2-0.4c-0.2-0.4-0.3-0.8-0.3-1.3c0-0.1,0-0.3,0.1-0.4
	c0-0.1,0.1-0.3,0.2-0.4c0.1-0.1,0.2-0.1,0.4-0.2c0.1,0,0.3,0,0.4,0c0,0,0.1,0,0.1,0c0,0,0.1,0,0.1,0c0,0,0,0,0.1-0.1
	c0,0,0-0.1,0-0.1c0-0.1,0-0.1,0-0.2C444.6,255.1,444.6,255.1,444.5,255.1z"/>
<path class="st3" d="M444.6,261.1c0.4,0,0.8-0.4,0.8-0.8c0-0.4-0.4-0.8-0.8-0.8s-0.8,0.4-0.8,0.8
	C443.8,260.8,444.1,261.1,444.6,261.1z"/>
<path class="st15" d="M444.8,259.6c0.1,0.1,0.2,0.3,0.2,0.4c0,0.2,0,0.3-0.1,0.4c-0.1,0.1-0.2,0.3-0.3,0.3c-0.1,0.1-0.3,0.1-0.4,0.1
	c-0.1,0-0.2,0-0.3,0c0.1,0.1,0.2,0.2,0.3,0.2c0.1,0,0.2,0.1,0.4,0.1c0.1,0,0.2,0,0.3-0.1c0.1-0.1,0.2-0.1,0.3-0.3
	c0.1-0.1,0.1-0.2,0.1-0.3c0-0.1,0-0.2,0-0.4c0-0.1-0.1-0.2-0.2-0.3C445,259.7,444.9,259.6,444.8,259.6L444.8,259.6z"/>
<path class="st22" d="M272.5,125.8c0-0.7,0.1-1.3,0.1-2c0-6.9-2.4-13.7-6.8-19c-4.4-5.4-10.5-9-17.3-10.4s-13.9-0.3-20,2.9
	c-6.1,3.2-10.9,8.5-13.6,14.9c-2.1-0.7-4.3-0.9-6.5-0.6c-2.2,0.3-4.3,1-6.1,2.2c-1.9,1.2-3.4,2.8-4.6,4.6c-1.2,1.9-1.9,4-2.2,6.1
	c-5.3,1-10,3.9-13.2,8.1c-3.2,4.3-4.7,9.6-4.3,14.9c0.5,5.3,3,10.3,6.9,13.9c4,3.6,9.1,5.6,14.5,5.6h65.1c5,0,9.8-1.7,13.6-4.9
	c3.8-3.2,6.5-7.5,7.4-12.4c1-4.9,0.2-9.9-2.2-14.3C280.9,131.1,277.1,127.7,272.5,125.8L272.5,125.8z"/>
<path class="st0" d="M272.5,125.8c0-0.7,0.1-1.3,0.1-2c0-8-3.2-15.6-8.8-21.2s-13.3-8.8-21.2-8.8c-1.2,0-2.4,0.1-3.6,0.2
	c7.3,0.9,14,4.4,18.9,9.9c4.9,5.5,7.6,12.6,7.6,19.9c0,0.7,0,1.3-0.1,2c4.6,1.9,8.4,5.3,10.7,9.7c2.4,4.4,3.1,9.4,2.1,14.3
	c-1,4.9-3.6,9.3-7.4,12.4c-3.8,3.2-8.7,4.9-13.6,4.9h7.2c5,0,9.8-1.7,13.6-4.9c3.8-3.2,6.5-7.5,7.4-12.4c1-4.9,0.2-9.9-2.1-14.3
	C280.9,131.1,277.1,127.7,272.5,125.8z"/>
</svg>
