<?xml version="1.0" encoding="utf-8"?>
<!-- Generator: Adobe Illustrator 21.0.0, SVG Export Plug-In . SVG Version: 6.00 Build 0)  -->
<svg version="1.1" id="Layer_1" xmlns="http://www.w3.org/2000/svg" xmlns:xlink="http://www.w3.org/1999/xlink" x="0px" y="0px"
	 viewBox="0 0 94 94" style="enable-background:new 0 0 94 94;" xml:space="preserve">
<style type="text/css">
	.st0{fill:#007B00;}
</style>
<path class="st0" d="M25.5,52.4c3,0,5.4-2.4,5.4-5.4s-2.4-5.4-5.4-5.4S20.1,44,20.1,47S22.5,52.4,25.5,52.4z"/>
<path class="st0" d="M47,52.4c3,0,5.4-2.4,5.4-5.4S50,41.6,47,41.6S41.6,44,41.6,47S44,52.4,47,52.4z"/>
<path class="st0" d="M68.5,52.4c3,0,5.4-2.4,5.4-5.4s-2.4-5.4-5.4-5.4S63.1,44,63.1,47S65.5,52.4,68.5,52.4z"/>
</svg>
