<svg width="88" height="88" viewBox="0 0 88 88" fill="none" xmlns="http://www.w3.org/2000/svg">
<path d="M31.7857 36.7048C31.9696 37.258 31.9265 37.8615 31.6658 38.3829C31.4051 38.9043 30.9481 39.3009 30.3953 39.4856C29.7198 39.6992 29.0932 40.0444 28.5518 40.5013C28.0103 40.9581 27.5646 41.5177 27.2405 42.1476C26.4265 43.6832 25.8677 46.2088 26.3825 50.3316C26.4368 50.9017 26.2666 51.4705 25.9082 51.9171C25.5498 52.3637 25.0314 52.653 24.4631 52.7235C23.8948 52.7939 23.3214 52.64 22.8648 52.2945C22.4081 51.9489 22.1042 51.4389 22.0177 50.8728C21.4325 46.1956 21.9737 42.6712 23.3597 40.0796C24.7677 37.4396 26.9105 36.0096 29.0049 35.3144C29.558 35.1305 30.1615 35.1736 30.6829 35.4343C31.2043 35.695 31.6009 36.1519 31.7857 36.7048ZM53.4953 13.0856C54.0279 12.8853 54.4621 12.4865 54.7069 11.9728C54.9517 11.4591 54.9879 10.8705 54.808 10.3307C54.628 9.7909 54.2459 9.34179 53.7419 9.0777C53.2379 8.81362 52.6511 8.75509 52.1049 8.91442C47.9777 10.2872 45.4037 13.6752 43.8945 17.3052C43.6897 17.7958 43.5019 18.2933 43.3313 18.7968C42.5084 17.2357 41.4552 15.8073 40.2073 14.5596C38.516 12.8648 36.496 11.5338 34.2714 10.6485C32.0468 9.76315 29.6646 9.34224 27.2713 9.41162C24.7193 9.48202 22.6821 11.5236 22.6073 14.0712C22.5379 16.4967 22.972 18.9102 23.8823 21.1594C24.7926 23.4086 26.1593 25.4447 27.8961 27.1392C24.2 27.9398 20.86 29.9091 18.3701 32.7555C15.8803 35.6019 14.373 39.1743 14.0713 42.944L14.0449 43.2696C13.464 50.5173 15.0083 57.7771 18.4889 64.1608L20.0685 67.056C20.1125 67.1308 20.1565 67.2056 20.2093 67.276L24.6093 73.4448C25.6065 74.8414 26.896 76.004 28.3881 76.8517C29.8802 77.6993 31.5391 78.2118 33.2494 78.3533C34.9596 78.4949 36.6802 78.2621 38.2913 77.6713C39.9025 77.0804 41.3656 76.1457 42.5789 74.932C42.7652 74.7456 42.9864 74.5978 43.2299 74.4969C43.4734 74.396 43.7343 74.3441 43.9979 74.3441C44.2614 74.3441 44.5224 74.396 44.7658 74.4969C45.0093 74.5978 45.2305 74.7456 45.4169 74.932C46.6301 76.1457 48.0932 77.0804 49.7044 77.6713C51.3156 78.2621 53.0361 78.4949 54.7464 78.3533C56.4566 78.2118 58.1155 77.6993 59.6076 76.8517C61.0997 76.004 62.3892 74.8414 63.3865 73.4448L67.7865 67.2804C67.8393 67.2086 67.8878 67.1336 67.9317 67.056L69.5069 64.1608C72.9889 57.7776 74.5348 50.5177 73.9553 43.2696L73.9289 42.944C73.7341 40.5147 73.0369 38.1523 71.8814 36.0065C70.726 33.8607 69.1375 31.9783 67.2166 30.4784C65.2956 28.9786 63.0841 27.894 60.7222 27.2935C58.3602 26.6929 55.8993 26.5894 53.4953 26.9896L46.2001 28.204C46.2441 25.2076 46.7721 21.8372 47.9513 18.9948C49.1877 16.0248 51.0181 13.9128 53.4953 13.0856ZM38.3593 27.632L37.6817 27.5176C35.0995 27.0183 32.7266 25.7552 30.8705 23.892C29.5984 22.6242 28.5994 21.1093 27.935 19.4407C27.2706 17.7722 26.9549 15.9852 27.0073 14.19C27.0084 14.0881 27.0497 13.9907 27.1222 13.9191C27.1947 13.8474 27.2925 13.8072 27.3945 13.8072C29.1889 13.7554 30.975 14.0714 32.6428 14.7358C34.3106 15.4002 35.8247 16.3989 37.0921 17.6704C39.7629 20.3412 41.0521 23.8656 40.9553 27.3724C40.9541 27.4736 40.9134 27.5703 40.8419 27.6418C40.7703 27.7134 40.6736 27.7541 40.5725 27.7552C39.8326 27.7759 39.0923 27.7347 38.3593 27.632ZM36.9161 31.8516L37.6817 31.9792L41.1049 32.5512C43.0218 32.8709 44.9784 32.8709 46.8953 32.5512L54.2169 31.328C56.0204 31.0272 57.8667 31.1044 59.6389 31.5546C61.411 32.0049 63.0703 32.8183 64.5115 33.9435C65.9527 35.0687 67.1445 36.481 68.0112 38.091C68.8779 39.7009 69.4007 41.4734 69.5465 43.296L69.5685 43.6216C70.0804 50.0178 68.7165 56.4246 65.6437 62.0576L64.1301 64.8296L59.8049 70.884C59.1793 71.7608 58.3703 72.4907 57.4341 73.023C56.4978 73.5554 55.4568 73.8774 54.3835 73.9666C53.3102 74.0558 52.2303 73.91 51.219 73.5396C50.2077 73.1691 49.2893 72.5827 48.5277 71.8212C47.3262 70.6199 45.6968 69.945 43.9979 69.945C42.2989 69.945 40.6695 70.6199 39.4681 71.8212C38.7064 72.5827 37.788 73.1691 36.7767 73.5396C35.7654 73.91 34.6855 74.0558 33.6122 73.9666C32.5389 73.8774 31.4979 73.5554 30.5617 73.023C29.6254 72.4907 28.8164 71.7608 28.1909 70.884L23.8657 64.8296L22.3521 62.0576C19.2792 56.4246 17.9153 50.0178 18.4273 43.6216L18.4537 43.296C18.5994 41.4734 19.1222 39.7009 19.9889 38.091C20.8557 36.481 22.0474 35.0687 23.4886 33.9435C24.9299 32.8183 26.5891 32.0049 28.3613 31.5546C30.1334 31.1044 31.9797 31.0272 33.7833 31.328L36.9161 31.8516Z" fill="#007B00"/>
</svg>
