<svg width="140" height="27" viewBox="0 0 140 27" fill="none" xmlns="http://www.w3.org/2000/svg">
<g clip-path="url(#clip0_316_2981)">
<path d="M26.0001 13.0797C26.0001 5.85491 20.1793 -0.00158691 13.0001 -0.00158691C5.81758 3.80861e-05 -0.00317383 5.85491 -0.00317383 13.0813C-0.00317383 19.6089 4.75158 25.0202 10.9656 26.0017V16.861H7.66683V13.0813H10.9688V10.1969C10.9688 6.91929 12.9107 5.10904 15.8796 5.10904C17.3031 5.10904 18.79 5.36416 18.79 5.36416V8.58166H17.1503C15.5367 8.58166 15.033 9.59079 15.033 10.6259V13.0797H18.6372L18.062 16.8594H15.0313V26C21.2453 25.0185 26.0001 19.6073 26.0001 13.0797Z" fill="#F3F2EF"/>
</g>
<path d="M68 1.6875C61.7184 1.6875 56.625 6.97676 56.625 13.5C56.625 20.0232 61.7184 25.3125 68 25.3125C74.2816 25.3125 79.375 20.0232 79.375 13.5C79.375 6.97676 74.2816 1.6875 68 1.6875ZM73.4666 10.5917C73.4742 10.7156 73.4742 10.8448 73.4742 10.9714C73.4742 14.8421 70.6355 19.3008 65.4482 19.3008C63.8486 19.3008 62.3658 18.8183 61.1166 17.9877C61.3451 18.0141 61.5635 18.0246 61.7971 18.0246C63.1174 18.0246 64.3311 17.5605 65.2984 16.7748C64.0594 16.7484 63.0184 15.9047 62.6629 14.7445C63.0971 14.8104 63.4881 14.8104 63.935 14.6918C63.297 14.5572 62.7235 14.1974 62.312 13.6735C61.9006 13.1495 61.6764 12.4938 61.6777 11.8178V11.7809C62.051 11.9997 62.4902 12.1342 62.9498 12.1526C62.5635 11.8853 62.2466 11.523 62.0274 11.098C61.8082 10.673 61.6933 10.1984 61.693 9.71631C61.693 9.17051 61.8301 8.67217 62.0764 8.23975C62.7845 9.14503 63.6682 9.88543 64.6699 10.4128C65.6717 10.9402 66.7691 11.2428 67.8908 11.301C67.4922 9.31025 68.9242 7.69922 70.6457 7.69922C71.4582 7.69922 72.1895 8.05254 72.7049 8.62207C73.3422 8.49814 73.9516 8.25029 74.4949 7.91807C74.2842 8.5957 73.8424 9.16787 73.2559 9.5291C73.8246 9.46582 74.373 9.30234 74.8809 9.07295C74.4975 9.6583 74.0176 10.1777 73.4666 10.5917Z" fill="#F3F2EF"/>
<path d="M126.5 9.98521C124.565 9.98521 122.985 11.5646 122.985 13.5C122.985 15.4353 124.565 17.0147 126.5 17.0147C128.435 17.0147 130.015 15.4353 130.015 13.5C130.015 11.5646 128.435 9.98521 126.5 9.98521ZM137.042 13.5C137.042 12.0445 137.055 10.6022 136.973 9.14937C136.891 7.46187 136.506 5.96421 135.272 4.73023C134.036 3.49361 132.541 3.11128 130.853 3.02954C129.398 2.94781 127.955 2.96099 126.503 2.96099C125.047 2.96099 123.605 2.94781 122.152 3.02954C120.465 3.11128 118.967 3.49624 117.733 4.73023C116.496 5.96685 116.114 7.46187 116.032 9.14937C115.95 10.6048 115.964 12.0471 115.964 13.5C115.964 14.9528 115.95 16.3977 116.032 17.8505C116.114 19.538 116.499 21.0357 117.733 22.2697C118.97 23.5063 120.465 23.8886 122.152 23.9704C123.608 24.0521 125.05 24.0389 126.503 24.0389C127.958 24.0389 129.4 24.0521 130.853 23.9704C132.541 23.8886 134.038 23.5037 135.272 22.2697C136.509 21.0331 136.891 19.538 136.973 17.8505C137.057 16.3977 137.042 14.9554 137.042 13.5ZM126.5 18.9079C123.507 18.9079 121.092 16.4926 121.092 13.5C121.092 10.5073 123.507 8.09204 126.5 8.09204C129.493 8.09204 131.908 10.5073 131.908 13.5C131.908 16.4926 129.493 18.9079 126.5 18.9079ZM132.129 9.13355C131.431 9.13355 130.866 8.56929 130.866 7.87056C130.866 7.17183 131.431 6.60757 132.129 6.60757C132.828 6.60757 133.392 7.17183 133.392 7.87056C133.393 8.03648 133.36 8.2008 133.297 8.35413C133.233 8.50746 133.14 8.64677 133.023 8.76409C132.906 8.88141 132.766 8.97444 132.613 9.03783C132.46 9.10123 132.295 9.13376 132.129 9.13355Z" fill="#F3F2EF"/>
<defs>
<clipPath id="clip0_316_2981">
<rect width="26" height="26" fill="white"/>
</clipPath>
</defs>
</svg>
