<svg width="688" height="538" viewBox="0 0 688 538" fill="none" xmlns="http://www.w3.org/2000/svg">
<path d="M103.914 477.417L83.6287 228.3C83.1163 221.954 84.8808 215.634 88.6049 210.475L189.816 70.1462C192.52 66.3977 196.149 63.4163 200.348 61.4943C204.547 59.5718 209.172 58.7747 213.771 59.18L560.27 89.7698C565.756 90.254 570.956 92.427 575.158 95.9904C579.36 99.5533 582.363 104.333 583.746 109.671L631.351 293.241C632.519 297.754 632.492 302.495 631.261 306.992L584.681 478.035L103.914 477.417Z" fill="#007B00"/>
<path opacity="0.9" d="M103.914 477.417L83.6287 228.3C83.1163 221.954 84.8808 215.634 88.6049 210.475L189.816 70.1462C192.52 66.3977 196.149 63.4163 200.348 61.4943C204.547 59.5718 209.172 58.7747 213.771 59.18L560.27 89.7698C565.756 90.254 570.956 92.427 575.158 95.9904C579.36 99.5533 582.363 104.333 583.746 109.671L631.351 293.241C632.519 297.754 632.492 302.495 631.261 306.992L584.681 478.035L103.914 477.417Z" fill="white"/>
<path d="M200.927 171.712H139.687V222.642H200.927V171.712Z" fill="white"/>
<path d="M196.578 176.271H144.046V218.033H196.578V176.271Z" fill="#00BC7D"/>
<path d="M202.27 171.712H200.927V222.642H202.27V171.712Z" fill="#00BC7D"/>
<path opacity="0.6" d="M196.578 176.271H144.046V218.033H196.578V176.271Z" fill="#007B00" fill-opacity="0.6"/>
<path opacity="0.6" d="M202.27 171.712H200.927V222.642H202.27V171.712Z" fill="white"/>
<path d="M174.297 213.608V210.757H163.593V213.608H174.297Z" fill="white"/>
<path d="M168.945 207.385C171.481 207.385 173.96 206.63 176.069 205.218C178.177 203.806 179.82 201.798 180.79 199.45C181.761 197.102 182.014 194.519 181.518 192.027C181.023 189.535 179.801 187.245 178.007 185.449C176.213 183.652 173.928 182.429 171.44 181.934C168.953 181.438 166.374 181.693 164.031 182.666C161.688 183.638 159.685 185.285 158.276 187.398C156.867 189.511 156.115 191.995 156.115 194.536C156.115 196.224 156.447 197.895 157.091 199.454C157.736 201.014 158.681 202.43 159.873 203.624C161.064 204.817 162.479 205.763 164.035 206.409C165.591 207.054 167.26 207.386 168.945 207.385Z" fill="#007B00"/>
<path d="M624.263 266.687V278.02V309.35H571.905H569.22H566.535H563.85H514.178H511.493V145.26H514.178H563.85V144.274H566.535H569.22H571.905V145.26H573.632H577.145H584.525H592.772L591.259 139.432H506.123V315.178H628.773L629.633 312.022V287.395L624.263 266.687Z" fill="#00BC7D"/>
<path d="M514.178 287.256V261.029V222.172V213.77V210.062V145.26H511.493V309.35H514.178V306.718V287.256Z" fill="#00BC7D"/>
<path opacity="0.8" d="M573.632 145.26H571.905V147.143L573.632 145.26Z" fill="white"/>
<path d="M571.905 308.902V309.35H624.262V278.021L592.799 308.902H571.905Z" fill="#3562FF"/>
<path d="M563.85 155.921V145.26H514.178V210.062L563.85 155.921Z" fill="#3562FF"/>
<path d="M514.178 222.172L563.85 167.865V159.728L514.178 213.77V222.172Z" fill="#3562FF"/>
<path d="M561.335 308.902L563.85 306.288V249.134L514.178 306.718V309.35H563.85V308.902H561.335Z" fill="#3562FF"/>
<path d="M571.905 297.922L619.532 248.444L606.796 199.347L571.905 239.796V297.922Z" fill="#3562FF"/>
<path d="M571.905 219.921L602.791 183.897L597.958 165.251L571.905 195.034V219.921Z" fill="#3562FF"/>
<path d="M571.905 159.055L584.524 145.26H577.145L571.905 150.963V159.055Z" fill="#3562FF"/>
<path d="M514.178 287.256L563.85 229.318V204.243L514.178 261.029V287.256Z" fill="#3562FF"/>
<g opacity="0.8">
<path opacity="0.8" d="M571.905 308.902V309.35H624.263V278.021L592.799 308.902H571.905Z" fill="white"/>
<path opacity="0.8" d="M563.85 155.921V145.26H514.178V210.062L563.85 155.921Z" fill="white"/>
<path opacity="0.8" d="M514.178 222.172L563.85 167.865V159.728L514.178 213.77V222.172Z" fill="white"/>
<path opacity="0.8" d="M561.335 308.902L563.85 306.288V249.134L514.178 306.718V309.35H563.85V308.902H561.335Z" fill="white"/>
<path opacity="0.8" d="M571.905 297.922L619.533 248.444L606.797 199.347L571.905 239.796V297.922Z" fill="white"/>
<path opacity="0.8" d="M571.905 219.921L602.792 183.897L597.959 165.251L571.905 195.034V219.921Z" fill="white"/>
<path opacity="0.8" d="M571.905 159.055L584.525 145.26H577.146L571.905 150.963V159.055Z" fill="white"/>
<path opacity="0.8" d="M514.178 287.256L563.85 229.318V204.243L514.178 261.029V287.256Z" fill="white"/>
</g>
<path d="M571.905 308.902H592.799L624.262 278.02V266.687L619.532 248.444L571.905 297.922V308.902Z" fill="#F4F4F4"/>
<path d="M571.905 308.902H592.799L624.262 278.02V266.687L619.532 248.444L571.905 297.922V308.902Z" fill="white"/>
<path d="M563.85 308.902V306.288L561.335 308.902H563.85Z" fill="#F4F4F4"/>
<path d="M563.85 308.902V306.288L561.335 308.902H563.85Z" fill="white"/>
<path d="M571.905 150.963L577.145 145.26H573.632L571.905 147.143V150.963Z" fill="#F4F4F4"/>
<path d="M571.905 150.963L577.145 145.26H573.632L571.905 147.143V150.963Z" fill="white"/>
<path d="M514.178 213.77L563.85 159.728V155.921L514.178 210.062V213.77Z" fill="#F4F4F4"/>
<path d="M514.178 213.77L563.85 159.728V155.921L514.178 210.062V213.77Z" fill="white"/>
<path d="M571.905 239.796L606.796 199.347L602.791 183.897L571.905 219.921V239.796Z" fill="#F4F4F4"/>
<path opacity="0.4" d="M624.263 266.687V278.02V309.35H571.905H569.22H566.535H563.85H514.178H511.493V145.26H514.178H563.85V144.274H566.535H569.22H571.905V145.26H573.632H577.145H584.525H592.772L591.259 139.432H506.123V315.178H628.773L629.633 312.022V287.395L624.263 266.687Z" fill="white"/>
<path d="M571.905 239.796L606.796 199.347L602.791 183.897L571.905 219.921V239.796Z" fill="white"/>
<path d="M514.178 306.718L563.85 249.134V229.318L514.178 287.256V306.718Z" fill="#F4F4F4"/>
<path d="M514.178 306.718L563.85 249.134V229.318L514.178 287.256V306.718Z" fill="white"/>
<path d="M571.905 159.055V195.034L597.958 165.251L592.772 145.26H584.524L571.905 159.055Z" fill="#F4F4F4"/>
<path d="M571.905 159.055V195.034L597.958 165.251L592.772 145.26H584.524L571.905 159.055Z" fill="white"/>
<path d="M514.178 261.029L563.85 204.243V167.865L514.178 222.172V261.029Z" fill="#F4F4F4"/>
<path d="M514.178 261.029L563.85 204.243V167.865L514.178 222.172V261.029Z" fill="white"/>
<path d="M571.905 297.922V239.796V219.921V195.034V159.055V150.963V147.143V145.26V144.274H569.22V309.35H571.905V308.902V297.922Z" fill="#007B00"/>
<path d="M569.22 144.274H566.535H563.85V145.26V155.921V159.728V167.865V204.243V229.318V249.134V306.288V308.902V309.35H566.535H569.22V144.274Z" fill="#00BC7D"/>
<path opacity="0.4" d="M569.22 144.274H566.535H563.85V145.26V155.921V159.728V167.865V204.243V229.318V249.134V306.288V308.902V309.35H566.535H569.22V144.274Z" fill="white"/>
<path d="M488.907 132.317H538.042V392.22H537.371C536.601 392.22 535.765 392.153 535.46 392.153C535.357 392.153 535.013 392.354 534.923 392.354C534.574 392.354 532.923 394.26 532.435 394.26C531.947 394.26 531.281 393.157 530.73 393.157C529.585 393.157 529.075 391.449 528.493 392.22C528.435 392.296 528.327 392.22 528.247 392.22C527.844 392.22 526.613 393.332 525.204 393.493C524.564 393.578 523.915 393.565 523.279 393.457C522.622 393.323 521.566 392.22 521.14 392.22H520.805C520.523 392.22 519.283 394.296 518.361 394.43C517.972 394.457 517.583 394.457 517.193 394.43C515.26 394.43 513.891 392.22 513.367 392.22H513.112C512.58 392.22 510.19 394.157 509.532 394.193C509.183 394.193 508.834 394.193 508.485 394.193C507.783 394.193 506.297 392.22 506.136 392.22H505.849C505.523 392.22 504.296 394.87 503.876 394.91C503.272 394.975 502.663 394.975 502.059 394.91C501.612 394.87 499.584 392.22 499.177 392.22H498.877C498.47 392.22 496.667 394.381 496.277 394.394C495.588 394.421 496.112 394.48 495.427 394.394C494.299 394.26 491.941 392.22 491.476 392.22H488.894L488.907 132.317Z" fill="#3562FF"/>
<path d="M500.985 132.317H488.903V392.22H491.485C491.852 392.22 493.409 393.498 494.617 394.098V132.339H497.249V393.637C497.893 393.009 498.654 392.215 498.9 392.215H499.2C499.446 392.215 500.274 393.188 500.99 393.973V132.317H500.985Z" fill="#3562FF"/>
<path opacity="0.2" d="M504.601 132.317H500.985V393.977C501.46 394.489 501.88 394.914 502.073 394.932C502.677 394.997 503.286 394.997 503.89 394.932C504.046 394.932 504.31 394.529 504.601 394.063V132.317Z" fill="black"/>
<path opacity="0.2" d="M511.22 132.339H508.584V394.197C508.906 394.197 509.228 394.197 509.546 394.197C509.864 394.197 510.526 393.749 511.22 393.3V132.339Z" fill="black"/>
<path opacity="0.2" d="M518.881 132.339H516.25V394.246C516.558 394.364 516.881 394.427 517.212 394.43C517.601 394.457 517.99 394.457 518.38 394.43C518.563 394.394 518.733 394.316 518.881 394.202V132.339Z" fill="black"/>
<path opacity="0.2" d="M526.291 132.339H523.66V393.511C524.179 393.567 524.703 393.567 525.222 393.511C525.589 393.463 525.951 393.365 526.291 393.22V132.339Z" fill="black"/>
<path opacity="0.2" d="M532.919 132.339H530.288V393.067C530.431 393.126 530.583 393.156 530.735 393.157C531.286 393.157 531.89 394.26 532.44 394.26C532.619 394.221 532.789 394.135 532.923 394.009V132.339H532.919Z" fill="black"/>
<path opacity="0.2" d="M497.24 132.339H494.608V394.085C494.868 394.23 495.15 394.33 495.441 394.381C496.125 394.466 495.602 394.408 496.291 394.381C496.653 394.196 496.976 393.94 497.24 393.628V132.339Z" fill="black"/>
<path d="M616.44 361.397V235.774L612.695 221.32V375.161L616.44 361.397Z" fill="#3562FF"/>
<path d="M606.68 392.22H606.944C607.293 392.334 607.62 392.51 607.906 392.74L610.063 384.823V211.165L604.362 189.197V392.22H606.68Z" fill="#3562FF"/>
<path d="M631.257 306.992C631.432 306.36 631.579 305.719 631.705 305.073V294.833C631.602 294.3 631.481 293.766 631.347 293.241L626.675 275.223V323.831L631.257 306.992Z" fill="#3562FF"/>
<path d="M624.039 333.497V265.077L620.056 249.722V348.122L624.039 333.497Z" fill="#3562FF"/>
<path d="M620.056 348.122V249.722L616.44 235.779V361.401L620.056 348.122Z" fill="#3562FF"/>
<path opacity="0.2" d="M620.056 348.122V249.722L616.44 235.779V361.401L620.056 348.122Z" fill="black"/>
<path d="M626.674 323.831V275.223L624.039 265.077V333.497L626.674 323.831Z" fill="#3562FF"/>
<path opacity="0.2" d="M626.674 323.831V275.223L624.039 265.077V333.497L626.674 323.831Z" fill="black"/>
<path d="M631.705 294.833V305.073C632.362 301.692 632.362 298.214 631.705 294.833Z" fill="#3562FF"/>
<path opacity="0.2" d="M631.705 294.833V305.073C632.362 301.692 632.362 298.214 631.705 294.833Z" fill="black"/>
<path d="M610.063 384.823L612.695 375.161V221.32L610.063 211.165V384.823Z" fill="#3562FF"/>
<path opacity="0.2" d="M610.063 384.823L612.695 375.161V221.32L610.063 211.165V384.823Z" fill="black"/>
<path d="M589.358 132.46H477.035V126.632H588.015L589.358 132.46Z" fill="#15247C"/>
<path opacity="0.2" d="M481.062 126.56H483.748C484.334 127.429 484.652 128.451 484.665 129.499C484.678 130.547 484.387 131.576 483.824 132.46H481.062V126.56Z" fill="black"/>
<path d="M478.377 135.15C481.344 135.15 483.747 132.741 483.747 129.77C483.747 126.799 481.344 124.39 478.377 124.39C475.41 124.39 473.007 126.799 473.007 129.77C473.007 132.741 475.41 135.15 478.377 135.15Z" fill="#15247C"/>
<path d="M302.729 335.425C303.177 333.103 303.459 331.013 303.683 328.785C303.912 326.566 304.024 324.336 304.018 322.105C304.025 319.782 303.82 317.463 303.405 315.178C302.922 312.816 302.206 310.247 300.313 307.861C298.82 305.967 296.66 304.718 294.276 304.369C293.552 304.266 292.819 304.235 292.088 304.275C289.381 304.482 286.805 305.52 284.709 307.247C282.829 308.759 281.233 310.593 279.992 312.663C278.704 314.706 277.822 316.979 277.396 319.357C277.131 320.781 277.247 322.251 277.732 323.616C278.072 324.491 278.666 325.243 279.437 325.777C280.174 326.269 281.031 326.552 281.916 326.597C282.827 326.651 283.733 326.433 284.521 325.97C285.198 325.546 285.773 324.976 286.203 324.302C286.871 323.213 287.32 322.004 287.523 320.742C287.895 318.496 287.874 316.202 287.461 313.963C287.109 311.727 286.296 309.589 285.071 307.687C284.407 306.681 283.516 305.845 282.471 305.248C281.378 304.654 280.117 304.445 278.891 304.656C276.537 305.077 274.734 306.485 273.23 307.987C270.272 311.089 268.214 314.811 266.553 318.63C268.505 314.963 270.872 311.457 273.919 308.722C275.436 307.418 277.231 306.297 279.066 306.185C280.9 306.073 282.368 307.189 283.241 308.83C284.111 310.544 284.617 312.42 284.726 314.34C284.892 316.246 284.728 318.165 284.243 320.016C284.044 320.808 283.694 321.555 283.209 322.213C283.057 322.404 282.862 322.557 282.641 322.661C282.508 322.701 282.366 322.701 282.234 322.661C282.041 322.612 281.822 322.513 281.786 322.446C281.722 322.352 281.679 322.244 281.661 322.132C281.566 321.488 281.615 320.831 281.804 320.209C282.699 316.994 285.219 313.676 288.016 311.865C289.233 311.007 290.688 310.552 292.177 310.565C292.488 310.582 292.797 310.63 293.099 310.708C293.349 310.772 293.59 310.868 293.815 310.995C294.242 311.244 294.601 311.595 294.858 312.018C295.489 312.972 295.927 314.578 296.102 316.308C296.267 318.152 296.267 320.006 296.102 321.849C295.95 323.786 295.699 325.713 295.35 327.624C294.997 329.529 294.545 331.551 294.048 333.295L302.729 335.425Z" fill="#00BC7D"/>
<path opacity="0.1" d="M302.729 335.425C303.177 333.103 303.459 331.013 303.683 328.785C303.912 326.566 304.024 324.336 304.018 322.105C304.025 319.782 303.82 317.463 303.405 315.178C302.922 312.816 302.206 310.247 300.313 307.861C298.82 305.967 296.66 304.718 294.276 304.369C293.552 304.266 292.819 304.235 292.088 304.275C289.381 304.482 286.805 305.52 284.709 307.247C282.829 308.759 281.233 310.593 279.992 312.663C278.704 314.706 277.822 316.979 277.396 319.357C277.131 320.781 277.247 322.251 277.732 323.616C278.072 324.491 278.666 325.243 279.437 325.777C280.174 326.269 281.031 326.552 281.916 326.597C282.827 326.651 283.733 326.433 284.521 325.97C285.198 325.546 285.773 324.976 286.203 324.302C286.871 323.213 287.32 322.004 287.523 320.742C287.895 318.496 287.874 316.202 287.461 313.963C287.109 311.727 286.296 309.589 285.071 307.687C284.407 306.681 283.516 305.845 282.471 305.248C281.378 304.654 280.117 304.445 278.891 304.656C276.537 305.077 274.734 306.485 273.23 307.987C270.272 311.089 268.214 314.811 266.553 318.63C268.505 314.963 270.872 311.457 273.919 308.722C275.436 307.418 277.231 306.297 279.066 306.185C280.9 306.073 282.368 307.189 283.241 308.83C284.111 310.544 284.617 312.42 284.726 314.34C284.892 316.246 284.728 318.165 284.243 320.016C284.044 320.808 283.694 321.555 283.209 322.213C283.057 322.404 282.862 322.557 282.641 322.661C282.508 322.701 282.366 322.701 282.234 322.661C282.041 322.612 281.822 322.513 281.786 322.446C281.722 322.352 281.679 322.244 281.661 322.132C281.566 321.488 281.615 320.831 281.804 320.209C282.699 316.994 285.219 313.676 288.016 311.865C289.233 311.007 290.688 310.552 292.177 310.565C292.488 310.582 292.797 310.63 293.099 310.708C293.349 310.772 293.59 310.868 293.815 310.995C294.242 311.244 294.601 311.595 294.858 312.018C295.489 312.972 295.927 314.578 296.102 316.308C296.267 318.152 296.267 320.006 296.102 321.849C295.95 323.786 295.699 325.713 295.35 327.624C294.997 329.529 294.545 331.551 294.048 333.295L302.729 335.425Z" fill="#007B00"/>
<path opacity="0.2" d="M295.856 324.508C295.856 324.508 300.863 316.846 301.673 309.96C301.673 309.96 303.727 315.967 304.005 319.823L295.055 330.135L295.856 324.508Z" fill="black"/>
<path d="M309.67 437.331C315.707 445.877 314.481 471.969 318.132 475.623C321.784 479.277 359.244 478.896 361.768 476.749C364.292 474.601 363.11 465.375 365.93 463.859C367.039 463.267 309.67 437.331 309.67 437.331Z" fill="#007B00"/>
<path d="M469.611 437.748C462.075 448.656 466.147 471.97 462.496 475.623C458.844 479.277 421.379 478.896 418.86 476.749C416.34 474.601 417.49 464.877 415.996 463.03C415.208 462.052 469.611 437.748 469.611 437.748Z" fill="#007B00"/>
<path opacity="0.3" d="M365.925 463.864C365.128 464.285 364.654 465.321 364.323 466.643C342.042 463.837 325.216 458.058 314.154 453.122C313.29 446.764 312.042 440.698 309.679 437.336C309.67 437.336 367.044 463.267 365.925 463.864Z" fill="black"/>
<path opacity="0.3" d="M469.615 437.744C466.805 441.815 465.588 447.607 465.019 453.467C453.277 458.753 437.087 464.227 416.833 466.814C416.694 465.07 416.479 463.635 416 463.03C415.204 462.048 469.615 437.744 469.615 437.744Z" fill="black"/>
<path d="M417.343 293.726C417.343 293.726 451.756 267.274 489.028 270.412C501.867 271.497 480.552 299.357 480.167 321.119L417.343 293.726Z" fill="#00BC7D"/>
<path opacity="0.1" d="M417.343 293.726C417.343 293.726 451.756 267.274 489.028 270.412C501.867 271.497 480.552 299.357 480.167 321.119L417.343 293.726Z" fill="#007B00"/>
<path opacity="0.3" d="M465.794 310.489C465.579 311.865 477.429 316.963 478.677 316.178C479.926 315.394 481.148 298.245 490.841 279.989C492.25 277.299 468.085 295.757 465.794 310.489Z" fill="black"/>
<path d="M387.132 279.59C311.778 279.59 282.941 338.684 282.941 373.291C282.941 407.409 304.868 465.397 387.132 465.397C469.396 465.397 496.725 416.251 496.725 372.484C496.725 328.718 463.257 279.59 387.132 279.59Z" fill="#007B00"/>
<path opacity="0.15" d="M414.43 447.437C332.144 447.437 310.238 389.449 310.238 355.331C310.238 335.896 319.349 308.704 340.704 288.637C299.61 306.53 282.941 346.974 282.941 373.264C282.941 407.383 304.868 465.37 387.132 465.37C426.817 465.37 453.707 453.942 470.918 437.206C455.944 443.639 437.315 447.437 414.43 447.437Z" fill="black"/>
<path d="M412.868 291.932C412.868 291.932 442.806 264.136 480.078 267.274C492.917 268.359 471.603 296.218 471.218 317.98L412.868 291.932Z" fill="#007B00"/>
<path opacity="0.3" d="M456.844 307.35C456.629 308.727 468.501 313.824 469.727 313.04C470.953 312.255 472.197 295.106 481.89 276.85C483.3 274.16 459.135 292.618 456.844 307.35Z" fill="black"/>
<path d="M489.664 338.357C491.31 343.316 506.252 339.294 510.02 342.428C515.95 347.36 514.307 408.512 508.888 413.44C505.845 416.206 485.282 414.484 480.521 417.847C475.76 421.209 489.664 338.357 489.664 338.357Z" fill="#007B00"/>
<path opacity="0.3" d="M510.817 376.448C510.817 391.346 509.573 403.419 508.038 403.419C506.503 403.419 505.263 391.346 505.263 376.448C505.263 361.549 506.507 349.476 508.038 349.476C509.568 349.476 510.817 361.554 510.817 376.448Z" fill="black"/>
<path opacity="0.4" d="M353.395 299.769C353.668 299.679 381.297 290.677 407.01 297.72L409.574 288.332C380.934 280.495 351.56 290.125 350.321 290.538L353.4 299.769L351.86 295.156L353.395 299.769Z" fill="black"/>
<path d="M338.1 438.304C294.818 409.974 302.461 360.648 302.841 358.501C303.107 357.042 302.782 355.537 301.94 354.318C301.098 353.098 299.807 352.264 298.351 351.998C296.894 351.732 295.392 352.057 294.175 352.9C292.958 353.744 292.125 355.038 291.86 356.497C291.748 357.116 289.139 371.816 293.014 390.028C298.201 414.381 312.301 434.103 335.204 443.747C342.114 446.67 343.68 441.945 338.1 438.304Z" fill="white"/>
<path d="M462.545 368.83C466.949 368.83 470.515 364.175 470.515 358.434C470.515 352.691 466.949 348.037 462.545 348.037C458.142 348.037 454.575 352.691 454.575 358.434C454.575 364.175 458.142 368.83 462.545 368.83Z" fill="black"/>
<path opacity="0.3" d="M463.162 348.068C465.919 349.705 467.834 353.327 467.834 357.537C467.834 363.28 464.254 367.934 459.869 367.934C459.663 367.934 459.462 367.934 459.26 367.902C460.254 368.505 461.39 368.826 462.554 368.83C466.953 368.83 470.519 364.177 470.519 358.434C470.51 352.959 467.27 348.476 463.162 348.068Z" fill="black"/>
<path d="M602.684 479.398L86.5332 478.73C86.4329 478.744 86.3318 478.73 86.2356 478.699C86.1394 478.672 86.0512 478.618 85.976 478.551C85.9008 478.484 85.8409 478.403 85.7997 478.309C85.7585 478.219 85.7371 478.12 85.7371 478.017C85.7371 477.914 85.7585 477.816 85.7997 477.726C85.8409 477.632 85.9008 477.551 85.976 477.484C86.0512 477.417 86.1394 477.363 86.2356 477.336C86.3318 477.304 86.4329 477.291 86.5332 477.305L602.689 477.973C602.792 477.955 602.894 477.964 602.997 477.99C603.096 478.017 603.19 478.067 603.27 478.138C603.351 478.206 603.414 478.286 603.454 478.385C603.499 478.479 603.521 478.582 603.521 478.685C603.521 478.788 603.499 478.892 603.454 478.986C603.414 479.084 603.351 479.165 603.27 479.232C603.19 479.304 603.096 479.353 602.997 479.38C602.894 479.407 602.792 479.416 602.689 479.398H602.684Z" fill="#00BC7D"/>
<g opacity="0.6">
<path opacity="0.6" d="M602.684 479.398L86.5332 478.73C86.4329 478.744 86.3318 478.73 86.2356 478.699C86.1394 478.672 86.0512 478.618 85.976 478.551C85.9008 478.484 85.8409 478.403 85.7997 478.309C85.7585 478.219 85.7371 478.12 85.7371 478.017C85.7371 477.914 85.7585 477.816 85.7997 477.726C85.8409 477.632 85.9008 477.551 85.976 477.484C86.0512 477.417 86.1394 477.363 86.2356 477.336C86.3318 477.304 86.4329 477.291 86.5332 477.305L602.689 477.973C602.792 477.955 602.894 477.964 602.997 477.99C603.096 478.017 603.19 478.067 603.27 478.138C603.351 478.206 603.414 478.286 603.454 478.385C603.499 478.479 603.521 478.582 603.521 478.685C603.521 478.788 603.499 478.892 603.454 478.986C603.414 479.084 603.351 479.165 603.27 479.232C603.19 479.304 603.096 479.353 602.997 479.38C602.894 479.407 602.792 479.416 602.689 479.398H602.684Z" fill="white"/>
</g>
<path d="M176.512 462.29H117.187V469.835H176.512V462.29Z" fill="#3562FF"/>
<path opacity="0.2" d="M128.352 462.29H117.071V469.835H128.352V462.29Z" fill="black"/>
<path opacity="0.2" d="M169.45 462.29H161.176V469.835H169.45V462.29Z" fill="white"/>
<path d="M176.512 447.204H117.187V454.749H176.512V447.204Z" fill="#3562FF"/>
<path opacity="0.2" d="M128.352 447.204H117.071V454.749H128.352V447.204Z" fill="black"/>
<path opacity="0.2" d="M169.45 447.204H161.176V454.749H169.45V447.204Z" fill="white"/>
<path d="M176.512 424.572H117.187V432.117H176.512V424.572Z" fill="#3562FF"/>
<path opacity="0.2" d="M128.352 424.572H117.071V432.117H128.352V424.572Z" fill="black"/>
<path opacity="0.2" d="M169.45 424.572H161.176V432.117H169.45V424.572Z" fill="white"/>
<path d="M183.573 469.835H124.248V477.381H183.573V469.835Z" fill="#3562FF"/>
<path opacity="0.2" d="M135.83 469.418H124.548V476.964H135.83V469.418Z" fill="black"/>
<path opacity="0.2" d="M176.512 469.835H168.238V477.381H176.512V469.835Z" fill="white"/>
<path d="M183.573 439.658H124.248V447.204H183.573V439.658Z" fill="#3562FF"/>
<path opacity="0.2" d="M135.83 439.658H124.548V447.204H135.83V439.658Z" fill="black"/>
<path opacity="0.2" d="M176.512 439.658H168.238V447.204H176.512V439.658Z" fill="white"/>
<path d="M183.573 432.117H124.248V439.663H183.573V432.117Z" fill="#3562FF"/>
<path opacity="0.2" d="M135.83 432.117H124.548V439.663H135.83V432.117Z" fill="black"/>
<path opacity="0.2" d="M176.512 432.117H168.238V439.663H176.512V432.117Z" fill="white"/>
<path d="M183.573 454.749H124.248V462.294H183.573V454.749Z" fill="#3562FF"/>
<path opacity="0.2" d="M135.83 454.749H124.548V462.294H135.83V454.749Z" fill="black"/>
<path opacity="0.2" d="M176.512 454.749H168.238V462.294H176.512V454.749Z" fill="white"/>
<g opacity="0.3">
<path opacity="0.3" d="M176.512 469.598H124.248V470.078H176.512V469.598Z" fill="black"/>
</g>
<g opacity="0.3">
<path opacity="0.3" d="M176.512 462.052H124.248V462.532H176.512V462.052Z" fill="black"/>
</g>
<g opacity="0.3">
<path opacity="0.3" d="M176.512 454.507H124.248V454.987H176.512V454.507Z" fill="black"/>
</g>
<g opacity="0.3">
<path opacity="0.3" d="M176.512 446.966H124.248V447.446H176.512V446.966Z" fill="black"/>
</g>
<g opacity="0.3">
<path opacity="0.3" d="M183.573 439.42H124.248V439.9H183.573V439.42Z" fill="black"/>
</g>
<g opacity="0.3">
<path opacity="0.3" d="M183.573 431.875H124.248V432.355H183.573V431.875Z" fill="black"/>
</g>
<path d="M571.838 463.89H517.046V470.857H571.838V463.89Z" fill="#3562FF"/>
<path opacity="0.2" d="M527.356 463.89H516.934V470.857H527.356V463.89Z" fill="black"/>
<path opacity="0.2" d="M565.318 463.89H557.674V470.857H565.318V463.89Z" fill="white"/>
<path d="M571.838 449.956H517.046V456.923H571.838V449.956Z" fill="#3562FF"/>
<path opacity="0.2" d="M527.356 449.956H516.934V456.923H527.356V449.956Z" fill="black"/>
<path opacity="0.2" d="M565.318 449.956H557.674V456.923H565.318V449.956Z" fill="white"/>
<path d="M571.838 429.055H517.046V436.022H571.838V429.055Z" fill="#3562FF"/>
<path opacity="0.2" d="M527.356 429.055H516.934V436.022H527.356V429.055Z" fill="black"/>
<path opacity="0.2" d="M565.318 429.055H557.674V436.022H565.318V429.055Z" fill="white"/>
<path d="M578.358 470.862H523.566V477.829H578.358V470.862Z" fill="#3562FF"/>
<path opacity="0.2" d="M534.266 470.472H523.843V477.439H534.266V470.472Z" fill="black"/>
<path opacity="0.2" d="M571.842 470.862H564.199V477.829H571.842V470.862Z" fill="white"/>
<path d="M578.358 442.989H523.566V449.956H578.358V442.989Z" fill="#3562FF"/>
<path opacity="0.2" d="M534.266 442.989H523.843V449.956H534.266V442.989Z" fill="black"/>
<path opacity="0.2" d="M571.842 442.989H564.199V449.956H571.842V442.989Z" fill="white"/>
<path d="M578.358 436.022H523.566V442.989H578.358V436.022Z" fill="#3562FF"/>
<path opacity="0.2" d="M534.266 436.022H523.843V442.989H534.266V436.022Z" fill="black"/>
<path opacity="0.2" d="M571.842 436.022H564.199V442.989H571.842V436.022Z" fill="white"/>
<path d="M578.358 456.923H523.566V463.89H578.358V456.923Z" fill="#3562FF"/>
<path opacity="0.2" d="M534.266 456.923H523.843V463.89H534.266V456.923Z" fill="black"/>
<path opacity="0.2" d="M571.842 456.923H564.199V463.89H571.842V456.923Z" fill="white"/>
<g opacity="0.3">
<path opacity="0.3" d="M571.838 470.638H523.566V471.077H571.838V470.638Z" fill="black"/>
</g>
<g opacity="0.3">
<path opacity="0.3" d="M571.838 463.671H523.566V464.11H571.838V463.671Z" fill="black"/>
</g>
<g opacity="0.3">
<path opacity="0.3" d="M571.838 456.704H523.566V457.143H571.838V456.704Z" fill="black"/>
</g>
<g opacity="0.3">
<path opacity="0.3" d="M571.838 449.737H523.566V450.176H571.838V449.737Z" fill="black"/>
</g>
<g opacity="0.3">
<path opacity="0.3" d="M578.358 442.77H523.566V443.209H578.358V442.77Z" fill="black"/>
</g>
<g opacity="0.3">
<path opacity="0.3" d="M578.358 435.802H523.566V436.242H578.358V435.802Z" fill="black"/>
</g>
<path d="M383.418 259.137C387.435 259.837 391.233 261.47 394.507 263.904C397.783 266.337 400.444 269.505 402.279 273.153C404.114 276.801 405.072 280.829 405.076 284.914C405.08 288.999 404.13 293.028 402.302 296.68C402.971 296.815 403.637 296.964 404.303 297.129C406.246 293.317 407.228 289.087 407.161 284.807C407.095 280.528 405.983 276.33 403.922 272.581C401.861 268.832 398.914 265.646 395.34 263.302C391.766 260.959 387.672 259.528 383.418 259.137Z" fill="#3562FF"/>
<path opacity="0.2" d="M383.418 259.137C387.435 259.837 391.233 261.47 394.507 263.904C397.783 266.337 400.444 269.505 402.279 273.153C404.114 276.801 405.072 280.829 405.076 284.914C405.08 288.999 404.13 293.028 402.302 296.68C402.971 296.815 403.637 296.964 404.303 297.129C406.246 293.317 407.228 289.087 407.161 284.807C407.095 280.528 405.983 276.33 403.922 272.581C401.861 268.832 398.914 265.646 395.34 263.302C391.766 260.959 387.672 259.528 383.418 259.137Z" fill="black"/>
<path d="M383.418 259.137C382.458 258.968 381.49 258.854 380.518 258.796C375.715 258.505 370.926 259.548 366.676 261.811C362.428 264.074 358.886 267.467 356.439 271.619C353.993 275.77 352.739 280.518 352.815 285.337C352.89 290.157 354.293 294.863 356.868 298.935C358.282 298.563 360.112 298.115 362.278 297.662C362.126 297.461 361.976 297.26 361.831 297.057L361.669 296.823C361.517 296.599 361.365 296.375 361.222 296.142C361.168 296.057 361.115 295.972 361.065 295.886C360.922 295.653 360.788 295.438 360.654 295.183C360.609 295.097 360.56 295.012 360.51 294.927C360.376 294.676 360.246 294.42 360.121 294.165C360.085 294.089 360.045 294.017 360.009 293.945C359.862 293.627 359.714 293.304 359.562 292.977V292.941C359.414 292.591 359.28 292.237 359.154 291.878L359.114 291.757C359.011 291.452 358.913 291.143 358.823 290.834C358.792 290.726 358.761 290.614 358.734 290.506C358.667 290.26 358.6 290.013 358.541 289.767C358.51 289.632 358.483 289.502 358.452 289.368C358.403 289.139 358.358 288.919 358.318 288.677C358.291 288.534 358.268 288.39 358.246 288.229C358.206 288.005 358.174 287.781 358.148 287.547L358.094 287.099C358.072 286.866 358.054 286.651 358.036 286.395C358.036 286.247 358.013 286.108 358.009 285.947C358.009 285.691 358.009 285.431 358.009 285.171C358.009 285.05 358.009 284.925 358.009 284.799C358.009 284.418 358.009 284.032 358.045 283.642C358.207 280.887 358.91 278.191 360.113 275.708C361.317 273.225 362.997 271.004 365.057 269.172C367.118 267.34 369.519 265.933 372.122 265.031C374.726 264.129 377.482 263.75 380.232 263.916C380.567 263.916 380.907 263.965 381.239 264.001L381.583 264.046C381.798 264.073 382.031 264.1 382.232 264.135L382.644 264.207L383.203 264.31L383.651 264.409C383.821 264.445 383.986 264.485 384.152 264.53L384.626 264.656L385.074 264.786L385.584 264.942L385.915 265.059C386.938 265.418 387.931 265.856 388.886 266.368H388.931C389.177 266.503 389.419 266.642 389.661 266.785L389.71 266.812C392.087 268.23 394.161 270.105 395.812 272.33C397.462 274.554 398.657 277.085 399.327 279.774C399.996 282.464 400.128 285.26 399.714 288C399.3 290.741 398.349 293.373 396.915 295.743C398.705 295.967 400.515 296.257 402.347 296.613C404.161 292.961 405.099 288.935 405.086 284.855C405.072 280.775 404.108 276.756 402.269 273.116C400.431 269.476 397.769 266.316 394.496 263.889C391.223 261.462 387.43 259.835 383.418 259.137Z" fill="#3562FF"/>
<path opacity="0.2" d="M383.418 259.137C382.458 258.968 381.49 258.854 380.518 258.796C375.715 258.505 370.926 259.548 366.676 261.811C362.428 264.074 358.886 267.467 356.439 271.619C353.993 275.77 352.739 280.518 352.815 285.337C352.89 290.157 354.293 294.863 356.868 298.935C358.282 298.563 360.112 298.115 362.278 297.662C362.126 297.461 361.976 297.26 361.831 297.057L361.669 296.823C361.517 296.599 361.365 296.375 361.222 296.142C361.168 296.057 361.115 295.972 361.065 295.886C360.922 295.653 360.788 295.438 360.654 295.183C360.609 295.097 360.56 295.012 360.51 294.927C360.376 294.676 360.246 294.42 360.121 294.165C360.085 294.089 360.045 294.017 360.009 293.945C359.862 293.627 359.714 293.304 359.562 292.977V292.941C359.414 292.591 359.28 292.237 359.154 291.878L359.114 291.757C359.011 291.452 358.913 291.143 358.823 290.834C358.792 290.726 358.761 290.614 358.734 290.506C358.667 290.26 358.6 290.013 358.541 289.767C358.51 289.632 358.483 289.502 358.452 289.368C358.403 289.139 358.358 288.919 358.318 288.677C358.291 288.534 358.268 288.39 358.246 288.229C358.206 288.005 358.174 287.781 358.148 287.547L358.094 287.099C358.072 286.866 358.054 286.651 358.036 286.395C358.036 286.247 358.013 286.108 358.009 285.947C358.009 285.691 358.009 285.431 358.009 285.171C358.009 285.05 358.009 284.925 358.009 284.799C358.009 284.418 358.009 284.032 358.045 283.642C358.207 280.887 358.91 278.191 360.113 275.708C361.317 273.225 362.997 271.004 365.057 269.172C367.118 267.34 369.519 265.933 372.122 265.031C374.726 264.129 377.482 263.75 380.232 263.916C380.567 263.916 380.907 263.965 381.239 264.001L381.583 264.046C381.798 264.073 382.031 264.1 382.232 264.135L382.644 264.207L383.203 264.31L383.651 264.409C383.821 264.445 383.986 264.485 384.152 264.53L384.626 264.656L385.074 264.786L385.584 264.942L385.915 265.059C386.938 265.418 387.931 265.856 388.886 266.368H388.931C389.177 266.503 389.419 266.642 389.661 266.785L389.71 266.812C392.087 268.23 394.161 270.105 395.812 272.33C397.462 274.554 398.657 277.085 399.327 279.774C399.996 282.464 400.128 285.26 399.714 288C399.3 290.741 398.349 293.373 396.915 295.743C398.705 295.967 400.515 296.257 402.347 296.613C404.161 292.961 405.099 288.935 405.086 284.855C405.072 280.775 404.108 276.756 402.269 273.116C400.431 269.476 397.769 266.316 394.496 263.889C391.223 261.462 387.43 259.835 383.418 259.137Z" fill="white"/>
<path d="M361.674 296.797C361.522 296.573 361.37 296.348 361.227 296.115C361.37 296.348 361.522 296.59 361.674 296.797Z" fill="#3562FF"/>
<path d="M359.119 291.749C359.016 291.444 358.918 291.134 358.828 290.825C358.918 291.134 359.016 291.444 359.119 291.749Z" fill="#3562FF"/>
<path d="M358.738 290.52C358.671 290.273 358.604 290.027 358.546 289.78C358.604 290.004 358.671 290.251 358.738 290.52Z" fill="#3562FF"/>
<path d="M360.009 293.936C359.861 293.618 359.714 293.295 359.562 292.968C359.714 293.295 359.861 293.618 360.009 293.936Z" fill="#3562FF"/>
<path d="M360.51 294.918C360.376 294.667 360.246 294.412 360.121 294.156C360.237 294.412 360.376 294.667 360.51 294.918Z" fill="#3562FF"/>
<path d="M358.448 289.359C358.398 289.13 358.354 288.911 358.313 288.668C358.363 288.897 358.407 289.13 358.448 289.359Z" fill="#3562FF"/>
<path d="M361.065 295.9C360.922 295.667 360.788 295.452 360.654 295.196C360.788 295.411 360.922 295.644 361.065 295.9Z" fill="#3562FF"/>
<path d="M389.674 266.879C390.927 267.63 392.098 268.509 393.169 269.502C389.965 267.045 385.561 265.064 381.252 264.804C378.502 264.637 375.746 265.016 373.143 265.918C370.539 266.819 368.139 268.227 366.078 270.059C364.018 271.891 362.338 274.112 361.136 276.596C359.933 279.078 359.231 281.775 359.07 284.53C358.908 287.18 359.696 290.17 360.452 292.56C360.976 294.326 361.729 296.015 362.69 297.586C365.961 296.913 369.962 296.241 374.428 295.765C372.799 295.012 372.047 293.524 372.217 290.668C372.262 289.788 372.38 288.914 372.571 288.054L376.849 288.31C376.772 288.703 376.722 289.102 376.701 289.502C376.594 291.296 376.647 292.291 378.384 292.394C380.12 292.497 380.308 291.892 380.447 289.614C380.514 288.493 380.536 288.108 379.95 287.53C378.751 286.256 375.64 285.252 374.199 284.082C372.906 283.073 372.678 281.742 372.893 278.15C373.139 274.017 374.459 272.703 378.401 272.743L378.545 270.354L380.975 270.502L380.831 272.891C384.443 273.264 385.638 274.613 385.418 278.271C385.374 279.059 385.276 279.842 385.123 280.616L380.885 280.361C380.943 280.015 380.966 279.63 381.001 279.052C381.1 277.429 380.916 276.604 379.296 276.505C377.909 276.424 377.506 276.864 377.381 278.796C377.26 280.805 377.381 281.002 378.639 281.661C380.026 282.405 381.386 282.912 382.586 283.566C384.268 284.521 385.405 284.974 385.163 288.946C384.98 292.085 384.532 294.026 383.44 295.16C387.925 295.051 392.412 295.268 396.865 295.81C398.3 293.44 399.251 290.808 399.665 288.068C400.079 285.327 399.948 282.531 399.278 279.842C398.608 277.152 397.414 274.622 395.763 272.397C394.112 270.172 392.038 268.297 389.661 266.879H389.674Z" fill="#3562FF"/>
<path d="M383.181 264.355L383.628 264.454L383.181 264.355Z" fill="#3562FF"/>
<path d="M382.21 264.18L382.622 264.252L382.21 264.18Z" fill="#3562FF"/>
<path d="M381.216 264.068L381.561 264.113L381.216 264.068Z" fill="#3562FF"/>
<path d="M358.251 288.233C358.21 288.009 358.179 287.785 358.152 287.552C358.179 287.781 358.21 288.009 358.251 288.233Z" fill="#3562FF"/>
<path d="M384.125 264.575L384.599 264.7L384.125 264.575Z" fill="#3562FF"/>
<path d="M358.098 287.108C358.076 286.875 358.058 286.66 358.04 286.404C358.058 286.637 358.076 286.875 358.098 287.108Z" fill="#3562FF"/>
<path d="M388.877 266.436C389.124 266.57 389.365 266.709 389.607 266.853C389.383 266.709 389.141 266.57 388.877 266.436Z" fill="#3562FF"/>
<path d="M358 284.822C358 284.441 358 284.055 358.036 283.665C358 284.055 358 284.441 358 284.822Z" fill="#3562FF"/>
<path d="M359.566 292.932C359.419 292.582 359.284 292.228 359.159 291.87C359.284 292.228 359.419 292.582 359.566 292.932Z" fill="#3562FF"/>
<path d="M362.278 297.653C362.13 297.456 361.978 297.254 361.831 297.052C361.977 297.253 362.126 297.453 362.278 297.653Z" fill="#3562FF"/>
<path d="M385.038 264.831L385.548 264.987L385.038 264.831Z" fill="#3562FF"/>
<path d="M385.879 265.104C386.902 265.463 387.895 265.901 388.851 266.413C387.895 265.901 386.902 265.463 385.879 265.104Z" fill="#3562FF"/>
<path d="M382.612 264.252L383.172 264.355L382.612 264.252Z" fill="#3562FF"/>
<path opacity="0.2" d="M382.612 264.252L383.172 264.355L382.612 264.252Z" fill="white"/>
<path opacity="0.2" d="M382.612 264.252L383.172 264.355L382.612 264.252Z" fill="black"/>
<path d="M381.561 264.091C381.776 264.118 382.009 264.145 382.21 264.181C381.995 264.145 381.776 264.118 381.561 264.091Z" fill="#3562FF"/>
<path opacity="0.2" d="M381.561 264.091C381.776 264.118 382.009 264.145 382.21 264.181C381.995 264.145 381.776 264.118 381.561 264.091Z" fill="white"/>
<path opacity="0.2" d="M381.561 264.091C381.776 264.118 382.009 264.145 382.21 264.181C381.995 264.145 381.776 264.118 381.561 264.091Z" fill="black"/>
<path d="M380.209 263.961C380.545 263.961 380.885 264.01 381.216 264.046C380.885 264.01 380.545 263.983 380.209 263.961Z" fill="#3562FF"/>
<path opacity="0.2" d="M380.209 263.961C380.545 263.961 380.885 264.01 381.216 264.046C380.885 264.01 380.545 263.983 380.209 263.961Z" fill="white"/>
<path opacity="0.2" d="M380.209 263.961C380.545 263.961 380.885 264.01 381.216 264.046C380.885 264.01 380.545 263.983 380.209 263.961Z" fill="black"/>
<path d="M383.624 264.454C383.794 264.49 383.96 264.535 384.125 264.575C383.955 264.517 383.794 264.49 383.624 264.454Z" fill="#3562FF"/>
<path opacity="0.2" d="M383.624 264.454C383.794 264.49 383.96 264.535 384.125 264.575C383.955 264.517 383.794 264.49 383.624 264.454Z" fill="white"/>
<path opacity="0.2" d="M383.624 264.454C383.794 264.49 383.96 264.535 384.125 264.575C383.955 264.517 383.794 264.49 383.624 264.454Z" fill="black"/>
<path d="M358.322 288.668C358.295 288.525 358.273 288.381 358.25 288.22C358.273 288.381 358.295 288.525 358.322 288.668Z" fill="#3562FF"/>
<path opacity="0.2" d="M358.322 288.668C358.295 288.525 358.273 288.381 358.25 288.22C358.273 288.381 358.295 288.525 358.322 288.668Z" fill="white"/>
<path opacity="0.2" d="M358.322 288.668C358.295 288.525 358.273 288.381 358.25 288.22C358.273 288.381 358.295 288.525 358.322 288.668Z" fill="black"/>
<path d="M361.222 296.133C361.168 296.048 361.115 295.963 361.065 295.878C361.133 295.963 361.168 296.048 361.222 296.133Z" fill="#3562FF"/>
<path opacity="0.2" d="M361.222 296.133C361.168 296.048 361.115 295.963 361.065 295.878C361.133 295.963 361.168 296.048 361.222 296.133Z" fill="white"/>
<path opacity="0.2" d="M361.222 296.133C361.168 296.048 361.115 295.963 361.065 295.878C361.133 295.963 361.168 296.048 361.222 296.133Z" fill="black"/>
<path d="M360.654 295.174C360.609 295.089 360.559 295.003 360.51 294.918C360.559 295.003 360.609 295.089 360.654 295.174Z" fill="#3562FF"/>
<path opacity="0.2" d="M360.654 295.174C360.609 295.089 360.559 295.003 360.51 294.918C360.559 295.003 360.609 295.089 360.654 295.174Z" fill="white"/>
<path opacity="0.2" d="M360.654 295.174C360.609 295.089 360.559 295.003 360.51 294.918C360.559 295.003 360.609 295.089 360.654 295.174Z" fill="black"/>
<path d="M360.121 294.156C360.085 294.08 360.045 294.008 360.009 293.936C360.045 294.008 360.085 294.08 360.121 294.156Z" fill="#3562FF"/>
<path opacity="0.2" d="M360.121 294.156C360.085 294.08 360.045 294.008 360.009 293.936C360.045 294.008 360.085 294.08 360.121 294.156Z" fill="white"/>
<path opacity="0.2" d="M360.121 294.156C360.085 294.08 360.045 294.008 360.009 293.936C360.045 294.008 360.085 294.08 360.121 294.156Z" fill="black"/>
<path d="M361.835 297.048L361.674 296.815L361.835 297.048Z" fill="#3562FF"/>
<path opacity="0.2" d="M361.835 297.048L361.674 296.815L361.835 297.048Z" fill="white"/>
<path opacity="0.2" d="M361.835 297.048L361.674 296.815L361.835 297.048Z" fill="black"/>
<path d="M384.599 264.7L385.047 264.83L384.599 264.7Z" fill="#3562FF"/>
<path opacity="0.2" d="M384.599 264.7L385.047 264.83L384.599 264.7Z" fill="white"/>
<path opacity="0.2" d="M384.599 264.7L385.047 264.83L384.599 264.7Z" fill="black"/>
<path d="M389.625 266.853L389.674 266.879L389.625 266.853Z" fill="#3562FF"/>
<path opacity="0.2" d="M389.625 266.853L389.674 266.879L389.625 266.853Z" fill="white"/>
<path opacity="0.2" d="M389.625 266.853L389.674 266.879L389.625 266.853Z" fill="black"/>
<path d="M358.546 289.758C358.515 289.623 358.488 289.493 358.457 289.359C358.488 289.493 358.515 289.623 358.546 289.758Z" fill="#3562FF"/>
<path opacity="0.2" d="M358.546 289.758C358.515 289.623 358.488 289.493 358.457 289.359C358.488 289.493 358.515 289.623 358.546 289.758Z" fill="white"/>
<path opacity="0.2" d="M358.546 289.758C358.515 289.623 358.488 289.493 358.457 289.359C358.488 289.493 358.515 289.623 358.546 289.758Z" fill="black"/>
<path d="M358.152 287.552L358.099 287.104L358.152 287.552Z" fill="#3562FF"/>
<path opacity="0.2" d="M358.152 287.552L358.099 287.104L358.152 287.552Z" fill="white"/>
<path opacity="0.2" d="M358.152 287.552L358.099 287.104L358.152 287.552Z" fill="black"/>
<path d="M358.04 286.404C358.04 286.256 358.018 286.113 358.014 285.956C358 286.117 358.031 286.256 358.04 286.404Z" fill="#3562FF"/>
<path opacity="0.2" d="M358.04 286.404C358.04 286.256 358.018 286.113 358.014 285.956C358 286.117 358.031 286.256 358.04 286.404Z" fill="white"/>
<path opacity="0.2" d="M358.04 286.404C358.04 286.256 358.018 286.113 358.014 285.956C358 286.117 358.031 286.256 358.04 286.404Z" fill="black"/>
<path d="M385.548 264.987L385.879 265.104L385.548 264.987Z" fill="#3562FF"/>
<path opacity="0.2" d="M385.548 264.987L385.879 265.104L385.548 264.987Z" fill="white"/>
<path opacity="0.2" d="M385.548 264.987L385.879 265.104L385.548 264.987Z" fill="black"/>
<path d="M359.159 291.865L359.119 291.744L359.159 291.865Z" fill="#3562FF"/>
<path opacity="0.2" d="M359.159 291.865L359.119 291.744L359.159 291.865Z" fill="white"/>
<path opacity="0.2" d="M359.159 291.865L359.119 291.744L359.159 291.865Z" fill="black"/>
<path d="M358.828 290.825C358.796 290.717 358.765 290.605 358.738 290.498C358.765 290.605 358.796 290.717 358.828 290.825Z" fill="#3562FF"/>
<path opacity="0.2" d="M358.828 290.825C358.796 290.717 358.765 290.605 358.738 290.498C358.765 290.605 358.796 290.717 358.828 290.825Z" fill="white"/>
<path opacity="0.2" d="M358.828 290.825C358.796 290.717 358.765 290.605 358.738 290.498C358.765 290.605 358.796 290.717 358.828 290.825Z" fill="black"/>
<path d="M359.07 284.508C359.231 281.752 359.933 279.056 361.136 276.573C362.339 274.09 364.018 271.869 366.078 270.036C368.139 268.204 370.539 266.797 373.143 265.895C375.747 264.994 378.502 264.615 381.252 264.781C385.579 265.041 389.965 267.023 393.169 269.48C392.098 268.487 390.927 267.607 389.674 266.857L389.625 266.83C389.383 266.686 389.142 266.548 388.895 266.413H388.851C387.895 265.901 386.902 265.463 385.879 265.104L385.548 264.987L385.038 264.83L384.59 264.7L384.116 264.575C383.951 264.535 383.785 264.49 383.615 264.454L383.167 264.355L382.608 264.252L382.196 264.18C381.982 264.144 381.749 264.118 381.547 264.091L381.203 264.046C380.872 264.01 380.532 263.983 380.196 263.961C377.446 263.795 374.69 264.174 372.087 265.076C369.483 265.978 367.082 267.385 365.022 269.217C362.961 271.049 361.281 273.27 360.078 275.753C358.874 278.236 358.171 280.932 358.009 283.687C358.009 284.077 357.978 284.463 357.973 284.844C357.973 284.97 357.973 285.095 357.973 285.216C357.973 285.476 357.973 285.736 357.973 285.992C357.973 286.135 357.973 286.279 358 286.44C358 286.673 358.036 286.888 358.058 287.144L358.112 287.592C358.139 287.821 358.17 288.041 358.21 288.274C358.233 288.422 358.255 288.565 358.282 288.722C358.322 288.951 358.367 289.17 358.416 289.413C358.447 289.547 358.474 289.677 358.506 289.812C358.564 290.058 358.631 290.305 358.698 290.551C358.725 290.659 358.756 290.771 358.788 290.879C358.877 291.188 358.976 291.497 359.078 291.802L359.119 291.923C359.244 292.282 359.378 292.636 359.526 292.986V293.022C359.66 293.349 359.808 293.672 359.973 293.99C360.009 294.062 360.05 294.133 360.085 294.21C360.211 294.465 360.34 294.721 360.475 294.972C360.524 295.057 360.573 295.142 360.618 295.227C360.752 295.465 360.886 295.676 361.03 295.931C361.079 296.017 361.132 296.102 361.186 296.187C361.334 296.416 361.486 296.635 361.634 296.868L361.795 297.101C361.938 297.303 362.09 297.505 362.242 297.702L362.658 297.617C361.697 296.047 360.945 294.357 360.421 292.591C359.696 290.148 358.895 287.157 359.07 284.508Z" fill="#3562FF"/>
<path opacity="0.2" d="M359.07 284.508C359.231 281.752 359.933 279.056 361.136 276.573C362.339 274.09 364.018 271.869 366.078 270.036C368.139 268.204 370.539 266.797 373.143 265.895C375.747 264.994 378.502 264.615 381.252 264.781C385.579 265.041 389.965 267.023 393.169 269.48C392.098 268.487 390.927 267.607 389.674 266.857L389.625 266.83C389.383 266.686 389.142 266.548 388.895 266.413H388.851C387.895 265.901 386.902 265.463 385.879 265.104L385.548 264.987L385.038 264.83L384.59 264.7L384.116 264.575C383.951 264.535 383.785 264.49 383.615 264.454L383.167 264.355L382.608 264.252L382.196 264.18C381.982 264.144 381.749 264.118 381.547 264.091L381.203 264.046C380.872 264.01 380.532 263.983 380.196 263.961C377.446 263.795 374.69 264.174 372.087 265.076C369.483 265.978 367.082 267.385 365.022 269.217C362.961 271.049 361.281 273.27 360.078 275.753C358.874 278.236 358.171 280.932 358.009 283.687C358.009 284.077 357.978 284.463 357.973 284.844C357.973 284.97 357.973 285.095 357.973 285.216C357.973 285.476 357.973 285.736 357.973 285.992C357.973 286.135 357.973 286.279 358 286.44C358 286.673 358.036 286.888 358.058 287.144L358.112 287.592C358.139 287.821 358.17 288.041 358.21 288.274C358.233 288.422 358.255 288.565 358.282 288.722C358.322 288.951 358.367 289.17 358.416 289.413C358.447 289.547 358.474 289.677 358.506 289.812C358.564 290.058 358.631 290.305 358.698 290.551C358.725 290.659 358.756 290.771 358.788 290.879C358.877 291.188 358.976 291.497 359.078 291.802L359.119 291.923C359.244 292.282 359.378 292.636 359.526 292.986V293.022C359.66 293.349 359.808 293.672 359.973 293.99C360.009 294.062 360.05 294.133 360.085 294.21C360.211 294.465 360.34 294.721 360.475 294.972C360.524 295.057 360.573 295.142 360.618 295.227C360.752 295.465 360.886 295.676 361.03 295.931C361.079 296.017 361.132 296.102 361.186 296.187C361.334 296.416 361.486 296.635 361.634 296.868L361.795 297.101C361.938 297.303 362.09 297.505 362.242 297.702L362.658 297.617C361.697 296.047 360.945 294.357 360.421 292.591C359.696 290.148 358.895 287.157 359.07 284.508Z" fill="black"/>
<path d="M382.612 283.557C381.413 282.903 380.053 282.396 378.665 281.652C377.39 280.993 377.287 280.796 377.408 278.787C377.52 276.855 377.936 276.415 379.323 276.496C380.943 276.595 381.113 277.42 381.028 279.043C380.992 279.621 380.97 280.007 380.912 280.352L385.15 280.607C385.302 279.834 385.401 279.05 385.445 278.263C385.664 274.591 384.47 273.241 380.858 272.883L381.001 270.493L378.571 270.345L378.428 272.735C374.486 272.694 373.166 274.008 372.92 278.141C372.705 281.728 372.92 283.073 374.226 284.073C375.667 285.243 378.777 286.247 379.977 287.521C380.563 288.099 380.54 288.485 380.473 289.605C380.335 291.883 380.106 292.488 378.41 292.385C376.714 292.282 376.62 291.273 376.728 289.493C376.749 289.093 376.799 288.694 376.875 288.301L372.597 288.045C372.407 288.905 372.289 289.779 372.244 290.659C372.074 293.528 372.826 295.003 374.454 295.757C377.292 295.456 380.317 295.245 383.467 295.174C384.559 294.039 385.007 292.08 385.19 288.96C385.409 284.965 384.273 284.512 382.612 283.557Z" fill="white"/>
<path opacity="0.3" d="M355.315 296.133C355.315 296.133 381.27 287.83 405.435 294.555L404.092 297.245L401.855 296.734C387.982 294.107 372.32 295.003 356.657 299.038L355.315 296.133Z" fill="black"/>
<path d="M358.47 187.923L354.836 187.475C362.506 188.439 367.612 199.948 366.355 213.927C365.053 228.48 357.356 240.204 349.166 240.105C348.849 240.105 348.535 240.078 348.222 240.042L351.856 240.49C352.169 240.527 352.485 240.548 352.8 240.553C360.989 240.652 368.686 228.928 369.989 214.375C371.242 200.405 366.136 188.892 358.47 187.923Z" fill="#3562FF"/>
<path opacity="0.2" d="M358.47 187.923L354.836 187.475C362.506 188.439 367.612 199.948 366.355 213.927C365.053 228.48 357.356 240.204 349.166 240.105C348.849 240.105 348.535 240.078 348.222 240.042L351.856 240.49C352.169 240.527 352.485 240.548 352.8 240.553C360.989 240.652 368.686 228.928 369.989 214.375C371.242 200.405 366.136 188.892 358.47 187.923Z" fill="black"/>
<path d="M366.355 213.927C365.053 228.48 357.356 240.204 349.166 240.105C340.977 240.006 335.397 228.117 336.703 213.568C338.01 199.02 345.703 187.305 353.892 187.403C362.081 187.502 367.662 199.378 366.355 213.927Z" fill="#3562FF"/>
<g opacity="0.2">
<path opacity="0.2" d="M366.355 213.927C365.053 228.48 357.356 240.204 349.166 240.105C340.977 240.006 335.397 228.117 336.703 213.568C338.01 199.02 345.703 187.305 353.892 187.403C362.081 187.502 367.662 199.378 366.355 213.927Z" fill="white"/>
</g>
<path d="M363.115 214.016C362.032 226.121 355.628 235.877 348.817 235.792C342.007 235.707 337.361 225.821 338.449 213.716C339.536 201.611 345.936 191.869 352.769 191.949C359.602 192.03 364.203 201.911 363.115 214.016Z" fill="#3562FF"/>
<path d="M363.115 214.016C362.032 226.121 355.628 235.877 348.817 235.792C342.007 235.707 337.361 225.821 338.449 213.716C339.536 201.611 345.936 191.869 352.769 191.949C359.602 192.03 364.203 201.911 363.115 214.016Z" fill="#3562FF"/>
<path opacity="0.2" d="M339.321 214.155C340.404 202.05 346.808 192.304 353.641 192.389C354.566 192.4 355.479 192.597 356.326 192.967C355.252 192.321 354.026 191.97 352.773 191.949C345.962 191.869 339.559 201.611 338.453 213.716C337.514 224.158 340.843 232.945 346.146 235.236C341.349 232.398 338.435 224.01 339.321 214.155Z" fill="black"/>
<path d="M347.434 228.359L347.882 225.435C345.327 223.92 344.204 222.113 344.799 218.132C344.918 217.295 345.094 216.466 345.327 215.653L348.576 217.37C348.504 217.657 348.419 218.016 348.343 218.504C348.088 220.235 348.03 221.257 349.35 221.952C350.67 222.647 350.871 222.109 351.202 219.894C351.363 218.805 351.422 218.428 351.028 217.652C350.236 215.976 347.954 213.918 346.969 212.272C346.074 210.829 346.034 209.425 346.553 205.933C347.153 201.898 348.289 201.055 351.305 202.445L351.65 200.123L353.494 201.095L353.149 203.422C355.879 205.027 356.662 206.776 356.129 210.345C356.027 211.1 355.877 211.849 355.682 212.586L352.46 210.883C352.54 210.56 352.594 210.183 352.679 209.618C352.912 208.04 352.854 207.161 351.628 206.511C350.571 205.955 350.213 206.251 349.931 208.13C349.641 210.08 349.699 210.318 350.612 211.407C351.601 212.618 352.594 213.586 353.449 214.644C354.644 216.168 355.467 217.007 354.89 220.876C354.08 226.323 353.006 227.785 349.744 226.386L349.296 229.349L347.434 228.359Z" fill="white"/>
<path d="M283.523 205.91C283.386 205.836 283.226 205.813 283.074 205.847C282.922 205.88 282.787 205.968 282.695 206.094L278.475 209.789H278.224L281.742 202.875C281.812 202.708 281.818 202.52 281.759 202.348C281.699 202.176 281.578 202.033 281.418 201.945C281.259 201.858 281.073 201.832 280.897 201.874C280.72 201.916 280.565 202.022 280.462 202.171L279.298 203.924L280.641 201.136C280.735 200.938 280.753 200.712 280.692 200.501C280.631 200.291 280.495 200.11 280.31 199.992C280.111 199.872 279.874 199.833 279.648 199.884C279.422 199.935 279.224 200.072 279.097 200.266L274.447 207.578L274.112 207.493L277.043 201.355C277.114 201.207 277.129 201.037 277.083 200.878C277.037 200.72 276.934 200.584 276.794 200.497C276.654 200.41 276.486 200.378 276.324 200.408C276.162 200.437 276.016 200.526 275.915 200.656L273.977 203.543L271.548 207.278L271.431 206.753C272.671 203.032 272.089 202.49 271.628 202.068C271.587 202.033 271.539 202.008 271.486 201.995C271.433 201.983 271.379 201.983 271.326 201.995C271.274 202.008 271.225 202.033 271.184 202.068C271.143 202.104 271.111 202.148 271.091 202.198L268.37 208.874L266.133 216.944L266.934 217.567L266.182 217.029L244.765 245.642L228.064 251.587L231.729 261.966L249.826 254.734C251.455 254.083 252.82 252.906 253.706 251.389L271.87 221.082L276.604 216.15C277.839 214.649 278.985 213.078 280.037 211.443L283.805 206.798C283.846 206.722 283.872 206.638 283.88 206.551C283.888 206.465 283.879 206.377 283.852 206.294C283.826 206.211 283.784 206.135 283.727 206.069C283.67 206.003 283.6 205.949 283.523 205.91Z" fill="#FC9D9D"/>
<path opacity="0.1" d="M283.523 205.91C283.386 205.836 283.226 205.813 283.074 205.847C282.922 205.88 282.787 205.968 282.695 206.094L278.475 209.789H278.224L281.742 202.875C281.812 202.708 281.818 202.52 281.759 202.348C281.699 202.176 281.578 202.033 281.418 201.945C281.259 201.858 281.073 201.832 280.897 201.874C280.72 201.916 280.565 202.022 280.462 202.171L279.298 203.924L280.641 201.136C280.735 200.938 280.753 200.712 280.692 200.501C280.631 200.291 280.495 200.11 280.31 199.992C280.111 199.872 279.874 199.833 279.648 199.884C279.422 199.935 279.224 200.072 279.097 200.266L274.447 207.578L274.112 207.493L277.043 201.355C277.114 201.207 277.129 201.037 277.083 200.878C277.037 200.72 276.934 200.584 276.794 200.497C276.654 200.41 276.486 200.378 276.324 200.408C276.162 200.437 276.016 200.526 275.915 200.656L273.977 203.543L271.548 207.278L271.431 206.753C272.671 203.032 272.089 202.49 271.628 202.068C271.587 202.033 271.539 202.008 271.486 201.995C271.433 201.983 271.379 201.983 271.326 201.995C271.274 202.008 271.225 202.033 271.184 202.068C271.143 202.104 271.111 202.148 271.091 202.198L268.37 208.874L266.133 216.944L266.934 217.567L266.182 217.029L244.765 245.642L228.064 251.587L231.729 261.966L249.826 254.734C251.455 254.083 252.82 252.906 253.706 251.389L271.87 221.082L276.604 216.15C277.839 214.649 278.985 213.078 280.037 211.443L283.805 206.798C283.846 206.722 283.872 206.638 283.88 206.551C283.888 206.465 283.879 206.377 283.852 206.294C283.826 206.211 283.784 206.135 283.727 206.069C283.67 206.003 283.6 205.949 283.523 205.91Z" fill="black"/>
<path d="M216.559 255.133L227.979 251.201L228.86 253.586L217.494 257.133L216.559 255.133Z" fill="#00BC7D"/>
<path opacity="0.2" d="M216.559 255.133L227.979 251.201L228.86 253.586L217.494 257.133L216.559 255.133Z" fill="black"/>
<path d="M222.112 433.771L223.155 453.395C223.481 456.058 223.71 457.242 223.678 459.223L230.078 470.795L237.264 474.382L239.099 471.848L231.161 458.008C230.503 457.112 230.078 455.345 230.078 453.669L231.662 435.883L222.112 433.771Z" fill="#FC9D9D"/>
<path opacity="0.15" d="M237.703 473.346L229.487 469.714L223.67 459.214C223.701 457.242 223.473 456.076 223.146 453.386L223.674 443.438H231.89L232.015 447.154C230.863 447.556 229.689 447.892 228.498 448.158C228.141 448.219 227.82 448.41 227.596 448.696C227.373 448.979 227.263 449.338 227.29 449.701L225.656 456.807C225.724 457.757 226.045 458.676 226.587 459.461L232.807 468.495C232.807 468.495 235.211 471.934 239.005 471.678L239.059 471.772L237.703 473.346Z" fill="black"/>
<path d="M245.042 476.439C245.097 476.569 245.119 476.713 245.106 476.852C245.092 476.991 245.044 477.125 244.966 477.242C244.889 477.363 244.782 477.457 244.658 477.524C244.534 477.592 244.395 477.623 244.254 477.623H236.477C235.37 477.623 234.278 477.372 233.279 476.897C232.279 476.417 231.399 475.726 230.7 474.866L225.715 468.75C225.63 468.643 225.515 468.567 225.384 468.526C225.254 468.486 225.115 468.49 224.986 468.531C224.857 468.576 224.744 468.656 224.663 468.768C224.582 468.876 224.537 469.01 224.533 469.145L224.269 477.592H223.303L222.121 469.374C221.628 465.912 222.153 462.38 223.634 459.214L231.805 469.145C232.669 470.194 233.794 471.001 235.066 471.481C236.338 471.956 237.714 472.09 239.055 471.871L242.827 474.175C243.828 474.615 244.622 475.426 245.042 476.439Z" fill="#007B00"/>
<path d="M174.189 393.036L154.589 393.852C151.931 394.148 150.745 394.363 148.771 394.3L137.136 400.577L133.476 407.75L135.977 409.62L149.913 401.819C150.808 401.169 152.598 400.765 154.258 400.783L171.988 402.576L174.189 393.036Z" fill="#FC9D9D"/>
<path opacity="0.15" d="M134.51 408.194L138.228 400.003L148.776 394.309C150.745 394.363 151.931 394.148 154.593 393.861L164.519 394.502L164.425 402.733L160.711 402.818C160.325 401.659 160.005 400.478 159.753 399.281C159.695 398.924 159.507 398.601 159.225 398.375C158.943 398.149 158.588 398.036 158.227 398.057L151.148 396.327C150.198 396.384 149.281 396.694 148.489 397.223L139.401 403.348C139.401 403.348 135.937 405.719 136.147 409.521L136.058 409.575L134.51 408.194Z" fill="black"/>
<path d="M131.332 415.506C131.202 415.56 131.061 415.58 130.921 415.565C130.781 415.551 130.648 415.501 130.532 415.422C130.416 415.342 130.321 415.235 130.257 415.11C130.193 414.984 130.161 414.845 130.164 414.704L130.254 406.916C130.268 405.807 130.529 404.714 131.018 403.719C131.506 402.723 132.21 401.849 133.077 401.16L139.24 396.228C139.347 396.145 139.427 396.03 139.467 395.9C139.508 395.77 139.507 395.63 139.465 395.5C139.423 395.37 139.343 395.256 139.235 395.174C139.126 395.092 138.995 395.045 138.859 395.04L130.428 394.677V393.722L138.649 392.637C142.108 392.18 145.624 392.745 148.767 394.264L138.765 402.334C137.706 403.188 136.888 404.306 136.395 405.576C135.902 406.846 135.75 408.223 135.955 409.57L133.614 413.323C133.164 414.319 132.346 415.101 131.332 415.506Z" fill="#007B00"/>
<path d="M188.97 229.188C188.97 229.188 181.3 227.727 177.975 233.671C177.564 234.411 177.143 235.151 176.677 235.864C174.972 238.513 171.254 243.58 167.812 244.512L169.074 245.767C169.074 245.767 172.842 244.185 174.252 241.818C174.252 241.818 173.16 245.759 170.806 247.494C170.806 247.494 172.704 251.582 180.414 256.128C180.414 256.128 186.433 252.43 186.952 245.212C186.952 244.871 186.952 244.526 186.952 244.18C186.952 243.284 187.162 240.266 190.272 236.944L188.97 229.188Z" fill="#15247C"/>
<path d="M214.156 225.346C214.156 225.346 217.23 228.672 218.183 230.546L219.342 232.824L222.569 235.828C222.701 235.955 222.789 236.12 222.82 236.302C222.851 236.483 222.822 236.669 222.739 236.832L221.32 237.778L222.072 243.947C222.3 245.924 221.548 246.816 219.642 247.341L215.588 248.605C215.392 248.664 215.226 248.792 215.118 248.965C215.011 249.139 214.971 249.346 215.006 249.547L218.138 258.962L205.161 263.575L203.165 247.251C203.165 247.251 201.509 230.215 201.375 230.304L214.156 225.346Z" fill="#FC9D9D"/>
<path d="M218.828 233.062C218.781 232.845 218.652 232.656 218.468 232.533C218.284 232.411 218.06 232.366 217.843 232.407C217.744 232.443 217.653 232.498 217.575 232.57C217.497 232.641 217.434 232.727 217.39 232.823C217.345 232.919 217.32 233.023 217.316 233.128C217.311 233.234 217.328 233.339 217.364 233.438C217.409 233.655 217.536 233.845 217.72 233.968C217.903 234.09 218.128 234.135 218.344 234.093C218.444 234.058 218.536 234.003 218.615 233.932C218.693 233.861 218.757 233.775 218.802 233.679C218.847 233.583 218.872 233.479 218.877 233.373C218.881 233.267 218.864 233.161 218.828 233.062Z" fill="black"/>
<path d="M218.568 232.864C218.551 232.836 218.527 232.813 218.498 232.799C218.469 232.784 218.436 232.779 218.403 232.784C218.371 232.788 218.341 232.801 218.316 232.823C218.292 232.844 218.274 232.872 218.265 232.904C218.256 232.936 218.257 232.969 218.268 233C218.278 233.031 218.297 233.058 218.323 233.078C218.348 233.098 218.379 233.111 218.412 233.113C218.444 233.116 218.477 233.109 218.505 233.093C218.541 233.068 218.567 233.032 218.578 232.99C218.59 232.948 218.586 232.904 218.568 232.864Z" fill="white"/>
<path opacity="0.15" d="M215.113 249.695L215.35 250.524L211.82 249.874C211.766 249.854 211.721 249.817 211.69 249.768C211.659 249.72 211.645 249.663 211.649 249.605C211.654 249.548 211.677 249.494 211.715 249.451C211.753 249.408 211.804 249.379 211.86 249.367L215.816 248.471C215.64 248.503 215.48 248.591 215.358 248.722C215.237 248.853 215.16 249.019 215.14 249.197C215.14 249.363 215.131 249.529 215.113 249.695Z" fill="black"/>
<path d="M221.772 241.611C221.301 241.569 220.845 241.422 220.438 241.181C220.03 240.94 219.682 240.61 219.418 240.217C220.136 240.414 220.883 240.482 221.624 240.419L221.772 241.611Z" fill="white"/>
<path d="M217.897 230.892C217.897 230.892 216.697 230.569 215.386 232.411C215.386 232.411 216.93 231.102 217.897 230.892Z" fill="black"/>
<path d="M189.616 238.348L189.736 238.351C190.562 238.376 191.25 237.725 191.274 236.898L191.467 230.324C191.491 229.497 190.842 228.808 190.017 228.784L189.896 228.78C189.071 228.756 188.382 229.406 188.358 230.233L188.166 236.807C188.142 237.634 188.791 238.323 189.616 238.348Z" fill="#007B00"/>
<path d="M206.973 221.176C206.973 221.176 214.272 216.774 218.161 225.754L206.973 221.176Z" fill="#15247C"/>
<path d="M207.761 239.41C207.761 239.41 207.192 245.866 203.398 249.955C203.398 249.955 196.081 248.753 191.431 240.598C186.827 232.528 192.962 224.799 194.143 223.911L194.618 223.548C201.858 218.042 207.38 220.997 207.38 220.997C214.218 217.764 217.395 226.458 217.395 226.458C217.395 226.458 214.616 230.098 208.853 231.891L208.92 233.389C209.011 235.459 208.614 237.522 207.761 239.41Z" fill="#15247C"/>
<path d="M238.862 330.032L239.574 397.959L232.794 457.663H222.09L221.732 396.887L219.056 326.992L238.862 330.032Z" fill="#15247C"/>
<path d="M290.076 225.196C303.663 220.52 310.894 205.694 306.226 192.081C301.558 178.469 286.76 171.225 273.172 175.901C259.585 180.578 252.355 195.404 257.022 209.017C261.69 222.629 276.489 229.873 290.076 225.196Z" fill="#3562FF"/>
<path opacity="0.2" d="M290.076 225.196C303.663 220.52 310.894 205.694 306.226 192.081C301.558 178.469 286.76 171.225 273.172 175.901C259.585 180.578 252.355 195.404 257.022 209.017C261.69 222.629 276.489 229.873 290.076 225.196Z" fill="black"/>
<path d="M281.482 226.247C295.808 225.173 306.553 212.667 305.481 198.314C304.409 183.96 291.925 173.196 277.599 174.27C263.272 175.344 252.527 187.85 253.6 202.204C254.672 216.557 267.155 227.322 281.482 226.247Z" fill="#3562FF"/>
<path opacity="0.2" d="M281.482 226.247C295.808 225.173 306.553 212.667 305.481 198.314C304.409 183.96 291.925 173.196 277.599 174.27C263.272 175.344 252.527 187.85 253.6 202.204C254.672 216.557 267.155 227.322 281.482 226.247Z" fill="white"/>
<path d="M290.285 216.532C300.196 210.643 303.466 197.82 297.588 187.891C291.71 177.961 278.912 174.685 269 180.574C259.09 186.462 255.82 199.285 261.697 209.215C267.575 219.144 280.374 222.42 290.285 216.532Z" fill="#3562FF"/>
<path opacity="0.2" d="M259.778 199.36C260.24 193.836 262.875 188.721 267.101 185.142C271.327 181.563 276.8 179.812 282.314 180.275C286.615 180.638 290.929 182.714 294.057 185.233C292.103 183.253 289.775 181.684 287.207 180.617C284.64 179.551 281.886 179.01 279.107 179.025C276.328 179.04 273.58 179.611 271.024 180.705C268.468 181.8 266.157 183.394 264.225 185.396C262.293 187.398 260.78 189.766 259.775 192.362C258.77 194.957 258.292 197.729 258.37 200.512C258.449 203.295 259.082 206.034 260.232 208.569C261.382 211.104 263.026 213.383 265.068 215.272C263.15 212.961 261.75 210.264 260.964 207.363C260.27 204.983 259.55 201.992 259.778 199.36Z" fill="black"/>
<path d="M277.079 214.563L277.329 211.573C273.968 211.125 272.38 209.842 272.72 205.776C272.787 204.903 272.925 204.036 273.132 203.185L277.383 203.543C277.299 203.932 277.241 204.326 277.208 204.722C277.061 206.489 277.092 207.498 278.815 207.641C280.538 207.785 280.744 207.193 280.932 204.92C281.025 203.808 281.057 203.427 280.484 202.835C279.321 201.539 276.246 200.472 274.846 199.271C273.579 198.235 273.382 196.908 273.682 193.339C274.027 189.233 275.369 187.959 279.289 188.089L279.491 185.713L281.903 185.919L281.701 188.291C285.281 188.739 286.449 190.12 286.145 193.765C286.08 194.549 285.963 195.328 285.796 196.097L281.58 195.742C281.652 195.31 281.701 194.875 281.728 194.438C281.862 192.828 281.701 192.003 280.095 191.869C278.712 191.752 278.305 192.178 278.13 194.11C277.965 196.105 278.063 196.307 279.316 196.993C280.681 197.764 282.023 198.302 283.2 198.984C284.852 199.97 285.97 200.45 285.639 204.404C285.192 209.968 283.979 211.802 279.741 211.752L279.486 214.779L277.079 214.563Z" fill="white"/>
<path opacity="0.3" d="M229.702 342.132C230.688 346.077 231.047 350.153 230.767 354.21L227.979 394.56L224.913 457.659L222.269 457.838L221.553 397.062L227.012 328.095L227.621 333.784L229.702 342.132Z" fill="black"/>
<path opacity="0.15" d="M208.817 240.168L207.501 240.289L207.031 241.661L208.817 240.168Z" fill="black"/>
<path d="M209.6 325.042C209.6 325.042 199.138 334.627 203.613 349.664C204.696 353.491 205.372 357.423 205.626 361.393C205.874 365.075 205.688 368.774 205.071 372.413L203.165 383.661L150.36 392.955L150.718 403.321H212.697C214.554 403.321 216.357 402.689 217.81 401.53C219.263 400.37 220.279 398.75 220.694 396.936L231.013 347.907L232.253 329.301L221.571 320.2L209.6 325.042Z" fill="#15247C"/>
<path d="M235.832 266.382L229.567 269.256L237.775 279.98C237.775 279.98 241.708 285.234 238.893 289.135C238.37 289.831 237.909 290.572 237.515 291.349C236.289 293.892 235.573 301.267 237.067 308.225C237.067 308.225 239.923 323.957 238.857 330.032L222.747 327.404L221.911 322.352L219.203 326.835L208.172 325.042L210.741 317.842C212.395 313.282 212.796 308.361 211.9 303.593C211.437 301.184 210.624 298.855 209.488 296.68C208.651 295.08 207.85 293.461 207.121 291.802L201.608 279.249C200.409 276.573 199.954 273.622 200.292 270.708C200.314 270.538 200.337 270.368 200.364 270.197C200.732 267.993 201.682 265.928 203.113 264.215C204.545 262.501 206.407 261.202 208.508 260.45L230.856 252.232L235.832 266.382Z" fill="#007B00"/>
<path d="M284.35 206.309C284.21 206.243 284.05 206.229 283.901 206.271C283.751 206.313 283.621 206.408 283.536 206.538L279.508 210.448H279.24L282.399 203.359C282.472 203.187 282.477 202.993 282.411 202.817C282.345 202.642 282.214 202.498 282.046 202.416C281.877 202.335 281.684 202.321 281.506 202.378C281.327 202.435 281.178 202.558 281.088 202.723L280.014 204.516L281.222 201.66C281.306 201.458 281.313 201.231 281.241 201.024C281.169 200.816 281.024 200.642 280.833 200.535C280.628 200.424 280.389 200.397 280.165 200.46C279.942 200.522 279.751 200.67 279.634 200.871L275.356 208.417L275.015 208.354L277.629 202.077C277.69 201.926 277.694 201.757 277.639 201.603C277.585 201.45 277.476 201.321 277.333 201.242C277.19 201.163 277.024 201.139 276.865 201.175C276.706 201.211 276.565 201.303 276.47 201.436L274.68 204.444L272.442 208.296L272.299 207.775C273.346 204.001 272.747 203.489 272.259 203.09C272.216 203.057 272.166 203.033 272.113 203.023C272.059 203.013 272.004 203.016 271.952 203.031C271.9 203.046 271.852 203.074 271.813 203.111C271.774 203.149 271.744 203.196 271.726 203.247L269.395 210.066L267.556 218.226L268.388 218.809L267.605 218.311L247.624 246.91L231.21 252.99L235.47 264.965L253.177 256.814C254.768 256.077 256.066 254.826 256.865 253.263L273.463 222.064L277.938 216.89C279.095 215.328 280.16 213.699 281.128 212.012L284.655 207.179C284.692 207.102 284.714 207.018 284.718 206.933C284.723 206.847 284.711 206.762 284.683 206.681C284.655 206.6 284.611 206.526 284.553 206.462C284.497 206.398 284.427 206.346 284.35 206.309Z" fill="#FC9D9D"/>
<g opacity="0.15">
<path opacity="0.15" d="M277.656 209.372C277.621 209.378 277.584 209.378 277.549 209.372C277.493 209.342 277.451 209.292 277.431 209.231C277.412 209.171 277.417 209.105 277.446 209.049L280.332 203.36C280.361 203.304 280.41 203.262 280.47 203.243C280.529 203.223 280.594 203.228 280.65 203.256C280.678 203.27 280.703 203.29 280.723 203.313C280.743 203.337 280.759 203.364 280.768 203.394C280.778 203.424 280.782 203.455 280.779 203.486C280.776 203.517 280.767 203.547 280.753 203.575L277.871 209.264C277.848 209.3 277.816 209.328 277.778 209.347C277.74 209.366 277.698 209.374 277.656 209.372Z" fill="black"/>
</g>
<path opacity="0.1" d="M273.297 222.243L256.865 253.263C256.06 254.824 254.758 256.069 253.164 256.801L235.47 264.965L234.4 262.275L251.553 254.322C252.93 253.681 254.077 252.63 254.838 251.313L272.228 221.163C272.228 221.163 276.864 216.872 278.291 215.083L280.435 211.869L284.668 206.646C284.668 206.646 285.013 206.789 284.507 207.363L280.954 212.295L279.848 214.142C279.051 215.473 278.135 216.73 277.11 217.894L273.297 222.243Z" fill="black"/>
<path opacity="0.2" d="M235.832 266.382L229.567 269.255L230.816 271.224L231.885 272.654C226.175 273.725 221.893 270.148 221.893 270.148L234.937 263.781L235.832 266.382Z" fill="black"/>
<path opacity="0.2" d="M208.186 324.988L213.283 325.885L216.022 311.09C217.986 302.688 213.525 295.003 213.525 295.003L212.182 292.219C210.104 287.913 207.742 283.751 205.112 279.76C199.666 271.493 202.659 264.66 202.874 264.23C201.455 266.109 200.569 268.338 200.31 270.681C199.973 273.595 200.427 276.546 201.626 279.222L207.139 291.775C207.868 293.434 208.669 295.053 209.511 296.653C210.644 298.829 211.455 301.157 211.918 303.566C212.814 308.334 212.414 313.255 210.759 317.815L208.186 324.988Z" fill="black"/>
<path opacity="0.2" d="M238.325 289.458L235.828 291.242L237.077 292.609L238.325 289.458Z" fill="black"/>
<path opacity="0.3" d="M206.566 398.855L150.655 401.411L150.722 403.321H212.697C214.554 403.321 216.357 402.689 217.81 401.53C219.262 400.37 220.279 398.75 220.693 396.936L221.544 392.901C220.107 400.496 206.566 398.855 206.566 398.855Z" fill="black"/>
<path opacity="0.2" d="M203.358 381.693L207.64 383.836H203L203.358 381.693Z" fill="black"/>
<path opacity="0.3" d="M209.39 325.234C207.935 326.696 199.518 335.9 203.603 349.664C204.688 353.491 205.363 357.422 205.617 361.392C205.865 365.075 205.678 368.774 205.062 372.413L203.55 381.437L203.711 381.693L207.64 383.836C210.772 367.046 210.495 358.635 210.258 355.905C210.199 355.292 210.064 354.69 209.855 354.112C204.011 337.371 213.704 325.925 213.704 325.925L209.39 325.234Z" fill="black"/>
<path d="M212.115 244.086L206.163 240.858L206.392 234.842L212.115 237.76V244.086ZM206.62 240.616L211.771 243.333L211.636 238.016L206.812 235.554L206.62 240.616Z" fill="#15247C"/>
<path d="M210.974 237.437C210.974 237.437 218.326 236.213 222.108 235.321C222.251 235.286 222.403 235.306 222.532 235.376C222.662 235.447 222.761 235.563 222.81 235.702C223.401 237.325 224.851 242.566 220.908 246.951C220.831 247.036 220.732 247.097 220.622 247.128C220.512 247.159 220.396 247.158 220.286 247.126C218.76 246.678 212.8 244.436 210.079 243.266L210.974 237.437Z" fill="#007B00"/>
<path d="M209.117 240.15L208.956 236.218C207.613 232.631 202.941 234.236 204.423 237.773C205.904 241.311 208.938 240.096 208.938 240.096L209.117 240.15Z" fill="#FC9D9D"/>
<path opacity="0.15" d="M207.743 236.985C207.774 237.062 207.774 237.147 207.745 237.225C207.715 237.302 207.657 237.366 207.582 237.402C207.509 237.423 207.431 237.417 207.363 237.385C207.294 237.353 207.24 237.296 207.21 237.227C207.092 236.907 206.929 236.605 206.727 236.33C206.571 236.138 206.36 235.999 206.123 235.931C205.908 235.909 205.743 236.021 205.519 236.254C205.501 236.285 205.473 236.309 205.439 236.321C205.406 236.333 205.369 236.333 205.335 236.321C205.291 236.321 205.228 236.321 205.147 236.231C205.097 236.174 205.069 236.101 205.069 236.025C205.069 235.949 205.097 235.875 205.147 235.819C205.272 235.671 205.427 235.551 205.603 235.47C205.778 235.389 205.97 235.347 206.163 235.348C206.363 235.376 206.555 235.445 206.727 235.552C206.899 235.659 207.047 235.8 207.161 235.967C207.415 236.268 207.612 236.613 207.743 236.985Z" fill="black"/>
<path d="M517.22 476.628C529.956 472.243 536.731 458.349 532.359 445.591C527.983 432.833 514.115 426.044 501.379 430.427C488.643 434.81 481.868 448.705 486.244 461.465C490.617 474.22 504.489 481.012 517.22 476.628Z" fill="#3562FF"/>
<path opacity="0.2" d="M517.22 476.628C529.956 472.243 536.731 458.349 532.359 445.591C527.983 432.833 514.115 426.044 501.379 430.427C488.643 434.81 481.868 448.705 486.244 461.465C490.617 474.22 504.489 481.012 517.22 476.628Z" fill="black"/>
<path d="M509.152 477.654C522.577 476.646 532.646 464.926 531.643 451.472C530.637 438.021 518.939 427.932 505.509 428.938C492.084 429.945 482.016 441.666 483.018 455.117C484.025 468.571 495.723 478.659 509.152 477.654Z" fill="#3562FF"/>
<path opacity="0.2" d="M509.152 477.654C522.577 476.646 532.646 464.926 531.643 451.472C530.637 438.021 518.939 427.932 505.509 428.938C492.084 429.945 482.016 441.666 483.018 455.117C484.025 468.571 495.723 478.659 509.152 477.654Z" fill="white"/>
<path d="M517.252 470.131C526.569 464.657 529.692 452.655 524.228 443.32C518.764 433.987 506.78 430.857 497.468 436.331C488.151 441.805 485.027 453.807 490.491 463.142C495.955 472.476 507.935 475.605 517.252 470.131Z" fill="#3562FF"/>
<path opacity="0.2" d="M488.822 452.431C489.256 447.253 491.727 442.461 495.687 439.107C499.647 435.753 504.776 434.113 509.944 434.547C513.972 434.888 517.999 436.834 520.948 439.192C519.1 437.404 516.921 435.999 514.536 435.055C512.146 434.112 509.595 433.649 507.027 433.693C504.458 433.737 501.925 434.288 499.571 435.312C497.217 436.337 495.087 437.817 493.302 439.667C491.516 441.517 490.116 443.701 489.171 446.094C488.232 448.486 487.771 451.041 487.815 453.615C487.856 456.188 488.406 458.726 489.431 461.084C490.451 463.442 491.928 465.576 493.776 467.365C491.982 465.2 490.671 462.667 489.937 459.95C489.283 457.704 488.616 454.901 488.822 452.431Z" fill="black"/>
<path d="M505.035 466.684L505.268 463.882C502.135 463.474 500.632 462.259 500.954 458.448C501.012 457.627 501.142 456.816 501.339 456.018L505.322 456.354C505.245 456.722 505.187 457.089 505.156 457.461C505.017 459.116 505.049 460.062 506.664 460.196C508.279 460.331 508.454 459.748 508.646 457.645C508.736 456.605 508.763 456.242 508.23 455.69C507.143 454.475 504.261 453.476 502.945 452.35C501.759 451.382 501.576 450.136 501.858 446.791C502.18 442.94 503.438 441.743 507.112 441.859L507.299 439.618L509.537 439.81L509.354 442.052C512.714 442.5 513.802 443.765 513.515 447.186C513.457 447.919 513.345 448.647 513.184 449.364L509.237 449.033C509.304 448.629 509.354 448.222 509.376 447.813C509.501 446.302 509.349 445.531 507.841 445.401C506.552 445.294 506.154 445.697 506.006 447.495C505.85 449.364 505.939 449.553 507.116 450.185C508.391 450.907 509.653 451.413 510.754 452.05C512.303 452.978 513.35 453.426 513.041 457.13C512.593 462.344 511.484 464.061 507.51 464.016L507.273 466.854L505.035 466.684Z" fill="white"/>
</svg>
