<svg width="73" height="80" viewBox="0 0 73 80" fill="none" xmlns="http://www.w3.org/2000/svg">
<path d="M71.4878 15.72L37.595 0.238609C37.2518 0.081419 36.8782 0 36.5 0C36.1218 0 35.7482 0.081419 35.405 0.238609L1.51215 15.72C1.0596 15.9273 0.67661 16.2587 0.408592 16.6748C0.140574 17.091 -0.00122594 17.5745 7.98499e-06 18.068V61.932C-0.00122594 62.4255 0.140574 62.909 0.408592 63.3252C0.67661 63.7413 1.0596 64.0727 1.51215 64.28L35.405 79.7614C35.7482 79.9186 36.1218 80 36.5 80C36.8782 80 37.2518 79.9186 37.595 79.7614L71.4878 64.28C71.9404 64.0727 72.3234 63.7413 72.5914 63.3252C72.8594 62.909 73.0012 62.4255 73 61.932V18.068C73.0012 17.5745 72.8594 17.091 72.5914 16.6748C72.3234 16.2587 71.9404 15.9273 71.4878 15.72ZM36.5 30.7112L8.83822 18.068L36.5 5.42488L64.1618 18.068L36.5 30.7112ZM67.7857 60.2806L39.1071 73.3882V35.2008L67.7857 22.0932V60.2806Z" fill="#007B00"/>
</svg>
