<?xml version="1.0" encoding="utf-8"?>
<!-- Generator: Adobe Illustrator 19.0.0, SVG Export Plug-In . SVG Version: 6.00 Build 0)  -->
<svg version="1.1" id="Capa_1" xmlns="http://www.w3.org/2000/svg" xmlns:xlink="http://www.w3.org/1999/xlink" x="0px" y="0px"
	 viewBox="-269.5 375.9 90 90" style="enable-background:new -269.5 375.9 90 90;" xml:space="preserve">
<style type="text/css">
	.st0{fill:#007B00;}
</style>
<path class="st0" d="M-189.5,396.6l-33.9-15.5c-0.3-0.2-0.7-0.2-1.1-0.2s-0.8,0.1-1.1,0.2l-33.9,15.5c-0.5,0.2-0.8,0.5-1.1,1
	c-0.3,0.4-0.4,0.9-0.4,1.4v43.9c0,0.5,0.1,1,0.4,1.4c0.3,0.4,0.7,0.7,1.1,1l33.9,15.5c0.3,0.2,0.7,0.2,1.1,0.2s0.8-0.1,1.1-0.2
	l33.9-15.5c0.5-0.2,0.8-0.5,1.1-1c0.3-0.4,0.4-0.9,0.4-1.4V399c0-0.5-0.1-1-0.4-1.4C-188.7,397.1-189.1,396.8-189.5,396.6z
	 M-224.5,411.6l-27.7-12.6l27.7-12.6l27.7,12.6L-224.5,411.6z M-193.2,441.2l-28.7,13.1v-38.2l28.7-13.1V441.2z"/>
</svg>
