<svg width="26" height="27" viewBox="0 0 26 27" fill="none" xmlns="http://www.w3.org/2000/svg">
<path d="M13 1.6875C6.71836 1.6875 1.625 6.97676 1.625 13.5C1.625 20.0232 6.71836 25.3125 13 25.3125C19.2816 25.3125 24.375 20.0232 24.375 13.5C24.375 6.97676 19.2816 1.6875 13 1.6875ZM18.4666 10.5917C18.4742 10.7156 18.4742 10.8448 18.4742 10.9714C18.4742 14.8421 15.6355 19.3008 10.4482 19.3008C8.84863 19.3008 7.36582 18.8183 6.1166 17.9877C6.34512 18.0141 6.56348 18.0246 6.79707 18.0246C8.11738 18.0246 9.33105 17.5605 10.2984 16.7748C9.05938 16.7484 8.01836 15.9047 7.66289 14.7445C8.09707 14.8104 8.48809 14.8104 8.93496 14.6918C8.29696 14.5572 7.72351 14.1974 7.31203 13.6735C6.90056 13.1495 6.67643 12.4938 6.67773 11.8178V11.7809C7.05098 11.9997 7.49023 12.1342 7.9498 12.1526C7.56347 11.8853 7.24663 11.523 7.02739 11.098C6.80815 10.673 6.69328 10.1984 6.69297 9.71631C6.69297 9.17051 6.83008 8.67217 7.07637 8.23975C7.78452 9.14503 8.66818 9.88543 9.66993 10.4128C10.6717 10.9402 11.7691 11.2428 12.8908 11.301C12.4922 9.31025 13.9242 7.69922 15.6457 7.69922C16.4582 7.69922 17.1895 8.05254 17.7049 8.62207C18.3422 8.49814 18.9516 8.25029 19.4949 7.91807C19.2842 8.5957 18.8424 9.16787 18.2559 9.5291C18.8246 9.46582 19.373 9.30234 19.8809 9.07295C19.4975 9.6583 19.0176 10.1777 18.4666 10.5917V10.5917Z" fill="#F3F2EF"/>
</svg>
